<?xml version="1.0" encoding="utf-8"?>
<!-- Generator: Adobe Illustrator 22.0.1, SVG Export Plug-In . SVG Version: 6.00 Build 0)  -->
<svg version="1.1" id="Layer_1" xmlns="http://www.w3.org/2000/svg" xmlns:xlink="http://www.w3.org/1999/xlink" x="0px" y="0px"
	 viewBox="0 0 30.3737 36.8884" style="enable-background:new 0 0 30.3737 36.8884;" xml:space="preserve">
<style type="text/css">
	.st0{fill:#00A05D;}
</style>
<g>
	<path class="st0" d="M29.4216,16.9239c0.7968-4.4161,1.049-8.9363,0.92-13.4181C30.308,2.3344,30.233,1.168,30.1417,0
		c-0.1602,0.6224-0.6608,1.1396-1.0868,1.5973c-0.4366,0.469-0.9128,0.9002-1.412,1.3016
		c-1.0231,0.8226-2.1402,1.5208-3.2715,2.1832c-2.3462,1.374-4.8124,2.5323-7.3226,3.5724
		c-2.5671,1.0637-5.2205,1.9203-7.7526,3.0665c-1.2561,0.5686-2.5159,1.1713-3.6711,1.928
		c-1.0481,0.6866-1.9902,1.5289-2.7866,2.4964c-1.6441,1.9975-2.6199,4.4858-2.8054,7.0641
		c-0.095,1.3196,0.0135,2.6536,0.3254,3.9395c0.1553,0.6405,0.3601,1.2693,0.612,1.8783c0.1258,0.3043,0.2728,0.5968,0.4119,0.8947
		c0.0641,0.1371,0.1076,0.3508,0.2184,0.4556c0.1268,0.1201,0.295-0.0331,0.4314-0.0957c0.3074-0.1411,0.6292-0.2538,0.9408-0.3855
		c0.6261-0.2645,1.2471-0.548,1.8609-0.8399c1.2758-0.6066,2.5109-1.2913,3.725-2.0121c2.4034-1.4267,4.6862-3.0781,6.79-4.9178
		c4.2725-3.7362,7.9001-8.2152,10.6077-13.2085c0.3379-0.6231,0.6657-1.2516,0.9929-1.8805
		c-0.4679,1.2306-0.973,2.4498-1.4888,3.6609c-0.9153,2.1489-2.0299,4.1993-3.2523,6.1887
		c-2.786,4.5341-6.3776,8.5722-10.4843,11.952c-2.2549,1.8558-4.6777,3.5688-7.2302,4.9925
		c0.9323,0.7911,1.9178,1.4865,3.0424,1.978c1.1436,0.4998,2.3687,0.8204,3.6063,0.9752c0.5929,0.0742,1.2006,0.126,1.7982,0.0932
		c0.5801-0.0318,1.1521-0.1477,1.7175-0.276c1.1499-0.2609,2.2737-0.6373,3.3404-1.1411c4.3142-2.0374,7.2467-5.9713,9.0615-10.2827
		C28.1731,22.5349,28.9131,19.7427,29.4216,16.9239z"/>
</g>
</svg>
