<?xml version="1.0" encoding="utf-8"?>
<!-- Generator: Adobe Illustrator 22.0.1, SVG Export Plug-In . SVG Version: 6.00 Build 0)  -->
<svg version="1.1" id="Layer_1" xmlns="http://www.w3.org/2000/svg" xmlns:xlink="http://www.w3.org/1999/xlink" x="0px" y="0px"
	 viewBox="0 0 281.67 68.5673" style="enable-background:new 0 0 281.67 68.5673;" xml:space="preserve">
<style type="text/css">
	.st0{fill:#FFFFFF;}
</style>
<g>
	<g>
		<g>
			<path class="st0" d="M66.7768,52.4886h3.9735l-0.0082,1.1865h-2.8629v1.9167h2.6079v1.1865h-2.6079v2.8091h-1.1024V52.4886z"/>
			<path class="st0" d="M74.876,54.4661c0.3482,0.2299,0.6197,0.5526,0.8145,0.9685c0.1946,0.4158,0.292,0.8941,0.292,1.435
				c0,0.5476-0.0974,1.0311-0.292,1.4502c-0.1947,0.4192-0.4662,0.7438-0.8145,0.9735c-0.3484,0.23-0.7501,0.3448-1.2052,0.3448
				c-0.4607,0-0.8666-0.1148-1.2175-0.3448c-0.3511-0.2297-0.624-0.5543-0.8186-0.9735c-0.1947-0.4191-0.292-0.9026-0.292-1.4502
				c0-0.5408,0.0973-1.0191,0.292-1.435c0.1947-0.4158,0.4675-0.7386,0.8186-0.9685c0.3509-0.2297,0.7569-0.3448,1.2175-0.3448
				C74.126,54.1213,74.5277,54.2364,74.876,54.4661z M72.7659,55.7033c-0.2303,0.3043-0.3455,0.6998-0.3455,1.1865
				c0,0.4867,0.1152,0.8823,0.3455,1.1865c0.2304,0.3043,0.5319,0.4563,0.9049,0.4563c0.362,0,0.6582-0.152,0.8885-0.4563
				c0.2303-0.3042,0.3455-0.6998,0.3455-1.1865c0-0.4867-0.1152-0.8822-0.3455-1.1865c-0.2303-0.3042-0.5265-0.4563-0.8885-0.4563
				C73.2978,55.247,72.9963,55.3991,72.7659,55.7033z"/>
			<path class="st0" d="M78.8001,54.4002c0.2551-0.1858,0.5525-0.2823,0.8926-0.2891v1.2778
				c-0.4553-0.0337-0.8186,0.0963-1.09,0.3904s-0.4072,0.6913-0.4072,1.1915v2.6164H77.126v-5.4255h1.0695v1.0445
				C78.3436,54.8549,78.5451,54.5862,78.8001,54.4002z"/>
			<path class="st0" d="M85.6366,53.7968c-0.3099-0.1217-0.5829-0.1826-0.8186-0.1826c-0.2632,0-0.4717,0.0609-0.6252,0.1826
				c-0.1536,0.1217-0.2303,0.2907-0.2303,0.5071c0,0.1962,0.0535,0.36,0.1604,0.4918c0.1069,0.1319,0.2413,0.24,0.4031,0.3245
				c0.1617,0.0846,0.3825,0.1774,0.6623,0.2789c0.3893,0.142,0.7088,0.2839,0.9584,0.4259c0.2495,0.142,0.462,0.3516,0.6376,0.6287
				c0.1754,0.2773,0.2632,0.6424,0.2632,1.0952c0,0.4328-0.0946,0.8098-0.2838,1.1308c-0.1892,0.3211-0.4498,0.5663-0.7815,0.7352
				c-0.3319,0.1691-0.7116,0.2535-1.1394,0.2535c-0.4498,0-0.8885-0.103-1.3163-0.3093c-0.4278-0.2061-0.8008-0.4816-1.1188-0.8265
				l0.4607-1.1561c0.2906,0.3313,0.617,0.5918,0.979,0.7809c0.362,0.1894,0.6993,0.2841,1.0119,0.2841
				c0.3071,0,0.5484-0.0727,0.7239-0.218c0.1755-0.1454,0.2633-0.3432,0.2633-0.5932c0-0.2028-0.0535-0.3702-0.1604-0.5021
				c-0.1069-0.1318-0.2427-0.2383-0.4072-0.3194c-0.1645-0.0811-0.3895-0.1724-0.6746-0.2739
				c-0.3895-0.142-0.7075-0.2804-0.9543-0.4157c-0.2468-0.1352-0.458-0.3398-0.6335-0.6135
				c-0.1756-0.2739-0.2632-0.6339-0.2632-1.0801c0-0.4123,0.089-0.7723,0.2673-1.08c0.1782-0.3076,0.4305-0.5458,0.7569-0.715
				c0.3262-0.1689,0.7033-0.2535,1.1312-0.2535c0.3729,0,0.7417,0.0677,1.1065,0.2028c0.3647,0.1353,0.6896,0.3179,0.9749,0.5476
				l-0.4443,1.1865C86.2495,54.0909,85.9463,53.9185,85.6366,53.7968z"/>
			<path class="st0" d="M92.329,54.1618v5.4255h-1.0777v-1.0039c-0.2962,0.7031-0.8062,1.0546-1.5302,1.0546
				c-0.4936,0-0.8831-0.1858-1.1682-0.5577c-0.2853-0.3718-0.4278-0.8788-0.4278-1.5212v-3.3973h1.0777v3.0119
				c0,0.3787,0.0835,0.6761,0.2509,0.8925c0.1672,0.2164,0.399,0.3244,0.6952,0.3244c0.34-0.0067,0.6087-0.1554,0.8062-0.4461
				c0.1975-0.2906,0.2962-0.6591,0.2962-1.1054v-2.6773H92.329z"/>
			<path class="st0" d="M97.5571,54.4712c0.3153,0.2332,0.5594,0.5596,0.7321,0.9786c0.1728,0.4192,0.2592,0.9026,0.2592,1.4502
				c0,0.5409-0.0851,1.0175-0.2551,1.4298c-0.1701,0.4126-0.4113,0.7337-0.7239,0.9634c-0.3127,0.23-0.6746,0.3448-1.086,0.3448
				c-0.3291,0-0.6198-0.0793-0.8721-0.2383c-0.2523-0.1588-0.4607-0.3904-0.6252-0.6947v2.8497h-1.0695v-7.3928h1.0695v0.8925
				c0.159-0.3043,0.3633-0.5358,0.6129-0.6947c0.2495-0.1588,0.5388-0.2383,0.8679-0.2383
				C96.8784,54.1213,97.2417,54.2379,97.5571,54.4712z M97.117,58.0408c0.2303-0.3076,0.3455-0.7014,0.3455-1.1815
				c0-0.4799-0.1152-0.8721-0.3455-1.1763c-0.2303-0.3043-0.5265-0.4563-0.8885-0.4563c-0.3675,0-0.6663,0.152-0.8967,0.4563
				c-0.2303,0.3042-0.3455,0.6964-0.3455,1.1763c0,0.4867,0.1151,0.8823,0.3455,1.1865c0.2304,0.3043,0.5293,0.4563,0.8967,0.4563
				C96.5905,58.5022,96.8866,58.3485,97.117,58.0408z"/>
			<path class="st0" d="M103.3734,54.4712c0.3154,0.2332,0.5594,0.5596,0.7322,0.9786c0.1728,0.4192,0.2592,0.9026,0.2592,1.4502
				c0,0.5409-0.0852,1.0175-0.255,1.4298c-0.1701,0.4126-0.4113,0.7337-0.7241,0.9634c-0.3126,0.23-0.6746,0.3448-1.0858,0.3448
				c-0.3292,0-0.6199-0.0793-0.8721-0.2383c-0.2523-0.1588-0.4607-0.3904-0.6252-0.6947v2.8497H99.733v-7.3928h1.0695v0.8925
				c0.1589-0.3043,0.3633-0.5358,0.6128-0.6947c0.2495-0.1588,0.5389-0.2383,0.8679-0.2383
				C102.6947,54.1213,103.0579,54.2379,103.3734,54.4712z M102.9333,58.0408c0.2303-0.3076,0.3455-0.7014,0.3455-1.1815
				c0-0.4799-0.1152-0.8721-0.3455-1.1763c-0.2304-0.3043-0.5265-0.4563-0.8886-0.4563c-0.3675,0-0.6663,0.152-0.8967,0.4563
				c-0.2303,0.3042-0.3455,0.6964-0.3455,1.1763c0,0.4867,0.1152,0.8823,0.3455,1.1865c0.2304,0.3043,0.5293,0.4563,0.8967,0.4563
				C102.4068,58.5022,102.7029,58.3485,102.9333,58.0408z"/>
			<path class="st0" d="M105.5494,52.0627h1.0695v7.5246h-1.0695V52.0627z"/>
			<path class="st0" d="M109.5023,61.2758c-0.255,0.2265-0.5581,0.3398-0.909,0.3398c-0.214,0-0.4073-0.039-0.5801-0.1167
				s-0.3442-0.2012-0.5142-0.37l0.4608-1.0041c0.1041,0.0947,0.2001,0.1638,0.2879,0.208c0.0876,0.0439,0.181,0.0659,0.2797,0.0659
				c0.2907,0,0.5045-0.1826,0.6417-0.5476l0.1316-0.355l-1.8182-5.3342h1.1107l1.2505,3.9449l1.1434-3.9449h1.0777l-1.9744,6.105
				C109.9534,60.7129,109.7574,61.0492,109.5023,61.2758z"/>
			<path class="st0" d="M113.8584,52.0525c0.1152,0.1489,0.1727,0.3381,0.1727,0.568c0,0.2231-0.0575,0.409-0.1727,0.5577
				c-0.1152,0.1489-0.2606,0.2232-0.4361,0.2232s-0.3209-0.0743-0.4361-0.2232c-0.1151-0.1486-0.1727-0.3346-0.1727-0.5577
				c0-0.2299,0.0576-0.4191,0.1727-0.568c0.1152-0.1486,0.2606-0.2231,0.4361-0.2231S113.7431,51.9039,113.8584,52.0525z
				 M112.8957,54.1618h1.0695v5.4255h-1.0695V54.1618z"/>
			<path class="st0" d="M119.3454,54.674c0.2907,0.3752,0.4361,0.8841,0.4361,1.5262v3.3871h-1.0777v-3.0017
				c0-0.3786-0.0879-0.6777-0.2633-0.8975c-0.1757-0.2195-0.4142-0.3296-0.7158-0.3296c-0.3566,0.0068-0.6375,0.1557-0.8432,0.4463
				c-0.2057,0.2907-0.3085,0.6627-0.3085,1.1154v2.6671h-1.0695v-5.4255h1.0695v1.0141c0.3016-0.6962,0.8281-1.0511,1.5795-1.0648
				C118.657,54.1112,119.0547,54.2988,119.3454,54.674z"/>
			<path class="st0" d="M125.2193,54.1618v4.9083c0,0.5139-0.0947,0.9617-0.2839,1.3437c-0.1891,0.3819-0.4579,0.676-0.8061,0.8822
				c-0.3484,0.2062-0.7529,0.3093-1.2135,0.3093c-0.6692,0-1.2889-0.24-1.8592-0.72l0.4278-0.9532
				c0.4168,0.3786,0.8747,0.5678,1.3738,0.5678c0.3949,0,0.7089-0.1251,0.942-0.3752c0.2331-0.2501,0.3497-0.5915,0.3497-1.0242
				v-0.6389c-0.1481,0.2773-0.3402,0.4885-0.5759,0.6337c-0.2358,0.1455-0.5101,0.218-0.8227,0.218
				c-0.3839,0-0.7239-0.1098-1.0201-0.3296c-0.2963-0.2195-0.5265-0.5272-0.6911-0.9228c-0.1646-0.3955-0.2468-0.8501-0.2468-1.3639
				c0-0.5071,0.0822-0.9549,0.2468-1.3437c0.1645-0.3887,0.3948-0.6912,0.6911-0.9076c0.2962-0.2163,0.6362-0.3245,1.0201-0.3245
				c0.3072,0,0.5799,0.0744,0.8186,0.2231c0.2385,0.1488,0.4319,0.3585,0.5799,0.6287v-0.8113H125.2193z M123.8248,57.8482
				c0.2165-0.2873,0.325-0.6608,0.325-1.1206c0-0.4597-0.1084-0.8332-0.325-1.1206c-0.2167-0.2873-0.4977-0.431-0.8432-0.431
				c-0.3456,0-0.6267,0.1455-0.8433,0.4361c-0.2167,0.2909-0.3278,0.6627-0.3331,1.1156c0.0053,0.4598,0.1164,0.8333,0.3331,1.1206
				s0.4977,0.4309,0.8433,0.4309C123.3271,58.2791,123.6081,58.1355,123.8248,57.8482z"/>
			<path class="st0" d="M133.1499,59.8206l-0.8721-1.0648c-0.5155,0.595-1.0858,0.8924-1.7111,0.8924
				c-0.3455,0-0.6595-0.0863-0.942-0.2587c-0.2826-0.1724-0.5047-0.4123-0.6663-0.72c-0.1619-0.3076-0.2428-0.6541-0.2428-1.0394
				c0-0.4463,0.1083-0.8197,0.325-1.1206c0.2167-0.3008,0.5142-0.5763,0.8927-0.8265c-0.181-0.311-0.3141-0.5966-0.399-0.8569
				c-0.085-0.2601-0.1276-0.5154-0.1276-0.7656c0-0.4867,0.1399-0.8806,0.4196-1.1815c0.2797-0.3008,0.6526-0.4513,1.1188-0.4513
				c0.2906,0,0.5511,0.0644,0.7815,0.1928c0.2304,0.1285,0.4085,0.3093,0.5347,0.5424c0.1262,0.2332,0.1892,0.4987,0.1892,0.7961
				c0,0.4396-0.1206,0.803-0.3619,1.0902c-0.2415,0.2875-0.5814,0.5663-1.0202,0.8367c0.318,0.4327,0.6911,0.9094,1.1189,1.4298
				c0.1811-0.3379,0.34-0.7504,0.4772-1.2372l0.6992,0.6389c-0.1536,0.4935-0.3455,0.933-0.5759,1.3184l0.9132,1.0952
				L133.1499,59.8206z M131.702,58.056c-0.5594-0.6828-1.0036-1.254-1.3327-1.7139c-0.2468,0.1759-0.4361,0.3567-0.5677,0.5426
				c-0.1316,0.186-0.1974,0.4006-0.1974,0.6439c0,0.3313,0.0959,0.6018,0.2879,0.8113c0.192,0.2096,0.4305,0.3144,0.7158,0.3144
				C130.9863,58.6543,131.3509,58.455,131.702,58.056z M130.6407,55.2267c0.3072-0.196,0.543-0.3904,0.7075-0.5832
				c0.1645-0.1926,0.2468-0.4209,0.2468-0.6845c0-0.2163-0.059-0.3904-0.1769-0.5222c-0.118-0.1318-0.2729-0.1978-0.4649-0.1978
				c-0.2084,0-0.3771,0.0778-0.5059,0.2332c-0.1289,0.1557-0.1933,0.3517-0.1933,0.5882
				C130.2541,54.3918,130.3829,54.7805,130.6407,55.2267z"/>
			<path class="st0" d="M136.9094,52.4886h1.2588l1.9085,4.5736l1.8922-4.5736h1.2586v7.0987h-1.0118v-5.0908l-1.7935,4.3606
				h-0.7075l-1.8017-4.3606v5.0908h-1.0036V52.4886z"/>
			<path class="st0" d="M147.4149,59.5873v-0.6591c-0.1536,0.2366-0.351,0.4157-0.5923,0.5374
				c-0.2414,0.1217-0.5184,0.1826-0.831,0.1826c-0.3071,0-0.5772-0.0725-0.8103-0.218c-0.2331-0.1454-0.4127-0.3464-0.5388-0.6034
				c-0.1263-0.2568-0.1892-0.5441-0.1892-0.862c0-0.507,0.1452-0.9041,0.4359-1.1915c0.2907-0.2873,0.7021-0.4343,1.234-0.4412
				h1.2834V56.19c0-0.3176-0.085-0.5643-0.255-0.7402c-0.1701-0.1758-0.4169-0.2637-0.7404-0.2637
				c-0.4169,0-0.853,0.1691-1.3081,0.5071l-0.3866-0.9128c0.3455-0.2365,0.6594-0.4073,0.942-0.5121
				c0.2823-0.1047,0.6128-0.1572,0.9913-0.1572c0.5703,0,1.0132,0.1691,1.3286,0.5071c0.3153,0.3381,0.4757,0.8113,0.4813,1.4197
				l0.0083,3.5493H147.4149z M147.0364,58.3654c0.2194-0.179,0.3427-0.4006,0.3702-0.6643v-0.4867h-1.1105
				c-0.2853,0-0.495,0.0524-0.6294,0.1572c-0.1345,0.1049-0.2016,0.2755-0.2016,0.5121c0,0.2299,0.07,0.4124,0.2099,0.5476
				c0.1398,0.1353,0.3304,0.2028,0.5718,0.2028C146.5538,58.6341,146.817,58.5445,147.0364,58.3654z"/>
			<path class="st0" d="M150.8456,52.0525c0.1152,0.1489,0.1727,0.3381,0.1727,0.568c0,0.2231-0.0575,0.409-0.1727,0.5577
				c-0.1152,0.1489-0.2606,0.2232-0.4361,0.2232c-0.1755,0-0.3209-0.0743-0.4361-0.2232c-0.1151-0.1486-0.1727-0.3346-0.1727-0.5577
				c0-0.2299,0.0576-0.4191,0.1727-0.568c0.1152-0.1486,0.2605-0.2231,0.4361-0.2231
				C150.585,51.8295,150.7304,51.9039,150.8456,52.0525z M149.883,54.1618h1.0695v5.4255h-1.0695V54.1618z"/>
			<path class="st0" d="M156.3326,54.674c0.2907,0.3752,0.4361,0.8841,0.4361,1.5262v3.3871h-1.0777v-3.0017
				c0-0.3786-0.0879-0.6777-0.2633-0.8975c-0.1757-0.2195-0.4142-0.3296-0.7158-0.3296c-0.3566,0.0068-0.6375,0.1557-0.8432,0.4463
				c-0.2057,0.2907-0.3085,0.6627-0.3085,1.1154v2.6671h-1.0695v-5.4255h1.0695v1.0141c0.3016-0.6962,0.8281-1.0511,1.5795-1.0648
				C155.6443,54.1112,156.0419,54.2988,156.3326,54.674z"/>
			<path class="st0" d="M160.7585,59.2527c-0.351,0.2635-0.7185,0.3955-1.1024,0.3955c-0.3783,0-0.6883-0.1369-0.9296-0.4107
				c-0.2414-0.2739-0.3619-0.6777-0.3619-1.2119v-2.6773h-0.617l-0.0083-0.9633h0.6253v-1.4908h1.0612v1.4908h1.2586v0.9633h-1.2586
				v2.444c0,0.2502,0.0383,0.4277,0.1152,0.5324c0.0766,0.1049,0.1918,0.1572,0.3455,0.1572c0.1645,0,0.3729-0.0743,0.6253-0.2231
				L160.7585,59.2527z"/>
			<path class="st0" d="M165.1888,54.8616c0.3537,0.4937,0.5306,1.1865,0.5306,2.0789c0,0.1759-0.0029,0.3078-0.0083,0.3956h-3.2496
				c0.0712,0.3853,0.218,0.6879,0.4401,0.9076c0.2221,0.2198,0.4949,0.3296,0.8186,0.3296c0.2248,0,0.4402-0.0523,0.6458-0.1572
				c0.2057-0.1047,0.3853-0.2551,0.5388-0.4513l0.5759,0.7402c-0.2194,0.2976-0.4867,0.5274-0.802,0.6897
				c-0.3154,0.1622-0.6651,0.2433-1.0489,0.2433c-0.4498,0-0.8461-0.1148-1.1888-0.3448c-0.3429-0.2297-0.6075-0.5526-0.7939-0.9685
				c-0.1865-0.4158-0.2797-0.894-0.2797-1.435c0-0.5408,0.0945-1.0208,0.2838-1.44c0.1892-0.4191,0.4537-0.7454,0.7939-0.9786
				c0.34-0.2332,0.7267-0.3498,1.16-0.3498C164.307,54.1213,164.8351,54.3682,165.1888,54.8616z M164.7404,56.4537
				c-0.011-0.3988-0.1181-0.7165-0.3209-0.9532c-0.203-0.2365-0.4717-0.355-0.8061-0.355c-0.3127,0-0.5746,0.1167-0.7857,0.3499
				c-0.2112,0.2332-0.3414,0.5526-0.3907,0.9583H164.7404z"/>
			<path class="st0" d="M170.6965,54.674c0.2907,0.3752,0.4361,0.8841,0.4361,1.5262v3.3871h-1.0777v-3.0017
				c0-0.3786-0.0879-0.6777-0.2633-0.8975c-0.1756-0.2195-0.4142-0.3296-0.7158-0.3296c-0.3566,0.0068-0.6375,0.1557-0.8432,0.4463
				c-0.2057,0.2907-0.3085,0.6627-0.3085,1.1154v2.6671h-1.0695v-5.4255h1.0695v1.0141c0.3016-0.6962,0.8281-1.0511,1.5795-1.0648
				C170.0081,54.1112,170.4058,54.2988,170.6965,54.674z"/>
			<path class="st0" d="M175.1471,59.5873v-0.6591c-0.1537,0.2366-0.351,0.4157-0.5923,0.5374
				c-0.2414,0.1217-0.5184,0.1826-0.831,0.1826c-0.3072,0-0.5772-0.0725-0.8103-0.218c-0.2331-0.1454-0.4127-0.3464-0.5388-0.6034
				c-0.1263-0.2568-0.1892-0.5441-0.1892-0.862c0-0.507,0.1452-0.9041,0.4359-1.1915c0.2907-0.2873,0.7021-0.4343,1.234-0.4412
				h1.2834V56.19c0-0.3176-0.0851-0.5643-0.255-0.7402c-0.1701-0.1758-0.4169-0.2637-0.7404-0.2637
				c-0.4169,0-0.853,0.1691-1.3081,0.5071l-0.3866-0.9128c0.3455-0.2365,0.6594-0.4073,0.942-0.5121
				c0.2823-0.1047,0.6128-0.1572,0.9913-0.1572c0.5703,0,1.0132,0.1691,1.3286,0.5071c0.3153,0.3381,0.4757,0.8113,0.4813,1.4197
				l0.0083,3.5493H175.1471z M174.7686,58.3654c0.2194-0.179,0.3427-0.4006,0.3702-0.6643v-0.4867h-1.1106
				c-0.2853,0-0.495,0.0524-0.6294,0.1572c-0.1345,0.1049-0.2016,0.2755-0.2016,0.5121c0,0.2299,0.07,0.4124,0.2099,0.5476
				c0.1398,0.1353,0.3304,0.2028,0.5718,0.2028C174.286,58.6341,174.5493,58.5445,174.7686,58.3654z"/>
			<path class="st0" d="M181.457,54.674c0.2907,0.3752,0.4361,0.8841,0.4361,1.5262v3.3871h-1.0777v-3.0017
				c0-0.3786-0.0879-0.6777-0.2633-0.8975c-0.1757-0.2195-0.4142-0.3296-0.7158-0.3296c-0.3566,0.0068-0.6375,0.1557-0.8432,0.4463
				c-0.2057,0.2907-0.3085,0.6627-0.3085,1.1154v2.6671h-1.0695v-5.4255h1.0695v1.0141c0.3016-0.6962,0.8281-1.0511,1.5795-1.0648
				C180.7686,54.1112,181.1663,54.2988,181.457,54.674z"/>
			<path class="st0" d="M185.1837,55.2774c-0.3566,0-0.6458,0.1488-0.8679,0.4461c-0.2221,0.2976-0.3332,0.683-0.3332,1.1562
				c0,0.4867,0.1111,0.8789,0.3332,1.1763c0.2221,0.2975,0.5113,0.4461,0.8679,0.4461c0.5266,0,0.9213-0.2129,1.1846-0.6388
				l0.6665,0.6794c-0.1975,0.3516-0.4581,0.622-0.7817,0.8113c-0.3236,0.1894-0.6992,0.2839-1.127,0.2839
				c-0.4333,0-0.8186-0.1148-1.1559-0.3448c-0.3373-0.2297-0.5992-0.5526-0.7856-0.9685c-0.1865-0.4158-0.2797-0.894-0.2797-1.435
				c0-0.5476,0.0946-1.0308,0.2838-1.4502c0.1892-0.4191,0.4525-0.7436,0.7898-0.9735c0.3373-0.2297,0.7253-0.3448,1.1641-0.3448
				c0.4003,0,0.7582,0.0861,1.0736,0.2585c0.3153,0.1724,0.5718,0.4176,0.7692,0.7353l-0.6499,0.7605
				C186.0392,55.4768,185.6552,55.2774,185.1837,55.2774z"/>
			<path class="st0" d="M191.4237,54.8616c0.3537,0.4937,0.5306,1.1865,0.5306,2.0789c0,0.1759-0.0029,0.3078-0.0083,0.3956h-3.2496
				c0.0712,0.3853,0.218,0.6879,0.4402,0.9076c0.2221,0.2198,0.4949,0.3296,0.8186,0.3296c0.2248,0,0.4401-0.0523,0.6458-0.1572
				c0.2057-0.1047,0.3853-0.2551,0.5388-0.4513l0.5759,0.7402c-0.2194,0.2976-0.4867,0.5274-0.802,0.6897
				c-0.3154,0.1622-0.6651,0.2433-1.0489,0.2433c-0.4498,0-0.8461-0.1148-1.1888-0.3448c-0.3429-0.2297-0.6075-0.5526-0.7939-0.9685
				c-0.1865-0.4158-0.2797-0.894-0.2797-1.435c0-0.5408,0.0946-1.0208,0.2838-1.44c0.1892-0.4191,0.4537-0.7454,0.7939-0.9786
				c0.34-0.2332,0.7267-0.3498,1.16-0.3498C190.5419,54.1213,191.07,54.3682,191.4237,54.8616z M190.9753,56.4537
				c-0.011-0.3988-0.1181-0.7165-0.3209-0.9532c-0.203-0.2365-0.4717-0.355-0.8061-0.355c-0.3127,0-0.5746,0.1167-0.7857,0.3499
				c-0.2112,0.2332-0.3414,0.5526-0.3907,0.9583H190.9753z"/>
			<path class="st0" d="M198.4493,54.4661c0.3482,0.2299,0.6197,0.5526,0.8144,0.9685c0.1947,0.4158,0.2921,0.8941,0.2921,1.435
				c0,0.5476-0.0974,1.0311-0.2921,1.4502c-0.1947,0.4192-0.4662,0.7438-0.8144,0.9735c-0.3483,0.23-0.75,0.3448-1.2052,0.3448
				c-0.4607,0-0.8666-0.1148-1.2176-0.3448c-0.351-0.2297-0.6239-0.5543-0.8185-0.9735c-0.1948-0.4191-0.2921-0.9026-0.2921-1.4502
				c0-0.5408,0.0973-1.0191,0.2921-1.435c0.1945-0.4158,0.4675-0.7386,0.8185-0.9685c0.351-0.2297,0.7569-0.3448,1.2176-0.3448
				C197.6993,54.1213,198.101,54.2364,198.4493,54.4661z M196.3392,55.7033c-0.2304,0.3043-0.3456,0.6998-0.3456,1.1865
				c0,0.4867,0.1152,0.8823,0.3456,1.1865c0.2303,0.3043,0.5318,0.4563,0.9049,0.4563c0.362,0,0.6582-0.152,0.8884-0.4563
				c0.2304-0.3042,0.3456-0.6998,0.3456-1.1865c0-0.4867-0.1152-0.8822-0.3456-1.1865c-0.2303-0.3042-0.5264-0.4563-0.8884-0.4563
				C196.8711,55.247,196.5695,55.3991,196.3392,55.7033z"/>
			<path class="st0" d="M202.0773,53.3101c-0.1069,0.1151-0.1604,0.2875-0.1604,0.5172v0.5578h1.1024v0.9633h-1.1024v4.239h-1.0694
				v-4.239h-0.5759V54.385h0.5759v-0.5172c0-0.3988,0.0712-0.7386,0.2138-1.0193c0.1426-0.2804,0.3332-0.4918,0.5718-0.6337
				s0.4977-0.213,0.7775-0.213c0.2741,0,0.543,0.0778,0.8063,0.2332l-0.1892,1.0648c-0.2194-0.108-0.4005-0.1622-0.543-0.1622
				C202.3201,53.1377,202.1843,53.1951,202.0773,53.3101z"/>
			<path class="st0" d="M210.0778,52.9399c0.4551,0.3009,0.8116,0.7218,1.0695,1.2626c0.2577,0.5409,0.3866,1.1528,0.3866,1.8356
				c0,0.6829-0.1304,1.2929-0.3908,1.8304c-0.2605,0.5374-0.6211,0.9583-1.0817,1.2626c-0.4608,0.3042-0.9845,0.4563-1.5714,0.4563
				h-2.3529v-7.0987h2.394C209.107,52.4886,209.6224,52.6391,210.0778,52.9399z M209.506,58.0915
				c0.2824-0.1993,0.5032-0.4766,0.6623-0.8315c0.1591-0.355,0.2386-0.7588,0.2386-1.2119c0-0.4528-0.0822-0.8602-0.2468-1.222
				c-0.1645-0.3616-0.3907-0.6422-0.6787-0.8417c-0.2879-0.1993-0.6101-0.2991-0.9666-0.2991h-1.2752v4.7054h1.3162
				C208.9068,58.3906,209.2234,58.2911,209.506,58.0915z"/>
			<path class="st0" d="M216.0875,54.8616c0.3537,0.4937,0.5306,1.1865,0.5306,2.0789c0,0.1759-0.0029,0.3078-0.0083,0.3956h-3.2496
				c0.0712,0.3853,0.218,0.6879,0.4401,0.9076c0.2221,0.2198,0.4949,0.3296,0.8186,0.3296c0.2248,0,0.4402-0.0523,0.6458-0.1572
				c0.2057-0.1047,0.3853-0.2551,0.5388-0.4513l0.5759,0.7402c-0.2194,0.2976-0.4867,0.5274-0.802,0.6897
				c-0.3154,0.1622-0.6651,0.2433-1.0489,0.2433c-0.4498,0-0.8461-0.1148-1.1888-0.3448c-0.3429-0.2297-0.6075-0.5526-0.7939-0.9685
				c-0.1865-0.4158-0.2797-0.894-0.2797-1.435c0-0.5408,0.0945-1.0208,0.2838-1.44c0.1892-0.4191,0.4537-0.7454,0.7939-0.9786
				c0.34-0.2332,0.7266-0.3498,1.16-0.3498C215.2057,54.1213,215.7338,54.3682,216.0875,54.8616z M215.6391,56.4537
				c-0.011-0.3988-0.118-0.7165-0.3209-0.9532c-0.203-0.2365-0.4717-0.355-0.8061-0.355c-0.3127,0-0.5746,0.1167-0.7858,0.3499
				c-0.2112,0.2332-0.3414,0.5526-0.3907,0.9583H215.6391z"/>
			<path class="st0" d="M219.6291,55.2774c-0.3566,0-0.6458,0.1488-0.8679,0.4461c-0.2221,0.2976-0.3332,0.683-0.3332,1.1562
				c0,0.4867,0.1111,0.8789,0.3332,1.1763c0.2221,0.2975,0.5113,0.4461,0.8679,0.4461c0.5265,0,0.9213-0.2129,1.1846-0.6388
				l0.6665,0.6794c-0.1975,0.3516-0.4581,0.622-0.7817,0.8113c-0.3236,0.1894-0.6992,0.2839-1.127,0.2839
				c-0.4333,0-0.8186-0.1148-1.1559-0.3448c-0.3373-0.2297-0.5992-0.5526-0.7856-0.9685c-0.1865-0.4158-0.2797-0.894-0.2797-1.435
				c0-0.5476,0.0946-1.0308,0.2838-1.4502c0.1892-0.4191,0.4525-0.7436,0.7898-0.9735c0.3373-0.2297,0.7253-0.3448,1.1641-0.3448
				c0.4003,0,0.7582,0.0861,1.0736,0.2585c0.3153,0.1724,0.5718,0.4176,0.7692,0.7353l-0.6499,0.7605
				C220.4846,55.4768,220.1006,55.2774,219.6291,55.2774z"/>
			<path class="st0" d="M225.5811,54.4661c0.3482,0.2299,0.6197,0.5526,0.8144,0.9685c0.1947,0.4158,0.2921,0.8941,0.2921,1.435
				c0,0.5476-0.0974,1.0311-0.2921,1.4502c-0.1947,0.4192-0.4662,0.7438-0.8144,0.9735c-0.3483,0.23-0.75,0.3448-1.2052,0.3448
				c-0.4606,0-0.8666-0.1148-1.2176-0.3448c-0.351-0.2297-0.6239-0.5543-0.8185-0.9735c-0.1948-0.4191-0.2921-0.9026-0.2921-1.4502
				c0-0.5408,0.0973-1.0191,0.2921-1.435c0.1945-0.4158,0.4674-0.7386,0.8185-0.9685c0.351-0.2297,0.7569-0.3448,1.2176-0.3448
				C224.8311,54.1213,225.2328,54.2364,225.5811,54.4661z M223.471,55.7033c-0.2304,0.3043-0.3456,0.6998-0.3456,1.1865
				c0,0.4867,0.1152,0.8823,0.3456,1.1865c0.2303,0.3043,0.5318,0.4563,0.9049,0.4563c0.362,0,0.6582-0.152,0.8884-0.4563
				c0.2304-0.3042,0.3456-0.6998,0.3456-1.1865c0-0.4867-0.1152-0.8822-0.3456-1.1865c-0.2303-0.3042-0.5264-0.4563-0.8884-0.4563
				C224.0028,55.247,223.7013,55.3991,223.471,55.7033z"/>
			<path class="st0" d="M229.5052,54.4002c0.255-0.1858,0.5525-0.2823,0.8927-0.2891v1.2778
				c-0.4554-0.0337-0.8186,0.0963-1.09,0.3904c-0.2716,0.2941-0.4073,0.6913-0.4073,1.1915v2.6164h-1.0695v-5.4255h1.0695v1.0445
				C229.0486,54.8549,229.2502,54.5862,229.5052,54.4002z"/>
			<path class="st0" d="M233.8037,59.5873v-0.6591c-0.1537,0.2366-0.351,0.4157-0.5923,0.5374
				c-0.2414,0.1217-0.5184,0.1826-0.831,0.1826c-0.3072,0-0.5772-0.0725-0.8103-0.218c-0.2331-0.1454-0.4127-0.3464-0.5388-0.6034
				c-0.1263-0.2568-0.1892-0.5441-0.1892-0.862c0-0.507,0.1452-0.9041,0.4359-1.1915c0.2907-0.2873,0.7021-0.4343,1.234-0.4412
				h1.2834V56.19c0-0.3176-0.0851-0.5643-0.255-0.7402c-0.1701-0.1758-0.4169-0.2637-0.7404-0.2637
				c-0.4169,0-0.853,0.1691-1.3081,0.5071l-0.3866-0.9128c0.3455-0.2365,0.6594-0.4073,0.942-0.5121
				c0.2823-0.1047,0.6128-0.1572,0.9913-0.1572c0.5703,0,1.0132,0.1691,1.3286,0.5071c0.3153,0.3381,0.4757,0.8113,0.4813,1.4197
				l0.0083,3.5493H233.8037z M233.4252,58.3654c0.2194-0.179,0.3427-0.4006,0.3702-0.6643v-0.4867h-1.1106
				c-0.2853,0-0.495,0.0524-0.6294,0.1572c-0.1345,0.1049-0.2016,0.2755-0.2016,0.5121c0,0.2299,0.07,0.4124,0.2099,0.5476
				c0.1398,0.1353,0.3304,0.2028,0.5718,0.2028C232.9426,58.6341,233.2058,58.5445,233.4252,58.3654z"/>
			<path class="st0" d="M238.8466,59.2527c-0.351,0.2635-0.7185,0.3955-1.1024,0.3955c-0.3783,0-0.6883-0.1369-0.9296-0.4107
				c-0.2414-0.2739-0.3619-0.6777-0.3619-1.2119v-2.6773h-0.617l-0.0083-0.9633h0.6253v-1.4908h1.0612v1.4908h1.2586v0.9633h-1.2586
				v2.444c0,0.2502,0.0383,0.4277,0.1152,0.5324c0.0766,0.1049,0.1918,0.1572,0.3455,0.1572c0.1645,0,0.3729-0.0743,0.6253-0.2231
				L238.8466,59.2527z"/>
			<path class="st0" d="M240.8622,52.0525c0.1152,0.1489,0.1727,0.3381,0.1727,0.568c0,0.2231-0.0575,0.409-0.1727,0.5577
				c-0.1152,0.1489-0.2606,0.2232-0.4361,0.2232c-0.1755,0-0.3209-0.0743-0.4361-0.2232c-0.1151-0.1486-0.1727-0.3346-0.1727-0.5577
				c0-0.2299,0.0576-0.4191,0.1727-0.568c0.1152-0.1486,0.2606-0.2231,0.4361-0.2231
				C240.6017,51.8295,240.747,51.9039,240.8622,52.0525z M239.8996,54.1618h1.0695v5.4255h-1.0695V54.1618z"/>
			<path class="st0" d="M245.6378,54.4661c0.3482,0.2299,0.6197,0.5526,0.8144,0.9685c0.1947,0.4158,0.2921,0.8941,0.2921,1.435
				c0,0.5476-0.0974,1.0311-0.2921,1.4502c-0.1947,0.4192-0.4662,0.7438-0.8144,0.9735c-0.3483,0.23-0.75,0.3448-1.2052,0.3448
				c-0.4607,0-0.8666-0.1148-1.2176-0.3448c-0.351-0.2297-0.6239-0.5543-0.8185-0.9735c-0.1948-0.4191-0.2921-0.9026-0.2921-1.4502
				c0-0.5408,0.0973-1.0191,0.2921-1.435c0.1945-0.4158,0.4675-0.7386,0.8185-0.9685c0.351-0.2297,0.7569-0.3448,1.2176-0.3448
				C244.8878,54.1213,245.2895,54.2364,245.6378,54.4661z M243.5277,55.7033c-0.2304,0.3043-0.3456,0.6998-0.3456,1.1865
				c0,0.4867,0.1152,0.8823,0.3456,1.1865c0.2303,0.3043,0.5318,0.4563,0.9049,0.4563c0.362,0,0.6582-0.152,0.8884-0.4563
				c0.2304-0.3042,0.3456-0.6998,0.3456-1.1865c0-0.4867-0.1152-0.8822-0.3456-1.1865c-0.2303-0.3042-0.5264-0.4563-0.8884-0.4563
				C244.0595,55.247,243.7579,55.3991,243.5277,55.7033z"/>
			<path class="st0" d="M251.7296,54.674c0.2907,0.3752,0.4361,0.8841,0.4361,1.5262v3.3871h-1.0777v-3.0017
				c0-0.3786-0.0879-0.6777-0.2633-0.8975c-0.1756-0.2195-0.4142-0.3296-0.7158-0.3296c-0.3566,0.0068-0.6375,0.1557-0.8432,0.4463
				c-0.2057,0.2907-0.3085,0.6627-0.3085,1.1154v2.6671h-1.0695v-5.4255h1.0695v1.0141c0.3016-0.6962,0.8281-1.0511,1.5795-1.0648
				C251.0413,54.1112,251.4389,54.2988,251.7296,54.674z"/>
			<path class="st0" d="M259.8488,53.1275c0.3976,0.4259,0.5964,1.0277,0.5964,1.8051c0,0.8113-0.1988,1.4417-0.5964,1.8913
				c-0.3978,0.4497-0.9584,0.6743-1.6823,0.6743h-1.2588v2.0891h-1.1024v-7.0987h2.3612
				C258.8904,52.4886,259.451,52.7016,259.8488,53.1275z M259.0673,55.967c0.2221-0.2231,0.3331-0.5543,0.3331-0.9939
				c0-0.4325-0.111-0.7571-0.3331-0.9735c-0.2221-0.2163-0.5417-0.3245-0.9584-0.3245h-1.2011v2.6266h1.2011
				C258.5255,56.3017,258.8452,56.19,259.0673,55.967z"/>
			<path class="st0" d="M261.5722,52.0627h1.0695v7.5246h-1.0695V52.0627z"/>
			<path class="st0" d="M266.8291,59.5873v-0.6591c-0.1537,0.2366-0.351,0.4157-0.5923,0.5374
				c-0.2414,0.1217-0.5184,0.1826-0.831,0.1826c-0.3072,0-0.5772-0.0725-0.8103-0.218c-0.2331-0.1454-0.4127-0.3464-0.5388-0.6034
				c-0.1263-0.2568-0.1892-0.5441-0.1892-0.862c0-0.507,0.1452-0.9041,0.4359-1.1915c0.2907-0.2873,0.7021-0.4343,1.234-0.4412
				h1.2834V56.19c0-0.3176-0.085-0.5643-0.255-0.7402c-0.1701-0.1758-0.4169-0.2637-0.7404-0.2637
				c-0.4169,0-0.853,0.1691-1.3081,0.5071l-0.3866-0.9128c0.3455-0.2365,0.6594-0.4073,0.942-0.5121
				c0.2823-0.1047,0.6128-0.1572,0.9913-0.1572c0.5703,0,1.0132,0.1691,1.3286,0.5071c0.3153,0.3381,0.4757,0.8113,0.4813,1.4197
				l0.0083,3.5493H266.8291z M266.4506,58.3654c0.2194-0.179,0.3427-0.4006,0.3702-0.6643v-0.4867h-1.1105
				c-0.2853,0-0.495,0.0524-0.6294,0.1572c-0.1345,0.1049-0.2016,0.2755-0.2016,0.5121c0,0.2299,0.07,0.4124,0.2099,0.5476
				c0.1398,0.1353,0.3304,0.2028,0.5718,0.2028C265.9679,58.6341,266.2312,58.5445,266.4506,58.3654z"/>
			<path class="st0" d="M273.1389,54.674c0.2907,0.3752,0.4361,0.8841,0.4361,1.5262v3.3871h-1.0777v-3.0017
				c0-0.3786-0.0879-0.6777-0.2633-0.8975c-0.1757-0.2195-0.4142-0.3296-0.7158-0.3296c-0.3566,0.0068-0.6375,0.1557-0.8432,0.4463
				c-0.2057,0.2907-0.3085,0.6627-0.3085,1.1154v2.6671h-1.0695v-5.4255h1.0695v1.0141c0.3016-0.6962,0.8281-1.0511,1.5795-1.0648
				C272.4506,54.1112,272.8482,54.2988,273.1389,54.674z"/>
			<path class="st0" d="M277.5648,59.2527c-0.351,0.2635-0.7185,0.3955-1.1024,0.3955c-0.3783,0-0.6884-0.1369-0.9296-0.4107
				c-0.2414-0.2739-0.3619-0.6777-0.3619-1.2119v-2.6773h-0.617l-0.0083-0.9633h0.6253v-1.4908h1.0612v1.4908h1.2586v0.9633h-1.2586
				v2.444c0,0.2502,0.0383,0.4277,0.1152,0.5324c0.0766,0.1049,0.1918,0.1572,0.3455,0.1572c0.1645,0,0.3729-0.0743,0.6253-0.2231
				L277.5648,59.2527z"/>
			<path class="st0" d="M280.5635,55.2672c-0.2277-0.0878-0.4376-0.1318-0.6294-0.1318c-0.1811,0-0.3249,0.039-0.432,0.1166
				c-0.1069,0.0778-0.1604,0.1978-0.1604,0.36c0,0.1691,0.0671,0.2993,0.2016,0.3904c0.1343,0.0913,0.3468,0.1876,0.6377,0.2891
				c0.307,0.1151,0.5594,0.2281,0.7568,0.3398c0.1974,0.1115,0.3688,0.2773,0.5142,0.4968c0.1452,0.2198,0.218,0.5089,0.218,0.8671
				c0,0.5274-0.1645,0.933-0.4937,1.2169c-0.329,0.2839-0.7432,0.4259-1.2422,0.4259c-0.3401,0-0.6719-0.0659-0.9955-0.1977
				c-0.3237-0.1319-0.5979-0.3195-0.8227-0.5628l0.3702-0.9229c0.1975,0.2097,0.4332,0.3737,0.7075,0.4919
				c0.2743,0.1183,0.5348,0.1774,0.7816,0.1774c0.1974,0,0.355-0.0421,0.473-0.1267c0.1178-0.0845,0.1769-0.2112,0.1769-0.3802
				c0-0.1892-0.0687-0.3312-0.2057-0.4259c-0.1372-0.0947-0.3593-0.1994-0.6665-0.3145c-0.2962-0.108-0.5376-0.2145-0.7239-0.3194
				c-0.1865-0.1047-0.3483-0.2637-0.4854-0.4767c-0.1371-0.2129-0.2057-0.4918-0.2057-0.8366c0-0.534,0.1576-0.9414,0.473-1.2219
				c0.3155-0.2805,0.7117-0.4209,1.1888-0.4209c0.2907,0,0.5772,0.0507,0.8598,0.152c0.2824,0.1015,0.5334,0.2434,0.7527,0.426
				l-0.3866,0.9532C281.0118,55.4768,280.791,55.3553,280.5635,55.2672z"/>
		</g>
		<g>
			<path class="st0" d="M90.6406,30.3806H79.5607c-0.9414,0-1.7046,0.7632-1.7046,1.7046s0.7632,1.7046,1.7046,1.7046h9.2195
				c-0.8039,4.3585-4.632,7.6707-9.2195,7.6707c-5.1696,0-9.3753-4.2057-9.3753-9.3753s4.2057-9.3753,9.3753-9.3753
				c2.4349,0,4.7422,0.929,6.4968,2.616c0.6788,0.6525,1.7579,0.6312,2.4102-0.0474c0.6525-0.6787,0.6313-1.7577-0.0474-2.4102
				c-2.3929-2.3006-5.5394-3.5677-8.8596-3.5677c-7.0494,0-12.7845,5.7351-12.7845,12.7845s5.7351,12.7845,12.7845,12.7845
				s12.7845-5.7351,12.7845-12.7845C92.3452,31.1438,91.582,30.3806,90.6406,30.3806z"/>
			<path class="st0" d="M115.3605,28.676c-4.4646,0-8.0968,3.6323-8.0968,8.0968s3.6323,8.0968,8.0968,8.0968
				c2.1029,0,4.0956-0.8024,5.6111-2.2596c0.6787-0.6525,0.6999-1.7316,0.0474-2.4102c-0.6525-0.6788-1.7316-0.6998-2.4102-0.0474
				c-0.8773,0.8434-2.0309,1.3079-3.2483,1.3079c-2.5848,0-4.6876-2.1029-4.6876-4.6876c0-2.5848,2.1029-4.6876,4.6876-4.6876
				c1.9835,0,3.6819,1.2389,4.3654,2.983h-4.3654c-0.9414,0-1.7046,0.7632-1.7046,1.7046s0.7632,1.7046,1.7046,1.7046h6.3922
				c0.9414,0,1.7046-0.7632,1.7046-1.7046C123.4573,32.3083,119.8251,28.676,115.3605,28.676z"/>
			<path class="st0" d="M134.1127,28.676c-4.4646,0-8.0968,3.6323-8.0968,8.0968s3.6323,8.0968,8.0968,8.0968
				c2.1029,0,4.0956-0.8024,5.6111-2.2596c0.6787-0.6525,0.6999-1.7316,0.0474-2.4102c-0.6525-0.6788-1.7316-0.6998-2.4102-0.0474
				c-0.8773,0.8434-2.0309,1.3079-3.2483,1.3079c-2.5848,0-4.6876-2.1029-4.6876-4.6876c0-2.5848,2.1029-4.6876,4.6876-4.6876
				c1.9835,0,3.682,1.2389,4.3654,2.983h-4.3654c-0.9414,0-1.7046,0.7632-1.7046,1.7046s0.7632,1.7046,1.7046,1.7046h6.3922
				c0.9415,0,1.7046-0.7632,1.7046-1.7046C142.2095,32.3083,138.5773,28.676,134.1127,28.676z"/>
			<path class="st0" d="M103.0006,28.676c-1.751,0-3.3739,0.5589-4.6999,1.5074c-0.0979-0.8484-0.8177-1.5074-1.6923-1.5074
				c-0.9414,0-1.7046,0.7632-1.7046,1.7046v12.7845c0,0.9414,0.7632,1.7046,1.7046,1.7046c0.9414,0,1.7046-0.7632,1.7046-1.7046
				v-6.3922c0-2.5848,2.1029-4.6876,4.6876-4.6876c0.9414,0,1.7046-0.7632,1.7046-1.7046
				C104.7052,29.4392,103.942,28.676,103.0006,28.676z"/>
			<path class="st0" d="M152.8649,28.676c-1.751,0-3.3739,0.5589-4.6999,1.5074c-0.0979-0.8484-0.8177-1.5074-1.6923-1.5074
				c-0.9414,0-1.7046,0.7632-1.7046,1.7046v12.7845c0,0.9414,0.7632,1.7046,1.7046,1.7046s1.7046-0.7632,1.7046-1.7046v-6.3922
				c0-2.5848,2.1029-4.6876,4.6877-4.6876s4.6876,2.1029,4.6876,4.6876v6.3922c0,0.9414,0.7632,1.7046,1.7046,1.7046
				s1.7046-0.7632,1.7046-1.7046v-6.3922C160.9617,32.3083,157.3295,28.676,152.8649,28.676z"/>
			<path class="st0" d="M254.821,28.676c-4.4646,0-8.0968,3.6323-8.0968,8.0968s3.6322,8.0968,8.0968,8.0968
				c2.1029,0,4.0956-0.8024,5.6111-2.2596c0.6787-0.6525,0.6999-1.7316,0.0474-2.4102c-0.6525-0.6788-1.7316-0.6999-2.4102-0.0474
				c-0.8773,0.8434-2.0309,1.3079-3.2483,1.3079c-2.5848,0-4.6876-2.1029-4.6876-4.6876c0-2.5848,2.1029-4.6876,4.6876-4.6876
				c1.9835,0,3.6819,1.2389,4.3654,2.983h-4.3654c-0.9414,0-1.7046,0.7632-1.7046,1.7046s0.7632,1.7046,1.7046,1.7046h6.3922
				c0.9414,0,1.7046-0.7632,1.7046-1.7046C262.9178,32.3083,259.2856,28.676,254.821,28.676z"/>
			<path class="st0" d="M192.5967,30.3806h-11.0799c-0.9415,0-1.7046,0.7632-1.7046,1.7046s0.7632,1.7046,1.7046,1.7046h9.2195
				c-0.8039,4.3585-4.632,7.6707-9.2195,7.6707c-5.1696,0-9.3753-4.2057-9.3753-9.3753s4.2057-9.3753,9.3753-9.3753
				c2.4349,0,4.7422,0.929,6.4969,2.616c0.6788,0.6526,1.7579,0.6312,2.4102-0.0474c0.6525-0.6787,0.6313-1.7577-0.0473-2.4102
				c-2.3929-2.3006-5.5394-3.5677-8.8597-3.5677c-7.0494,0-12.7845,5.7351-12.7845,12.7845s5.7351,12.7845,12.7845,12.7845
				s12.7845-5.7351,12.7845-12.7845C194.3013,31.1438,193.5381,30.3806,192.5967,30.3806z"/>
			<path class="st0" d="M242.461,19.3007c-0.9415,0-1.7046,0.7632-1.7046,1.7046v9.1692c-1.3238-0.9432-2.942-1.4985-4.6876-1.4985
				c-4.4646,0-8.0968,3.6323-8.0968,8.0968s3.6323,8.0968,8.0968,8.0968c1.751,0,3.3739-0.5589,4.6999-1.5074
				c0.0979,0.8484,0.8177,1.5074,1.6923,1.5074c0.9414,0,1.7046-0.7632,1.7046-1.7046V21.0053
				C244.1656,20.0639,243.4025,19.3007,242.461,19.3007z M236.0688,41.4605c-2.5848,0-4.6877-2.1029-4.6877-4.6876
				c0-2.5848,2.1029-4.6876,4.6877-4.6876s4.6876,2.1029,4.6876,4.6876C240.7564,39.3576,238.6536,41.4605,236.0688,41.4605z"/>
			<path class="st0" d="M223.7088,28.676c-1.751,0-3.3739,0.5589-4.6999,1.5074c-0.0979-0.8484-0.8177-1.5074-1.6923-1.5074
				c-0.9414,0-1.7046,0.7632-1.7046,1.7046v12.7845c0,0.9414,0.7632,1.7046,1.7046,1.7046s1.7046-0.7632,1.7046-1.7046v-6.3922
				c0-2.5848,2.1029-4.6876,4.6876-4.6876c0.9414,0,1.7046-0.7632,1.7046-1.7046C225.4135,29.4392,224.6503,28.676,223.7088,28.676z
				"/>
			<path class="st0" d="M273.5732,28.676c-1.751,0-3.3739,0.5589-4.6999,1.5074c-0.0979-0.8484-0.8177-1.5074-1.6923-1.5074
				c-0.9414,0-1.7046,0.7632-1.7046,1.7046v12.7845c0,0.9414,0.7632,1.7046,1.7046,1.7046s1.7046-0.7632,1.7046-1.7046v-6.3922
				c0-2.5848,2.1029-4.6876,4.6877-4.6876s4.6877,2.1029,4.6877,4.6876v6.3922c0,0.9414,0.7632,1.7046,1.7046,1.7046
				s1.7046-0.7632,1.7046-1.7046v-6.3922C281.67,32.3083,278.0378,28.676,273.5732,28.676z"/>
			<path class="st0" d="M211.3489,28.676c-0.8746,0-1.5944,0.659-1.6923,1.5074c-1.326-0.9485-2.9489-1.5074-4.6999-1.5074
				c-4.4646,0-8.0968,3.6323-8.0968,8.0968s3.6323,8.0968,8.0968,8.0968c1.751,0,3.3739-0.5589,4.6999-1.5074
				c0.0979,0.8484,0.8177,1.5074,1.6923,1.5074c0.9414,0,1.7046-0.7632,1.7046-1.7046V30.3806
				C213.0535,29.4392,212.2903,28.676,211.3489,28.676z M204.9567,41.4605c-2.5848,0-4.6877-2.1029-4.6877-4.6876
				c0-2.5848,2.1029-4.6876,4.6877-4.6876s4.6876,2.1029,4.6876,4.6876C209.6443,39.3576,207.5414,41.4605,204.9567,41.4605z"/>
		</g>
	</g>
	<g>
		<path class="st0" d="M50.6942,27.0752c-0.4461,0.1012-0.934,0.1989-1.4788,0.2288c-0.121,0.0067-0.2458,0.01-0.3712,0.01
			c-0.4703,0-0.9036-0.0475-1.1886-0.083c-1.0289-0.1289-2.0112-0.3955-2.9203-0.7928c-0.8485-0.3708-1.642-0.8816-2.4974-1.6073
			l-2.6411-2.2406l-1.6248,0.1575c-0.323,0.0313-0.6122,0.048-0.884,0.051l-0.0789,0.0004c-1.2764,0-2.5619-0.3302-3.8204-0.9815
			c-0.6901-0.3573-1.2316-0.7419-1.7042-1.2107c-0.4061-0.4025-0.7883-0.8622-1.1681-1.4048
			c-1.2213-1.7454-1.8528-3.8873-1.8263-6.1947c0.0023-0.202,0.0105-0.4052,0.0221-0.6091
			c-0.1416-0.0021-0.2829-0.0054-0.425-0.0054h0C12.575,12.3931,0,24.9681,0,40.4802v0.0001
			c0,15.512,12.575,28.0871,28.0871,28.0871h0c15.5121,0,28.0871-12.575,28.0871-28.0871v-0.0001
			c0-5.0758-1.3468-9.8368-3.7019-13.946C51.9021,26.7543,51.3074,26.9361,50.6942,27.0752z M44.9376,40.5128
			c0,0.0043-0.0006,0.0085-0.0007,0.0128c-0.0037,1.3382-0.1678,2.6729-0.4849,3.9729c-0.6583,2.6984-2.0083,5.2231-3.8749,7.2787
			c-1.8839,2.0746-4.2796,3.6935-6.9318,4.6113c-2.6186,0.9063-5.4347,1.1687-8.1745,0.7397
			c-2.6869-0.4207-5.2538-1.5044-7.434-3.1291c-2.1008-1.5655-3.8721-3.6391-5.0289-5.9954
			c-1.2334-2.5124-1.842-5.2545-1.7649-8.054c0.066-2.3974,0.6696-4.7814,1.7339-6.9295c0.959-1.9357,2.2929-3.6812,3.9052-5.1187
			c1.6094-1.435,3.4923-2.5587,5.5222-3.2869c2.4177-0.8674,5.0119-1.1577,7.5635-0.8841c1.404,0.1506,2.7894,0.4918,4.1095,0.9913
			c0.6707,0.2538,1.3231,0.5543,1.9554,0.8923c0.6203,0.3316,1.2676,0.6896,1.8147,1.1349
			c0.9112,0.7418,1.2648,2.0147,0.8705,3.1214c-0.4178,1.1727-1.5971,1.9417-2.8374,1.8585
			c-0.3125-0.021-0.6212-0.0949-0.9092-0.2179c-0.3252-0.1389-0.6029-0.3543-0.9005-0.5413
			c-0.595-0.3738-1.221-0.6932-1.8748-0.9509c-1.2585-0.496-2.6067-0.755-3.9588-0.7733c-2.2775-0.0308-4.5311,0.6454-6.416,1.9234
			c-1.7278,1.1716-3.1195,2.8211-3.9797,4.7234c-0.9817,2.171-1.2486,4.6475-0.7351,6.9763
			c0.5993,2.718,2.2093,5.1566,4.4798,6.7696c2.1914,1.5569,4.8887,2.2699,7.5639,2.0256c2.7306-0.2494,5.3136-1.5489,7.1748-3.5558
			c1.2667-1.3659,2.166-3.0333,2.6312-4.8203h-8.0619c-1.5512,0-2.8087-1.2575-2.8087-2.8087v0
			c0-1.5512,1.2575-2.8087,2.8087-2.8087H42.129c1.5512,0,2.8087,1.2575,2.8087,2.8087
			C44.9377,40.4904,44.9377,40.5016,44.9376,40.5128z"/>
		<g>
			<path class="st0" d="M40.3289,19.028c-0.217-0.8948-0.2932-1.8174-0.2266-2.7423c0.1295-1.8014,0.8254-3.5524,1.9593-4.93
				c0.0893-0.1084,0.182-0.2137,0.2763-0.3175c-0.0214-0.0399-0.0425-0.0799-0.0643-0.1197
				c-0.0863-0.1579-0.1753-0.3144-0.2664-0.4696c-0.1734-0.2953-0.3546-0.5859-0.5402-0.8737
				c-0.3621-0.5616-0.7408-1.1122-1.112-1.6677c-0.7783-1.1645-1.5136-2.3626-2.1427-3.615
				c-0.3394-0.6758-0.6544-1.368-0.8957-2.0855c-0.1178-0.3502-0.2198-0.7079-0.289-1.071C36.9616,0.79,36.8807,0.3401,37.0072,0
				c-0.0924,0.0738-0.1661,0.2049-0.2387,0.2965c-0.177,0.2232-0.3525,0.4476-0.5268,0.6728
				c-0.4291,0.5545-0.8444,1.1169-1.2372,1.6979c-1.0762,1.5915-2.0316,3.2765-2.7663,5.0537
				c-0.6953,1.6816-1.1994,3.4853-1.2204,5.3155c-0.0192,1.6757,0.4022,3.3338,1.3697,4.7163
				c0.2622,0.3747,0.5521,0.7372,0.8771,1.0594c0.3209,0.3181,0.6862,0.5535,1.086,0.7604
				c0.8376,0.4335,1.7607,0.7086,2.7094,0.6985c0.2231-0.0024,0.446-0.0178,0.6681-0.0393c-0.4883-0.9788-0.8685-2.03-1.1965-3.072
				c-0.3311-1.0518-0.5949-2.1272-0.7752-3.2153c-0.362-2.1845-0.4366-4.4652-0.1719-6.6648
				c0.0765-0.6357,0.1818-1.2678,0.3114-1.8947c0.1315-0.6358,0.3095-1.2607,0.4384-1.8968
				c-0.0136,0.0796-0.0262,0.1595-0.0408,0.2389c0.0091-0.0354,0.0184-0.0707,0.0276-0.106
				c-0.1707,1.2786-0.2992,2.5547-0.2783,3.8463c0.0196,1.2078,0.124,2.4133,0.3278,3.6042
				c0.4051,2.3675,1.1855,4.6407,2.307,6.7637c0.1534,0.2903,0.3121,0.5778,0.4757,0.8625c0.1692,0.2946,0.3635,0.5735,0.534,0.8666
				c0.0242,0.0417,0.0407,0.1038,0.0963,0.1073c0.0522,0.0033,0.1399-0.0643,0.1855-0.0879
				c0.148-0.0765,0.2917-0.1601,0.4332-0.2479c0.0021-0.0013,0.0045-0.0025,0.0067-0.0037
				C40.3806,19.231,40.3536,19.1297,40.3289,19.028z"/>
			<path class="st0" d="M59.2299,12.487c0.4909-2.7206,0.6463-5.5053,0.5668-8.2663c-0.0208-0.7217-0.067-1.4402-0.1232-2.1598
				c-0.0987,0.3834-0.4071,0.7021-0.6695,0.984c-0.269,0.289-0.5623,0.5546-0.8699,0.8018
				c-0.6303,0.5068-1.3185,0.9369-2.0154,1.345c-1.4454,0.8465-2.9647,1.56-4.5111,2.2008c-1.5815,0.6553-3.2161,1.183-4.776,1.8891
				c-0.7738,0.3503-1.55,0.7216-2.2616,1.1878c-0.6457,0.423-1.226,0.9419-1.7167,1.5379c-1.0129,1.2306-1.614,2.7635-1.7283,4.3519
				c-0.0585,0.813,0.0083,1.6348,0.2005,2.427c0.0957,0.3946,0.2219,0.7819,0.377,1.1572c0.0775,0.1875,0.168,0.3676,0.2537,0.5512
				c0.0395,0.0845,0.0663,0.2161,0.1345,0.2807c0.0781,0.074,0.1817-0.0204,0.2658-0.0589
				c0.1894-0.0869,0.3876-0.1563,0.5796-0.2375c0.3857-0.163,0.7683-0.3376,1.1464-0.5174c0.786-0.3737,1.5469-0.7955,2.2948-1.2396
				c1.4806-0.8789,2.887-1.8963,4.183-3.0297c2.6321-2.3017,4.8669-5.0611,6.5349-8.1372c0.2082-0.3839,0.4101-0.7711,0.6117-1.1585
				c-0.2883,0.7581-0.5994,1.5092-0.9172,2.2553c-0.5639,1.3239-1.2505,2.587-2.0036,3.8126
				c-1.7164,2.7933-3.9289,5.281-6.4589,7.3631c-1.3891,1.1432-2.8817,2.1986-4.4542,3.0756
				c0.5743,0.4874,1.1815,0.9158,1.8743,1.2186c0.7045,0.3079,1.4593,0.5054,2.2217,0.6008
				c0.3652,0.0457,0.7396,0.0776,1.1078,0.0574c0.3574-0.0196,0.7097-0.091,1.0581-0.17c0.7084-0.1607,1.4007-0.3926,2.0579-0.703
				c2.6578-1.2552,4.4644-3.6787,5.5824-6.3348C58.4608,15.9436,58.9166,14.2235,59.2299,12.487z"/>
		</g>
	</g>
</g>
</svg>
