<?xml version="1.0" encoding="utf-8"?>
<!-- Generator: Adobe Illustrator 24.1.1, SVG Export Plug-In . SVG Version: 6.00 Build 0)  -->
<svg version="1.1" id="Layer_1" xmlns="http://www.w3.org/2000/svg" xmlns:xlink="http://www.w3.org/1999/xlink" x="0px" y="0px"
	 viewBox="0 0 201.6261 151.6821" style="enable-background:new 0 0 201.6261 151.6821;" xml:space="preserve">
<style type="text/css">
	.st0{fill:#00A05D;}
	.st1{fill:#404041;}
	.st2{fill:#6D6E70;}
</style>
<g>
	<g>
		<path class="st0" d="M147.3319,56.684c-0.6985,0.4846-1.3669,1.3537-1.9007,2.1841c0.4968-1.7836,0.8606-3.5796,1.1034-5.3751
			c0.8993-0.1166,2.7795-0.5163,4.7006-1.8844c2.1341-1.5189,2.4734-4.7068,2.4734-4.7068s-3.5681,0.0652-5.493,1.9699
			c-0.58,0.5749-1.0689,1.5012-1.4397,2.3778c0.1512-1.8858,0.1735-3.765,0.0798-5.6225c0.8204-0.2488,2.6176-0.9475,4.2837-2.6396
			c1.7994-1.8288,1.5839-4.9633,1.5839-4.9633s-3.4323,0.6702-4.9638,2.8356c-0.5085,0.7191-0.8382,1.8297-1.0454,2.8106
			c-0.189-2.0019-0.5096-3.9716-0.9446-5.8898c0.7073-0.3471,2.395-1.3275,3.7646-3.3171c1.4272-2.0706,0.6885-5.0592,0.6885-5.0592
			s-3.201,1.2304-4.3125,3.5816c-0.4049,0.8592-0.5202,2.1383-0.5365,3.1806c-0.5419-2.052-1.2136-4.0366-1.9932-5.9287
			c0.6262-0.4574,2.0862-1.69,3.0678-3.8398c1.0231-2.2412-0.1991-5.0002-0.1991-5.0002s-2.8781,1.7324-3.55,4.1908
			c-0.2413,0.8818-0.1437,2.1073,0.0126,3.1066c-0.8873-1.9488-1.8889-3.786-2.979-5.4819c0.5488-0.5842,1.692-2.0022,2.2566-4.1746
			c0.6064-2.338-1.0418-4.7924-1.0418-4.7924s-2.4854,2.1626-2.7146,4.6494c-0.0769,0.8321,0.1819,1.9031,0.4778,2.8045
			c-1.2056-1.6969-2.501-3.2261-3.8556-4.5526c0.407-0.6013,1.3407-2.2058,1.5225-4.4965c0.1887-2.3599-1.8233-4.4485-1.8233-4.4485
			s-2.0284,2.5099-1.8262,4.9493c0.0798,0.9686,0.673,2.1811,1.1821,3.0644c-1.6529-1.6066-3.2912-2.9738-4.8617-4.1355
			c0.2663-0.5692,0.9703-2.3344,0.7457-4.6886c-0.2207-2.3084-2.5151-3.9823-2.5151-3.9823s-1.5315,2.7675-0.9218,5.0872
			c0.2654,1.0128,1.1809,2.2049,1.8492,2.9756c-2.0502-1.4455-3.9636-2.5406-5.6137-3.3631
			c0.1514-0.5445,0.5649-2.4029-0.0689-4.6934C121.9198,1.224,119.4185,0,119.4185,0s-1.0053,2.9312-0.0225,5.0666
			c0.4566,0.9938,1.6615,2.0583,2.4411,2.6763c-1.1774-0.5563-2.1954-0.9666-2.999-1.2634
			c-0.3463-0.4731-1.5436-1.9693-3.0642-2.3174c-1.2926-0.2931-3.5308,0.4249-3.5308,0.4249s0.9709,1.4899,3.0544,2.3357
			c1.498,0.6091,3.2444-0.1175,3.5832-0.2711c1.0461,0.4328,2.4442,1.0574,4.076,1.9448c-0.7825-0.191-2.8734-0.6353-4.1695-0.2891
			c-2.267,0.6082-3.8809,3.2543-3.8809,3.2543s2.5405,1.14,4.6118,0.2045c2.3082-1.0394,3.477-2.6779,3.7049-3.0237
			c1.7186,0.9502,3.6808,2.187,5.7551,3.7911c-0.9093-0.3762-2.6112-0.9911-3.8047-0.8867
			c-2.3889,0.2077-4.4782,2.5818-4.4782,2.5818s2.3507,1.5956,4.5977,1.0225c2.3549-0.598,3.7923-1.9069,4.1967-2.3158
			c1.5513,1.2346,3.1578,2.6735,4.7658,4.3513c0.1247,0.1231,0.2488,0.2482,0.3724,0.3747
			c-0.8512-0.5406-2.4382-1.4482-3.6484-1.5541c-2.4378-0.2155-4.9588,1.802-4.9588,1.802s2.0804,2.0192,4.442,1.8418
			c2.4929-0.1854,4.1779-1.2643,4.639-1.5933c1.5132,1.6224,2.9358,3.5036,4.222,5.5886c-0.7643-0.6965-2.1844-1.8729-3.3706-2.1912
			c-2.4127-0.6474-5.3005,0.9329-5.3005,0.9329s1.7296,2.3973,4.134,2.6379c2.4867,0.2502,4.3447-0.4988,4.9096-0.7634
			c1.0794,1.8209,2.0552,3.7876,2.8986,5.8656c-0.681-0.8317-1.6982-1.9231-2.6578-2.3706
			c-2.3082-1.0783-5.4908-0.0015-5.4908-0.0015s1.3126,2.7157,3.6852,3.3827c2.2775,0.6426,4.162,0.3243,4.9134,0.1424
			c0.7217,1.9248,1.3297,3.9363,1.8022,6.0086c-0.536-0.9207-1.302-2.0444-2.1157-2.6137
			c-2.1272-1.4919-5.5166-0.9744-5.5166-0.9744s0.8381,2.9615,3.1049,4.0525c2.1103,1.018,4.0093,1.0619,4.8399,1.0182
			c0.3973,2.0494,0.6608,4.1509,0.7701,6.2802c-0.3747-1.0293-0.9528-2.3272-1.6829-3.0566
			c-1.8729-1.877-5.3716-1.9572-5.3716-1.9572s0.3177,3.125,2.403,4.6228c1.9541,1.4076,3.8703,1.7836,4.7025,1.8836
			c0.0352,2.0691-0.0779,4.159-0.3576,6.2479c-0.1934-1.1053-0.5453-2.5309-1.1543-3.4013
			c-1.5525-2.2192-5.0519-2.9189-5.0519-2.9189s-0.2335,3.197,1.595,5.0717c1.7099,1.755,3.5633,2.4736,4.3858,2.7238
			c-0.3209,1.8649-0.7785,3.7248-1.3851,5.5643c-0.0179-1.0901-0.1398-2.4006-0.5554-3.2903
			c-1.1652-2.504-4.5588-3.828-4.5588-3.828s-0.8009,3.1712,0.7019,5.3776c1.3672,2.0074,3.0419,3.0557,3.8543,3.4787
			c-0.6314,1.8383-1.3957,3.6018-2.2717,5.2861c0.1814-1.1099,0.3011-2.481,0.0374-3.4672
			c-0.7299-2.7227-3.9056-4.6548-3.9056-4.6548s-1.3663,3.0447-0.245,5.5292c1.0134,2.2506,2.5027,3.599,3.2466,4.1714
			c-0.9182,1.5872-1.9358,3.0981-3.0341,4.5281c0.3381-1.0254,0.6301-2.2321,0.5473-3.1758
			c-0.2484-2.8647-3.0979-5.3685-3.0979-5.3685s-1.9142,2.8169-1.2274,5.5124c0.5961,2.3462,1.7818,3.9327,2.447,4.6803
			c-1.1491,1.3545-2.3701,2.6277-3.6445,3.8155c0.4842-0.9287,0.9327-2.0011,1.0118-2.9002
			c0.2545-2.9229-2.1642-5.9434-2.1642-5.9434s-2.4212,2.4918-2.2099,5.3218c0.1795,2.4147,1.0577,4.1966,1.5971,5.0848
			c-1.3389,1.126-2.7241,2.1619-4.1364,3.1031c0.6324-0.8325,1.2449-1.8014,1.4764-2.6675
			c0.7768-2.8918-1.1215-6.3563-1.1215-6.3563s-2.8732,2.0756-3.1635,4.9564c-0.2459,2.4547,0.3194,4.3988,0.7044,5.3885
			c-1.571,0.9275-3.1629,1.7389-4.7505,2.4281c0.8358-0.7533,1.709-1.682,2.1224-2.5694c1.2912-2.7701,0.0002-6.5872,0.0002-6.5872
			s-3.2576,1.5759-4.0583,4.4208c-0.6959,2.4721-0.4492,4.5602-0.2344,5.603c-1.6586,0.6056-3.2994,1.0731-4.8932,1.396
			c0.9258-0.593,1.8869-1.3311,2.4285-2.1048c1.7877-2.5539,1.1668-6.6188,1.1668-6.6188s-3.5516,1.006-4.8608,3.7231
			c-1.0616,2.2035-1.2389,4.2164-1.2326,5.358c-2.3059,0.3078-4.4081,0.778-6.298,1.3372
			c-0.8428,0.2475-2.0311,0.6643-2.8775,0.9695c-0.8464-0.3052-2.0348-0.7219-2.8775-0.9695
			c-1.8899-0.5592-3.9921-1.0294-6.298-1.3372c0.0063-1.1416-0.171-3.1544-1.2326-5.358c-1.3092-2.7171-4.8608-3.7231-4.8608-3.7231
			s-0.6209,4.0649,1.1668,6.6188c0.5416,0.7737,1.5027,1.5118,2.4285,2.1048c-1.5938-0.3229-3.2346-0.7904-4.8932-1.396
			c0.2148-1.0428,0.4615-3.1309-0.2344-5.603c-0.8007-2.8449-4.0583-4.4208-4.0583-4.4208s-1.291,3.8171,0.0002,6.5872
			c0.4133,0.8874,1.2866,1.8161,2.1224,2.5694c-1.5876-0.6892-3.1796-1.5005-4.7505-2.4281
			c0.385-0.9897,0.9503-2.9338,0.7044-5.3885c-0.2903-2.8808-3.1635-4.9564-3.1635-4.9564s-1.8983,3.4645-1.1215,6.3563
			c0.2316,0.866,0.844,1.8349,1.4764,2.6675c-1.4123-0.9412-2.7975-1.9771-4.1364-3.1031c0.5394-0.8882,1.4175-2.6701,1.5971-5.0848
			c0.2113-2.83-2.2099-5.3218-2.2099-5.3218s-2.4187,3.0206-2.1641,5.9434c0.0791,0.8991,0.5276,1.9715,1.0118,2.9002
			c-1.2744-1.1878-2.4954-2.461-3.6445-3.8155c0.6652-0.7476,1.8508-2.3341,2.447-4.6803c0.6868-2.6955-1.2274-5.5124-1.2274-5.5124
			s-2.8494,2.5038-3.0979,5.3685c-0.0828,0.9436,0.2092,2.1504,0.5473,3.1758c-1.0983-1.43-2.116-2.9409-3.0342-4.5281
			c0.7438-0.5724,2.2331-1.9208,3.2466-4.1714c1.1214-2.4844-0.245-5.5292-0.245-5.5292s-3.1758,1.9321-3.9056,4.6548
			c-0.2637,0.9862-0.144,2.3573,0.0373,3.4672c-0.876-1.6843-1.6403-3.4479-2.2717-5.2861
			c0.8124-0.4229,2.4871-1.4713,3.8543-3.4787c1.5028-2.2064,0.7019-5.3776,0.7019-5.3776s-3.3936,1.324-4.5588,3.828
			c-0.4155,0.8897-0.5375,2.2002-0.5554,3.2903c-0.6066-1.8395-1.0643-3.6994-1.3851-5.5643
			c0.8225-0.2502,2.6758-0.9688,4.3858-2.7238c1.8284-1.8747,1.595-5.0717,1.595-5.0717s-3.4994,0.6997-5.0519,2.9189
			c-0.6089,0.8704-0.9609,2.2959-1.1543,3.4013c-0.2797-2.0889-0.3928-4.1787-0.3576-6.2479c0.8322-0.1,2.7484-0.476,4.7024-1.8836
			c2.0853-1.4978,2.403-4.6228,2.403-4.6228s-3.4987,0.0802-5.3716,1.9572c-0.7301,0.7294-1.3082,2.0274-1.6829,3.0566
			c0.1093-2.1293,0.3727-4.2308,0.7701-6.2802c0.8306,0.0436,2.7295-0.0002,4.8399-1.0182c2.2669-1.091,3.105-4.0525,3.105-4.0525
			s-3.3894-0.5175-5.5166,0.9744c-0.8137,0.5693-1.5797,1.693-2.1157,2.6137c0.4725-2.0723,1.0806-4.0837,1.8022-6.0086
			c0.7514,0.182,2.6359,0.5002,4.9134-0.1424c2.3726-0.667,3.6852-3.3827,3.6852-3.3827s-3.1825-1.0767-5.4908,0.0015
			c-0.9597,0.4475-1.9768,1.5389-2.6579,2.3706c0.8434-2.078,1.8193-4.0447,2.8986-5.8656
			c0.5649,0.2646,2.4229,1.0136,4.9096,0.7634c2.4045-0.2406,4.1341-2.6379,4.1341-2.6379s-2.8878-1.5803-5.3005-0.9329
			c-1.1862,0.3184-2.6063,1.4948-3.3706,2.1912c1.2862-2.085,2.7088-3.9662,4.222-5.5886c0.4612,0.329,2.1461,1.4079,4.639,1.5933
			c2.3617,0.1774,4.442-1.8418,4.442-1.8418s-2.521-2.0175-4.9588-1.802c-1.2101,0.1059-2.7971,1.0135-3.6484,1.5541
			c0.1236-0.1265,0.2477-0.2517,0.3723-0.3747c1.608-1.6778,3.2144-3.1167,4.7658-4.3513c0.4044,0.4089,1.8417,1.7178,4.1967,2.3158
			c2.2469,0.5731,4.5976-1.0225,4.5976-1.0225s-2.0893-2.3741-4.4782-2.5818c-1.1935-0.1044-2.8955,0.5105-3.8047,0.8867
			c2.0744-1.6041,4.0366-2.8409,5.7551-3.7911c0.228,0.3458,1.3967,1.9844,3.7049,3.0237c2.0713,0.9354,4.6118-0.2045,4.6118-0.2045
			s-1.6139-2.6461-3.8809-3.2543c-1.2961-0.3462-3.387,0.0981-4.1695,0.2891c1.6319-0.8874,3.0299-1.512,4.076-1.9448
			c0.3388,0.1536,2.0853,0.8801,3.5832,0.2711c2.0834-0.8458,3.0544-2.3357,3.0544-2.3357s-2.2382-0.718-3.5308-0.4249
			c-1.5206,0.3481-2.7179,1.8444-3.0642,2.3174c-0.8036,0.2968-1.8216,0.707-2.999,1.2634
			c0.7796-0.6181,1.9845-1.6826,2.4411-2.6764C83.2129,2.9312,82.2076,0,82.2076,0s-2.5013,1.224-3.1052,3.416
			c-0.6337,2.2905-0.2203,4.1489-0.0689,4.6934c-1.6501,0.8225-3.5635,1.9176-5.6137,3.3631
			c0.6683-0.7707,1.5838-1.9628,1.8492-2.9756c0.6097-2.3197-0.9218-5.0872-0.9218-5.0872s-2.2944,1.674-2.5151,3.9823
			c-0.2246,2.3542,0.4794,4.1194,0.7456,4.6886c-1.5705,1.1617-3.2088,2.5289-4.8617,4.1355
			c0.5092-0.8833,1.1023-2.0957,1.1821-3.0644c0.2022-2.4394-1.8262-4.9493-1.8262-4.9493s-2.012,2.0886-1.8233,4.4485
			c0.1818,2.2907,1.1155,3.8952,1.5225,4.4965c-1.3547,1.3265-2.6501,2.8557-3.8556,4.5526
			c0.2959-0.9015,0.5547-1.9725,0.4778-2.8045c-0.2292-2.4868-2.7146-4.6494-2.7146-4.6494s-1.6483,2.4545-1.0418,4.7924
			c0.5646,2.1724,1.7078,3.5904,2.2566,4.1746c-1.0901,1.696-2.0917,3.5332-2.979,5.4819c0.1563-0.9993,0.2539-2.2249,0.0126-3.1066
			c-0.6719-2.4584-3.55-4.1908-3.55-4.1908s-1.2221,2.7589-0.1991,5.0002c0.9816,2.1498,2.4416,3.3824,3.0678,3.8398
			c-0.7796,1.8922-1.4512,3.8767-1.9932,5.9287c-0.0163-1.0424-0.1316-2.3215-0.5365-3.1806
			c-1.1115-2.3513-4.3125-3.5816-4.3125-3.5816s-0.7388,2.9886,0.6885,5.0592c1.3696,1.9896,3.0573,2.97,3.7646,3.3171
			c-0.4351,1.9183-0.7557,3.888-0.9446,5.8898c-0.2072-0.9809-0.5369-2.0915-1.0454-2.8106
			c-1.5315-2.1654-4.9638-2.8356-4.9638-2.8356s-0.2155,3.1346,1.5839,4.9633c1.666,1.6921,3.4633,2.3908,4.2837,2.6396
			c-0.0937,1.8575-0.0714,3.7366,0.0798,5.6225c-0.3708-0.8766-0.8597-1.8029-1.4397-2.3778
			c-1.9249-1.9048-5.493-1.9699-5.493-1.9699s0.3392,3.1879,2.4734,4.7068c1.921,1.3682,3.8013,1.7679,4.7006,1.8844
			c0.2429,1.7955,0.6067,3.5915,1.1035,5.3751c-0.5338-0.8304-1.2022-1.6995-1.9007-2.1841
			c-2.2728-1.5739-5.8689-1.0064-5.8689-1.0064s0.9069,3.1429,3.3183,4.2915c2.2041,1.0494,4.1905,1.1043,5.0983,1.0584
			c0.5135,1.6993,1.1381,3.3412,1.8593,4.9218c-0.6592-0.6984-1.436-1.3898-2.1796-1.7326
			c-2.5625-1.1778-6.0758,0.0298-6.0758,0.0298s1.4671,2.9981,4.0941,3.7244c2.3455,0.6483,4.3126,0.3811,5.2456,0.1755
			c0.8525,1.6039,1.8044,3.1377,2.8384,4.5972c-0.8108-0.6137-1.7597-1.2127-2.6047-1.4346
			c-2.7822-0.7311-6.1001,1.1059-6.1001,1.1059s2.0065,2.7516,4.7756,3.016c2.5281,0.2413,4.4881-0.4099,5.361-0.7784
			c1.1509,1.4514,2.3825,2.8197,3.6756,4.1001c-0.9448-0.4915-2.0468-0.9525-2.9656-1.0281
			c-2.9253-0.2415-5.9339,2.1924-5.9339,2.1924s2.5033,2.4101,5.3347,2.1848c2.6038-0.2071,4.4658-1.2235,5.2669-1.7449
			c1.3739,1.2321,2.8032,2.3695,4.267,3.4074c-1.0326-0.324-2.2139-0.5885-3.1455-0.5024
			c-2.9808,0.2758-5.5739,3.2538-5.5739,3.2538s2.9421,1.9788,5.7472,1.2513c2.552-0.6631,4.2359-1.9926,4.9622-2.6654
			c1.4648,0.931,2.9539,1.763,4.4471,2.4916c-1.0028-0.1097-2.0795-0.1317-2.905,0.0937c-2.9473,0.8054-5.0252,4.2575-5.0252,4.2575
			s3.3087,1.4672,5.9983,0.2383c2.3556-1.0762,3.793-2.6312,4.4416-3.4638c1.5993,0.6548,3.1908,1.1873,4.7497,1.5907
			c-1.0063,0.0705-2.061,0.2397-2.8322,0.6042c-2.8192,1.332-4.2946,5.1693-4.2946,5.1693s3.5828,0.8874,6.0682-0.8229
			c2.2573-1.5545,3.4309-3.4519,3.9032-4.3709c4.4789,0.6003,10.5614,2.7926,10.5714,2.7962l0.0001,0.0001l0.0001,0l0.0001,0
			l0.0001-0.0001c0.01-0.0036,6.0925-2.1958,10.5714-2.7962c0.4722,0.919,1.6459,2.8164,3.9031,4.3709
			c2.4855,1.7103,6.0683,0.8229,6.0683,0.8229s-1.4755-3.8373-4.2947-5.1693c-0.7713-0.3644-1.8259-0.5337-2.8322-0.6042
			c1.559-0.4035,3.1504-0.936,4.7497-1.5907c0.6486,0.8326,2.086,2.3876,4.4416,3.4638c2.6896,1.229,5.9983-0.2383,5.9983-0.2383
			s-2.0779-3.4522-5.0252-4.2575c-0.8255-0.2254-1.9022-0.2034-2.905-0.0937c1.4933-0.7286,2.9823-1.5606,4.4471-2.4916
			c0.7263,0.6728,2.4103,2.0024,4.9622,2.6654c2.805,0.7275,5.7472-1.2513,5.7472-1.2513s-2.5931-2.9779-5.5739-3.2538
			c-0.9316-0.0861-2.1129,0.1784-3.1455,0.5024c1.4638-1.0379,2.8931-2.1754,4.267-3.4074
			c0.8011,0.5214,2.6631,1.5378,5.2669,1.7449c2.8315,0.2253,5.3347-2.1848,5.3347-2.1848s-3.0086-2.434-5.9339-2.1924
			c-0.9188,0.0757-2.0208,0.5366-2.9656,1.0281c1.2931-1.2804,2.5247-2.6488,3.6756-4.1001c0.873,0.3684,2.8329,1.0197,5.361,0.7784
			c2.7691-0.2643,4.7756-3.016,4.7756-3.016s-3.3179-1.837-6.1001-1.1059c-0.8449,0.2219-1.7938,0.8208-2.6046,1.4346
			c1.0341-1.4594,1.9859-2.9933,2.8384-4.5972c0.933,0.2056,2.9001,0.4729,5.2456-0.1755c2.627-0.7263,4.0941-3.7244,4.0941-3.7244
			s-3.5134-1.2076-6.0759-0.0298c-0.7436,0.3429-1.5204,1.0342-2.1796,1.7326c0.7212-1.5806,1.3458-3.2224,1.8593-4.9218
			c0.9079,0.046,2.8942-0.0089,5.0983-1.0584c2.4114-1.1487,3.3183-4.2915,3.3183-4.2915S149.6047,55.1101,147.3319,56.684z"/>
		<g>
			<path class="st0" d="M97.1805,46.5028H86.4322c-0.9133,0-1.6536,0.7403-1.6536,1.6536c0,0.9133,0.7403,1.6536,1.6536,1.6536
				h8.9436c-0.7798,4.2281-4.4934,7.4412-8.9436,7.4412c-5.0149,0-9.0947-4.0799-9.0947-9.0947s4.0799-9.0948,9.0947-9.0948
				c2.362,0,4.6003,0.9012,6.3024,2.5377c0.6584,0.633,1.7053,0.6123,2.338-0.0459c0.633-0.6584,0.6124-1.7051-0.0459-2.338
				c-2.3213-2.2318-5.3736-3.4609-8.5945-3.4609c-6.8384,0-12.4019,5.5635-12.4019,12.4019s5.5635,12.4019,12.4019,12.4019
				c6.8384,0,12.4019-5.5635,12.4019-12.4019C98.8341,47.2431,98.0938,46.5028,97.1805,46.5028z"/>
			<path class="st0" d="M125.9422,46.5028h-10.7483c-0.9133,0-1.6536,0.7403-1.6536,1.6536c0,0.9133,0.7403,1.6536,1.6536,1.6536
				h8.9436c-0.7798,4.2281-4.4934,7.4412-8.9436,7.4412c-5.0149,0-9.0947-4.0799-9.0947-9.0947s4.0799-9.0948,9.0947-9.0948
				c2.362,0,4.6003,0.9012,6.3024,2.5377c0.6584,0.633,1.7053,0.6123,2.338-0.0459c0.633-0.6584,0.6124-1.7051-0.0459-2.338
				c-2.3213-2.2318-5.3736-3.4609-8.5945-3.4609c-6.8384,0-12.4019,5.5635-12.4019,12.4019s5.5635,12.4019,12.4019,12.4019
				s12.4019-5.5635,12.4019-12.4019C127.5958,47.2431,126.8555,46.5028,125.9422,46.5028z"/>
			<circle class="st0" cx="100.813" cy="58.5278" r="1.9789"/>
		</g>
	</g>
	<g>
		<g>
			<path class="st0" d="M22.3925,116.7085H11.9968c-0.8833,0-1.5993,0.716-1.5993,1.5993c0,0.8833,0.716,1.5993,1.5993,1.5993
				h8.6502c-0.7543,4.0894-4.3459,7.197-8.6502,7.197c-4.8503,0-8.7964-3.946-8.7964-8.7964c0-4.8503,3.946-8.7964,8.7964-8.7964
				c2.2845,0,4.4493,0.8717,6.0956,2.4545c0.6368,0.6122,1.6493,0.5923,2.2613-0.0444c0.6122-0.6368,0.5923-1.6492-0.0444-2.2613
				c-2.2452-2.1586-5.1973-3.3474-8.3125-3.3474c-6.6141,0-11.9951,5.381-11.9951,11.9951c0,6.6141,5.381,11.9951,11.9951,11.9951
				s11.9951-5.381,11.9951-11.9951C23.9919,117.4245,23.2759,116.7085,22.3925,116.7085z"/>
			<path class="st1" d="M45.586,115.1091c-4.1889,0-7.5969,3.408-7.5969,7.5969c0,4.1889,3.408,7.5969,7.5969,7.5969
				c1.973,0,3.8427-0.7529,5.2646-2.1201c0.6368-0.6122,0.6567-1.6246,0.0444-2.2613c-0.6122-0.6368-1.6246-0.6566-2.2613-0.0444
				c-0.8231,0.7913-1.9055,1.2271-3.0477,1.2271c-2.4252,0-4.3982-1.973-4.3982-4.3982s1.973-4.3982,4.3982-4.3982
				c1.861,0,3.4546,1.1624,4.0959,2.7988H45.586c-0.8833,0-1.5993,0.716-1.5993,1.5993s0.716,1.5993,1.5993,1.5993h5.9975
				c0.8833,0,1.5993-0.716,1.5993-1.5993C53.1829,118.5171,49.7749,115.1091,45.586,115.1091z"/>
			<path class="st1" d="M63.1803,115.1091c-4.1889,0-7.5969,3.408-7.5969,7.5969c0,4.1889,3.408,7.5969,7.5969,7.5969
				c1.973,0,3.8427-0.7529,5.2646-2.1201c0.6368-0.6122,0.6567-1.6246,0.0444-2.2613c-0.6122-0.6368-1.6246-0.6566-2.2613-0.0444
				c-0.8231,0.7913-1.9055,1.2271-3.0477,1.2271c-2.4252,0-4.3982-1.973-4.3982-4.3982s1.973-4.3982,4.3982-4.3982
				c1.861,0,3.4546,1.1624,4.0959,2.7988h-4.0959c-0.8833,0-1.5993,0.716-1.5993,1.5993s0.716,1.5993,1.5993,1.5993h5.9975
				c0.8833,0,1.5993-0.716,1.5993-1.5993C70.7771,118.5171,67.3692,115.1091,63.1803,115.1091z"/>
			<path class="st1" d="M33.9893,115.1091c-1.6429,0-3.1656,0.5244-4.4097,1.4143c-0.0918-0.796-0.7672-1.4143-1.5878-1.4143
				c-0.8833,0-1.5993,0.716-1.5993,1.5993v11.995c0,0.8833,0.716,1.5993,1.5993,1.5993c0.8833,0,1.5993-0.716,1.5993-1.5993v-5.9975
				c0-2.4252,1.973-4.3982,4.3982-4.3982c0.8833,0,1.5993-0.716,1.5993-1.5993S34.8726,115.1091,33.9893,115.1091z"/>
			<path class="st1" d="M80.7745,115.1091c-1.6429,0-3.1656,0.5244-4.4097,1.4143c-0.0918-0.796-0.7672-1.4143-1.5878-1.4143
				c-0.8833,0-1.5993,0.716-1.5993,1.5993v11.995c0,0.8833,0.716,1.5993,1.5993,1.5993s1.5993-0.716,1.5993-1.5993v-5.9975
				c0-2.4252,1.973-4.3982,4.3982-4.3982s4.3982,1.973,4.3982,4.3982v5.9975c0,0.8833,0.716,1.5993,1.5993,1.5993
				s1.5993-0.716,1.5993-1.5993v-5.9975C88.3714,118.5171,84.9634,115.1091,80.7745,115.1091z"/>
			<path class="st1" d="M176.4349,115.1091c-4.1889,0-7.5969,3.408-7.5969,7.5969c0,4.1889,3.408,7.5969,7.5969,7.5969
				c1.973,0,3.8427-0.7529,5.2646-2.1201c0.6368-0.6122,0.6567-1.6246,0.0444-2.2613c-0.6122-0.6368-1.6246-0.6567-2.2613-0.0444
				c-0.8231,0.7913-1.9055,1.2271-3.0477,1.2271c-2.4252,0-4.3982-1.973-4.3982-4.3982s1.973-4.3982,4.3982-4.3982
				c1.861,0,3.4546,1.1624,4.0959,2.7988h-4.0959c-0.8833,0-1.5993,0.716-1.5993,1.5993s0.716,1.5993,1.5993,1.5993h5.9975
				c0.8833,0,1.5993-0.716,1.5993-1.5993C184.0318,118.5171,180.6238,115.1091,176.4349,115.1091z"/>
			<path class="st0" d="M118.053,116.7085h-10.3957c-0.8833,0-1.5993,0.716-1.5993,1.5993c0,0.8833,0.716,1.5993,1.5993,1.5993
				h8.6502c-0.7543,4.0894-4.3459,7.197-8.6502,7.197c-4.8503,0-8.7964-3.946-8.7964-8.7964c0-4.8503,3.946-8.7964,8.7964-8.7964
				c2.2845,0,4.4494,0.8717,6.0957,2.4545c0.6368,0.6123,1.6493,0.5923,2.2613-0.0444c0.6122-0.6368,0.5923-1.6492-0.0444-2.2613
				c-2.2452-2.1586-5.1973-3.3474-8.3126-3.3474c-6.6141,0-11.9951,5.381-11.9951,11.9951c0,6.6141,5.381,11.9951,11.9951,11.9951
				c6.6141,0,11.9951-5.381,11.9951-11.9951C119.6523,117.4245,118.9363,116.7085,118.053,116.7085z"/>
			<path class="st1" d="M164.8382,106.3128c-0.8833,0-1.5993,0.716-1.5993,1.5993v8.603c-1.242-0.8849-2.7604-1.4059-4.3982-1.4059
				c-4.1889,0-7.5969,3.408-7.5969,7.5969c0,4.1889,3.408,7.5969,7.5969,7.5969c1.6429,0,3.1656-0.5244,4.4097-1.4144
				c0.0918,0.796,0.7672,1.4144,1.5878,1.4144c0.8833,0,1.5993-0.716,1.5993-1.5993v-20.7914
				C166.4375,107.0288,165.7215,106.3128,164.8382,106.3128z M158.8407,127.1042c-2.4252,0-4.3982-1.973-4.3982-4.3982
				s1.973-4.3982,4.3982-4.3982s4.3982,1.973,4.3982,4.3982S161.2659,127.1042,158.8407,127.1042z"/>
			<path class="st1" d="M147.2439,115.1091c-1.6429,0-3.1656,0.5244-4.4097,1.4143c-0.0918-0.796-0.7672-1.4143-1.5878-1.4143
				c-0.8833,0-1.5993,0.716-1.5993,1.5993v11.995c0,0.8833,0.716,1.5993,1.5993,1.5993c0.8833,0,1.5993-0.716,1.5993-1.5993v-5.9975
				c0-2.4252,1.973-4.3982,4.3982-4.3982c0.8833,0,1.5993-0.716,1.5993-1.5993S148.1273,115.1091,147.2439,115.1091z"/>
			<path class="st1" d="M194.0292,115.1091c-1.6429,0-3.1656,0.5244-4.4097,1.4143c-0.0918-0.796-0.7672-1.4143-1.5878-1.4143
				c-0.8833,0-1.5993,0.716-1.5993,1.5993v11.995c0,0.8833,0.716,1.5993,1.5993,1.5993c0.8833,0,1.5993-0.716,1.5993-1.5993v-5.9975
				c0-2.4252,1.973-4.3982,4.3982-4.3982s4.3982,1.973,4.3982,4.3982v5.9975c0,0.8833,0.716,1.5993,1.5993,1.5993
				c0.8833,0,1.5993-0.716,1.5993-1.5993v-5.9975C201.6261,118.5171,198.2181,115.1091,194.0292,115.1091z"/>
			<path class="st1" d="M135.6472,115.1091c-0.8206,0-1.496,0.6183-1.5878,1.4143c-1.2441-0.89-2.7668-1.4143-4.4097-1.4143
				c-4.1889,0-7.5969,3.408-7.5969,7.5969c0,4.1889,3.408,7.5969,7.5969,7.5969c1.6429,0,3.1656-0.5244,4.4097-1.4144
				c0.0918,0.796,0.7672,1.4144,1.5878,1.4144c0.8833,0,1.5993-0.716,1.5993-1.5993v-11.995
				C137.2466,115.8252,136.5305,115.1091,135.6472,115.1091z M129.6497,127.1042c-2.4252,0-4.3982-1.973-4.3982-4.3982
				s1.973-4.3982,4.3982-4.3982s4.3982,1.973,4.3982,4.3982S132.0749,127.1042,129.6497,127.1042z"/>
		</g>
		<g>
			<path class="st2" d="M0,137.7876h6.0559l-0.0125,1.8083H1.6801v2.9211h3.9746v1.8082H1.6801v4.2812H0V137.7876z"/>
			<path class="st2" d="M12.3313,140.8014c0.5307,0.3504,0.9444,0.8423,1.2413,1.476c0.2966,0.6337,0.4451,1.3627,0.4451,2.1868
				c0,0.8346-0.1485,1.5715-0.4451,2.2102c-0.2968,0.6389-0.7105,1.1335-1.2413,1.4838c-0.5309,0.3504-1.1432,0.5254-1.8369,0.5254
				c-0.7022,0-1.3209-0.175-1.8556-0.5254c-0.535-0.3503-0.9509-0.8448-1.2476-1.4838c-0.2968-0.6387-0.4451-1.3756-0.4451-2.2102
				c0-0.8242,0.1484-1.5532,0.4451-2.1868c0.2966-0.6338,0.7125-1.1257,1.2476-1.476c0.5348-0.3501,1.1535-0.5256,1.8556-0.5256
				C11.1881,140.2759,11.8003,140.4513,12.3313,140.8014z M9.1152,142.687c-0.351,0.4636-0.5266,1.0663-0.5266,1.8082
				c0,0.7419,0.1756,1.3446,0.5266,1.8083c0.3511,0.4636,0.8107,0.6954,1.3792,0.6954c0.5517,0,1.0031-0.2318,1.3541-0.6954
				c0.3511-0.4638,0.5266-1.0665,0.5266-1.8083c0-0.7419-0.1755-1.3446-0.5266-1.8082c-0.3511-0.4638-0.8025-0.6956-1.3541-0.6956
				C9.9259,141.9915,9.4662,142.2233,9.1152,142.687z"/>
			<path class="st2" d="M18.2993,140.7009c0.3887-0.2833,0.842-0.4301,1.3604-0.4404v1.9473
				c-0.6939-0.0513-1.2475,0.1469-1.6613,0.5951c-0.4138,0.4483-0.6206,1.0537-0.6206,1.8161v3.9875h-1.63v-8.2687h1.63v1.5919
				C17.6034,141.3941,17.9106,140.9845,18.2993,140.7009z"/>
			<path class="st2" d="M24.562,137.7876h1.6801v8.9487h3.7865v1.8701H24.562V137.7876z"/>
			<path class="st2" d="M35.5578,148.6064v-1.0047c-0.2341,0.3608-0.5351,0.6338-0.9028,0.8192
				c-0.3679,0.1855-0.7899,0.2783-1.2664,0.2783c-0.4681,0-0.8798-0.1107-1.2349-0.3323c-0.3554-0.2215-0.6291-0.5279-0.8213-0.9196
				c-0.1923-0.3914-0.2884-0.8292-0.2884-1.3136c0-0.7729,0.2214-1.378,0.6646-1.8161c0.4429-0.4378,1.0699-0.6619,1.8807-0.6722
				h1.9561v-0.2165c0-0.4841-0.1298-0.8602-0.3887-1.1283c-0.2593-0.2678-0.6353-0.4018-1.1285-0.4018
				c-0.6353,0-1.2998,0.2578-1.9936,0.7729l-0.5892-1.391c0.5265-0.3605,1.005-0.6206,1.4356-0.7805
				c0.4304-0.1597,0.9341-0.2396,1.5109-0.2396c0.8692,0,1.5442,0.2576,2.0249,0.7727c0.4805,0.5154,0.725,1.2365,0.7334,2.1637
				l0.0126,5.4095H35.5578z M34.9811,146.744c0.3342-0.2728,0.5223-0.6104,0.5643-1.0123v-0.7419h-1.6926
				c-0.4347,0-0.7545,0.08-0.9593,0.2396c-0.2049,0.1598-0.3072,0.4199-0.3072,0.7805c0,0.3505,0.1066,0.6286,0.3197,0.8346
				c0.2132,0.2063,0.5035,0.3091,0.8714,0.3091C34.2454,147.1536,34.6467,147.0171,34.9811,146.744z"/>
			<path class="st2" d="M45.1621,141.1183c0.443,0.5719,0.6645,1.3473,0.6645,2.326v5.1622h-1.6425v-4.5748
				c0-0.5769-0.1338-1.0329-0.4012-1.3678c-0.2677-0.3348-0.6312-0.5023-1.0908-0.5023c-0.5435,0.0105-0.9718,0.2371-1.2851,0.6801
				c-0.3135,0.4431-0.4702,1.0098-0.4702,1.7v4.0649h-1.6299v-8.2687h1.6299v1.5456c0.4596-1.0612,1.262-1.6021,2.4073-1.6228
				C44.113,140.2605,44.7189,140.5464,45.1621,141.1183z"/>
			<path class="st2" d="M54.4401,137.1384v11.468h-1.6301v-1.3291c-0.2425,0.4636-0.5538,0.8167-0.9341,1.0586
				c-0.3804,0.2423-0.8212,0.3633-1.3227,0.3633c-0.6353,0-1.1934-0.1778-1.6739-0.5333c-0.4808-0.3554-0.8548-0.855-1.1222-1.4991
				c-0.2676-0.6438-0.4012-1.3833-0.4012-2.2178c0-0.8242,0.1317-1.5533,0.395-2.187c0.2633-0.6337,0.6351-1.1257,1.1159-1.476
				c0.4805-0.3501,1.0301-0.5254,1.6488-0.5254c0.5098,0,0.9571,0.1236,1.3416,0.3709c0.3843,0.2473,0.7022,0.6028,0.9528,1.0665
				v-4.5594H54.4401z M52.2773,146.3114c0.3551-0.4688,0.5328-1.0742,0.5328-1.8161c0-0.7419-0.1776-1.347-0.5328-1.816
				c-0.3554-0.4688-0.8131-0.7033-1.373-0.7033c-0.5601,0-1.0156,0.2345-1.3666,0.7033c-0.3511,0.4689-0.531,1.0741-0.5391,1.816
				c0.0081,0.7419,0.188,1.3473,0.5391,1.8161c0.351,0.4689,0.8065,0.7032,1.3666,0.7032
				C51.4642,147.0146,51.9219,146.7803,52.2773,146.3114z"/>
			<path class="st2" d="M59.8127,142.0224c-0.347-0.1338-0.6667-0.201-0.9591-0.201c-0.2759,0-0.4952,0.0595-0.6583,0.1778
				c-0.1631,0.1186-0.2445,0.3013-0.2445,0.5486c0,0.2578,0.1022,0.456,0.3072,0.5951c0.2047,0.1391,0.5285,0.2859,0.9716,0.4404
				c0.4682,0.1753,0.8527,0.3478,1.1535,0.5178c0.301,0.17,0.5621,0.4226,0.7837,0.7574c0.2214,0.3349,0.3323,0.7754,0.3323,1.3214
				c0,0.8037-0.2508,1.4219-0.7523,1.8547s-1.1328,0.6491-1.8932,0.6491c-0.5185,0-1.024-0.1005-1.5172-0.3013
				c-0.4933-0.201-0.9111-0.4869-1.2538-0.8579l0.5643-1.4064c0.3008,0.3195,0.6601,0.5694,1.0782,0.7496
				c0.418,0.1803,0.815,0.2704,1.1912,0.2704c0.3008,0,0.541-0.0642,0.7209-0.1931c0.1797-0.1287,0.2696-0.322,0.2696-0.5796
				c0-0.2883-0.1046-0.5048-0.3135-0.6491c-0.209-0.1442-0.5476-0.3038-1.0156-0.4791c-0.4514-0.1647-0.8193-0.327-1.1034-0.4869
				c-0.2842-0.1596-0.5308-0.4018-0.7397-0.7264c-0.209-0.3246-0.3135-0.7496-0.3135-1.2751c0-0.8139,0.2402-1.4348,0.721-1.8624
				c0.4805-0.4275,1.0845-0.6414,1.8117-0.6414c0.443,0,0.8797,0.0773,1.3103,0.2318c0.4304,0.1545,0.8128,0.3709,1.1472,0.6491
				l-0.5893,1.4528C60.496,142.3418,60.1595,142.1565,59.8127,142.0224z"/>
			<path class="st2" d="M66.063,142.0379c-0.5435,0-0.9843,0.2267-1.3228,0.68c-0.3385,0.4536-0.5078,1.0408-0.5078,1.7619
				c0,0.7419,0.1693,1.3396,0.5078,1.7929c0.3385,0.4536,0.7793,0.6801,1.3228,0.6801c0.8024,0,1.4042-0.3246,1.8055-0.9737
				l1.0155,1.0355c-0.3008,0.5359-0.698,0.948-1.1911,1.2364c-0.4933,0.2886-1.0657,0.4328-1.7178,0.4328
				c-0.6604,0-1.2475-0.175-1.7615-0.5254c-0.5141-0.3503-0.9133-0.8424-1.1974-1.476c-0.2843-0.6337-0.4264-1.3625-0.4264-2.187
				c0-0.8346,0.1442-1.5711,0.4325-2.2101c0.2884-0.6388,0.6896-1.1334,1.2037-1.4838c0.5141-0.3501,1.1053-0.5256,1.7742-0.5256
				c0.6101,0,1.1555,0.1315,1.6363,0.3942c0.4805,0.2626,0.8714,0.6362,1.1722,1.1205l-0.9905,1.1591
				C67.3669,142.3418,66.7818,142.0379,66.063,142.0379z"/>
			<path class="st2" d="M74.3131,148.6064v-1.0047c-0.2341,0.3608-0.5351,0.6338-0.9028,0.8192
				c-0.3679,0.1855-0.7899,0.2783-1.2664,0.2783c-0.4681,0-0.8798-0.1107-1.2349-0.3323c-0.3554-0.2215-0.6291-0.5279-0.8212-0.9196
				c-0.1925-0.3914-0.2884-0.8292-0.2884-1.3136c0-0.7729,0.2214-1.378,0.6645-1.8161c0.443-0.4378,1.0699-0.6619,1.8807-0.6722
				h1.9561v-0.2165c0-0.4841-0.1298-0.8602-0.3887-1.1283c-0.2593-0.2678-0.6353-0.4018-1.1285-0.4018
				c-0.6353,0-1.2998,0.2578-1.9936,0.7729l-0.5893-1.391c0.5266-0.3605,1.0051-0.6206,1.4357-0.7805
				c0.4304-0.1597,0.9341-0.2396,1.5109-0.2396c0.8692,0,1.5442,0.2576,2.0249,0.7727c0.4805,0.5154,0.725,1.2365,0.7334,2.1637
				l0.0126,5.4095H74.3131z M73.7363,146.744c0.3342-0.2728,0.5223-0.6104,0.5643-1.0123v-0.7419h-1.6926
				c-0.4347,0-0.7545,0.08-0.9593,0.2396c-0.2049,0.1598-0.3072,0.4199-0.3072,0.7805c0,0.3505,0.1066,0.6286,0.3197,0.8346
				c0.2132,0.2063,0.5035,0.3091,0.8714,0.3091C73.0006,147.1536,73.4019,147.0171,73.7363,146.744z"/>
			<path class="st2" d="M83.6728,140.8092c0.4805,0.3554,0.8526,0.8527,1.1159,1.4914c0.2633,0.6391,0.395,1.3756,0.395,2.2102
				c0,0.8244-0.1298,1.5509-0.3887,2.1792c-0.2593,0.6286-0.627,1.1181-1.1034,1.4683c-0.4765,0.3504-1.0281,0.5254-1.6551,0.5254
				c-0.5016,0-0.9447-0.121-1.329-0.3631c-0.3847-0.242-0.7022-0.5951-0.9529-1.0587v4.343h-1.6299v-11.2671h1.6299v1.3601
				c0.2423-0.4636,0.5537-0.8165,0.9341-1.0587c0.3802-0.242,0.8212-0.3633,1.3228-0.3633
				C82.6384,140.2759,83.192,140.4536,83.6728,140.8092z M83.002,146.2495c0.351-0.4687,0.5266-1.0688,0.5266-1.8005
				c0-0.7316-0.1756-1.3292-0.5266-1.7929c-0.351-0.4636-0.8024-0.6954-1.3541-0.6954c-0.5601,0-1.0156,0.2318-1.3666,0.6954
				c-0.351,0.4636-0.5266,1.0613-0.5266,1.7929c0,0.7418,0.1756,1.3446,0.5266,1.8082s0.8065,0.6956,1.3666,0.6956
				C82.1996,146.9528,82.651,146.7185,83.002,146.2495z"/>
			<path class="st2" d="M88.3808,137.1231c0.1756,0.2267,0.2633,0.5154,0.2633,0.8655c0,0.3401-0.0877,0.6235-0.2633,0.85
				c-0.1754,0.2268-0.3971,0.34-0.6645,0.34c-0.2676,0-0.4889-0.1133-0.6645-0.34c-0.1756-0.2265-0.2633-0.5099-0.2633-0.85
				c0-0.3501,0.0877-0.6388,0.2633-0.8655c0.1756-0.2265,0.3969-0.3401,0.6645-0.3401
				C87.9837,136.783,88.2053,136.8965,88.3808,137.1231z M86.9139,140.3378h1.6299v8.2687h-1.6299V140.3378z"/>
			<path class="st2" d="M96.7311,141.1183c0.443,0.5719,0.6645,1.3473,0.6645,2.326v5.1622h-1.6425v-4.5748
				c0-0.5769-0.1338-1.0329-0.4012-1.3678c-0.2677-0.3348-0.6312-0.5023-1.0908-0.5023c-0.5435,0.0105-0.9718,0.2371-1.2851,0.6801
				c-0.3135,0.4431-0.4702,1.0098-0.4702,1.7v4.0649h-1.6299v-8.2687h1.6299v1.5456c0.4596-1.0612,1.262-1.6021,2.4073-1.6228
				C95.682,140.2605,96.2879,140.5464,96.7311,141.1183z"/>
			<path class="st2" d="M105.6705,140.3378v7.4805c0,0.7832-0.1441,1.4656-0.4325,2.0478c-0.2883,0.582-0.698,1.0302-1.2287,1.3447
				c-0.5308,0.3141-1.1472,0.4714-1.8494,0.4714c-1.0199,0-1.9643-0.3658-2.8337-1.0974l0.652-1.4528
				c0.6352,0.577,1.3332,0.8656,2.094,0.8656c0.6018,0,1.0803-0.1908,1.4355-0.5719c0.3553-0.3813,0.5329-0.9015,0.5329-1.5611
				v-0.9737c-0.2256,0.4226-0.5183,0.7446-0.8776,0.966c-0.3595,0.2218-0.7774,0.3323-1.2539,0.3323
				c-0.5852,0-1.1034-0.1673-1.5547-0.5023c-0.4514-0.3346-0.8024-0.8037-1.0532-1.4064c-0.2508-0.6028-0.3762-1.2956-0.3762-2.0788
				c0-0.7728,0.1254-1.4553,0.3762-2.0479c0.2508-0.5924,0.6018-1.0534,1.0532-1.3833c0.4514-0.3296,0.9696-0.4946,1.5547-0.4946
				c0.468,0,0.8839,0.1135,1.2476,0.3401c0.3637,0.2268,0.6583,0.5463,0.8839,0.9582v-1.2364H105.6705z M103.5453,145.9558
				c0.3301-0.4378,0.4952-1.007,0.4952-1.7079c0-0.7006-0.1651-1.2698-0.4952-1.7079c-0.3302-0.4378-0.7585-0.6568-1.2851-0.6568
				s-0.9551,0.2216-1.2852,0.6645c-0.3302,0.4431-0.4995,1.01-0.5078,1.7001c0.0083,0.7009,0.1775,1.27,0.5078,1.7079
				c0.3301,0.4381,0.7587,0.6569,1.2852,0.6569S103.2151,146.3939,103.5453,145.9558z"/>
			<path class="st2" d="M117.7322,148.962l-1.329-1.6228c-0.7859,0.9068-1.6551,1.3601-2.608,1.3601
				c-0.5266,0-1.0052-0.1315-1.4355-0.3941c-0.4306-0.2628-0.7691-0.6284-1.0156-1.0974c-0.2467-0.4687-0.3698-0.9968-0.3698-1.5842
				c0-0.68,0.165-1.2493,0.4952-1.7079c0.3301-0.4583,0.7837-0.8783,1.3603-1.2596c-0.2758-0.4738-0.4786-0.9092-0.608-1.306
				c-0.1298-0.3965-0.1944-0.7855-0.1944-1.1668c0-0.7419,0.2131-1.342,0.6395-1.8006c0.4264-0.4583,0.9946-0.6877,1.7051-0.6877
				c0.443,0,0.8401,0.0981,1.1912,0.2936c0.351,0.1958,0.6226,0.4714,0.8149,0.8269c0.1922,0.3554,0.2884,0.76,0.2884,1.2133
				c0,0.6698-0.184,1.2236-0.5517,1.6614c-0.3679,0.4381-0.8861,0.863-1.5547,1.2751c0.4847,0.6596,1.0532,1.3859,1.7053,2.1792
				c0.2758-0.5151,0.5181-1.1437,0.7272-1.8856l1.0657,0.9737c-0.2341,0.7523-0.5266,1.422-0.8776,2.0092l1.3917,1.6693
				L117.7322,148.962z M115.5255,146.2727c-0.8526-1.0405-1.5297-1.9112-2.0311-2.612c-0.3762,0.2681-0.6646,0.5436-0.8652,0.8269
				c-0.2006,0.2836-0.3008,0.6106-0.3008,0.9814c0,0.5049,0.1462,0.9172,0.4389,1.2365c0.2924,0.3194,0.656,0.4791,1.0907,0.4791
				C114.4347,147.1846,114.9905,146.8808,115.5255,146.2727z M113.9081,141.9606c0.468-0.2988,0.8276-0.5951,1.0783-0.8887
				c0.2508-0.2937,0.3762-0.6414,0.3762-1.0432c0-0.3297-0.0899-0.5951-0.2696-0.7961c-0.1798-0.2009-0.4159-0.3014-0.7085-0.3014
				c-0.3177,0-0.5747,0.1186-0.771,0.3555c-0.1965,0.2371-0.2946,0.5359-0.2946,0.8964
				C113.3188,140.6882,113.5152,141.2805,113.9081,141.9606z"/>
			<path class="st2" d="M129.5994,138.7613c0.6059,0.6491,0.9091,1.5663,0.9091,2.7511c0,1.2365-0.3032,2.1973-0.9091,2.8824
				c-0.606,0.6854-1.4607,1.0279-2.564,1.0279h-1.9183v3.1838h-1.6801v-10.8189h3.5984
				C128.1387,137.7876,128.9933,138.1121,129.5994,138.7613z M128.4083,143.0889c0.3385-0.3401,0.5078-0.8448,0.5078-1.5148
				c0-0.6592-0.1693-1.1538-0.5078-1.4836c-0.3385-0.3296-0.8256-0.4946-1.4607-0.4946h-1.8305v4.0029h1.8305
				C127.5827,143.5988,128.0698,143.4288,128.4083,143.0889z"/>
			<path class="st2" d="M137.3606,141.4041c0.5391,0.7523,0.8087,1.8083,0.8087,3.1684c0,0.2681-0.0044,0.4691-0.0126,0.6028
				h-4.9525c0.1085,0.5872,0.3323,1.0485,0.6708,1.3832c0.3385,0.335,0.7543,0.5023,1.2476,0.5023
				c0.3426,0,0.6707-0.0797,0.9842-0.2396c0.3135-0.1596,0.5872-0.3888,0.8212-0.6877l0.8777,1.1283
				c-0.3344,0.4534-0.7419,0.8037-1.2224,1.051c-0.4808,0.2473-1.0137,0.3709-1.5987,0.3709c-0.6854,0-1.2894-0.175-1.8117-0.5254
				c-0.5225-0.3503-0.9258-0.8424-1.2099-1.476c-0.2843-0.6337-0.4263-1.3625-0.4263-2.187c0-0.8242,0.1442-1.5556,0.4325-2.1947
				c0.2885-0.6387,0.6916-1.136,1.21-1.4914c0.5181-0.3555,1.1074-0.5333,1.7679-0.5333
				C136.0167,140.2759,136.8213,140.6522,137.3606,141.4041z M136.6772,143.8307c-0.0169-0.6077-0.18-1.092-0.489-1.4528
				c-0.3093-0.3606-0.7189-0.5409-1.2287-0.5409c-0.4764,0-0.8757,0.1778-1.1974,0.5332c-0.3219,0.3555-0.5203,0.8424-0.5956,1.4606
				H136.6772z"/>
			<path class="st2" d="M142.8522,142.0224c-0.347-0.1338-0.6667-0.201-0.9591-0.201c-0.2759,0-0.4952,0.0595-0.6583,0.1778
				c-0.1631,0.1186-0.2445,0.3013-0.2445,0.5486c0,0.2578,0.1022,0.456,0.3071,0.5951c0.2047,0.1391,0.5285,0.2859,0.9716,0.4404
				c0.4682,0.1753,0.8527,0.3478,1.1535,0.5178c0.301,0.17,0.5621,0.4226,0.7837,0.7574c0.2214,0.3349,0.3323,0.7754,0.3323,1.3214
				c0,0.8037-0.2508,1.4219-0.7523,1.8547s-1.1328,0.6491-1.8932,0.6491c-0.5185,0-1.024-0.1005-1.5172-0.3013
				c-0.4933-0.201-0.9111-0.4869-1.2538-0.8579l0.5643-1.4064c0.3008,0.3195,0.6601,0.5694,1.0782,0.7496
				c0.418,0.1803,0.815,0.2704,1.1912,0.2704c0.3008,0,0.541-0.0642,0.7209-0.1931c0.1797-0.1287,0.2696-0.322,0.2696-0.5796
				c0-0.2883-0.1046-0.5048-0.3135-0.6491c-0.209-0.1442-0.5476-0.3038-1.0156-0.4791c-0.4514-0.1647-0.8193-0.327-1.1033-0.4869
				c-0.2842-0.1596-0.5309-0.4018-0.7397-0.7264c-0.209-0.3246-0.3135-0.7496-0.3135-1.2751c0-0.8139,0.2402-1.4348,0.721-1.8624
				c0.4805-0.4275,1.0845-0.6414,1.8117-0.6414c0.443,0,0.8797,0.0773,1.3103,0.2318c0.4304,0.1545,0.8129,0.3709,1.1472,0.6491
				l-0.5893,1.4528C143.5355,142.3418,143.1989,142.1565,142.8522,142.0224z"/>
			<path class="st2" d="M150.168,148.0964c-0.535,0.4018-1.0951,0.6028-1.6801,0.6028c-0.5768,0-1.049-0.2087-1.4168-0.6259
				c-0.3679-0.4173-0.5516-1.0329-0.5516-1.8469v-4.0803h-0.9404l-0.0125-1.4683h0.9529v-2.2719h1.6174v2.2719h1.9184v1.4683
				h-1.9184v3.7248c0,0.3813,0.0583,0.6519,0.1756,0.8114c0.1169,0.1598,0.2924,0.2395,0.5266,0.2395
				c0.2508,0,0.5683-0.1133,0.9528-0.34L150.168,148.0964z"/>
			<path class="st2" d="M160.4679,139.874c-0.4221-0.2472-0.8506-0.3709-1.2851-0.3709c-0.5435,0-1.0407,0.1598-1.4921,0.4791
				c-0.4514,0.3195-0.8068,0.76-1.0657,1.3215c-0.2593,0.5617-0.3887,1.1773-0.3887,1.8469c0,0.6699,0.1294,1.2854,0.3887,1.8469
				c0.2589,0.5617,0.6143,1.0045,1.0657,1.3291c0.4514,0.3246,0.9486,0.4868,1.4921,0.4868c0.4178,0,0.8379-0.1133,1.2601-0.34
				c0.422-0.2264,0.7962-0.5409,1.1222-0.9427l0.9905,1.3601c-0.4598,0.5772-0.9949,1.0332-1.6049,1.3678
				c-0.6102,0.335-1.2287,0.5023-1.8556,0.5023c-0.8445,0-1.6174-0.2473-2.3196-0.7419c-0.7021-0.4946-1.2539-1.1668-1.6551-2.017
				c-0.4012-0.85-0.6018-1.7902-0.6018-2.8206c0-1.0302,0.2047-1.9679,0.6143-2.8129c0.4095-0.8447,0.9675-1.5093,1.6739-1.9937
				c0.7063-0.4841,1.4898-0.7264,2.3509-0.7264c0.6268,0,1.2413,0.1545,1.843,0.4636c0.6018,0.3092,1.1159,0.7369,1.5422,1.2828
				l-0.978,1.5147C161.2558,140.4667,160.89,140.1213,160.4679,139.874z"/>
			<path class="st2" d="M168.781,140.8014c0.5307,0.3504,0.9444,0.8423,1.2413,1.476c0.2966,0.6337,0.4451,1.3627,0.4451,2.1868
				c0,0.8346-0.1485,1.5715-0.4451,2.2102c-0.2968,0.6389-0.7105,1.1335-1.2413,1.4838c-0.531,0.3504-1.1431,0.5254-1.8369,0.5254
				c-0.7021,0-1.3208-0.175-1.8557-0.5254c-0.535-0.3503-0.9509-0.8448-1.2474-1.4838c-0.2968-0.6387-0.4452-1.3756-0.4452-2.2102
				c0-0.8242,0.1483-1.5532,0.4452-2.1868c0.2966-0.6338,0.7125-1.1257,1.2474-1.476c0.5349-0.3501,1.1535-0.5256,1.8557-0.5256
				C167.6379,140.2759,168.25,140.4513,168.781,140.8014z M165.565,142.687c-0.3512,0.4636-0.5266,1.0663-0.5266,1.8082
				c0,0.7419,0.1754,1.3446,0.5266,1.8083c0.351,0.4636,0.8106,0.6954,1.3792,0.6954c0.5516,0,1.003-0.2318,1.3541-0.6954
				c0.351-0.4638,0.5266-1.0665,0.5266-1.8083c0-0.7419-0.1756-1.3446-0.5266-1.8082c-0.3512-0.4638-0.8025-0.6956-1.3541-0.6956
				C166.3756,141.9915,165.916,142.2233,165.565,142.687z"/>
			<path class="st2" d="M178.0529,141.1183c0.443,0.5719,0.6645,1.3473,0.6645,2.326v5.1622h-1.6425v-4.5748
				c0-0.5769-0.1338-1.0329-0.4012-1.3678c-0.2677-0.3348-0.6312-0.5023-1.0909-0.5023c-0.5435,0.0105-0.9718,0.2371-1.2851,0.6801
				c-0.3135,0.4431-0.4702,1.0098-0.4702,1.7v4.0649h-1.6299v-8.2687h1.6299v1.5456c0.4596-1.0612,1.262-1.6021,2.4073-1.6228
				C177.0038,140.2605,177.6098,140.5464,178.0529,141.1183z"/>
			<path class="st2" d="M184.7856,148.0964c-0.535,0.4018-1.0951,0.6028-1.6801,0.6028c-0.5768,0-1.0491-0.2087-1.4168-0.6259
				c-0.3679-0.4173-0.5516-1.0329-0.5516-1.8469v-4.0803h-0.9404l-0.0125-1.4683h0.9529v-2.2719h1.6174v2.2719h1.9184v1.4683
				h-1.9184v3.7248c0,0.3813,0.0583,0.6519,0.1756,0.8114c0.1169,0.1598,0.2924,0.2395,0.5266,0.2395
				c0.2508,0,0.5683-0.1133,0.9528-0.34L184.7856,148.0964z"/>
			<path class="st2" d="M188.9294,140.7009c0.3887-0.2833,0.842-0.4301,1.3603-0.4404v1.9473
				c-0.6939-0.0513-1.2476,0.1469-1.6613,0.5951c-0.4137,0.4483-0.6206,1.0537-0.6206,1.8161v3.9875h-1.6299v-8.2687h1.6299v1.5919
				C188.2335,141.3941,188.5408,140.9845,188.9294,140.7009z"/>
			<path class="st2" d="M196.515,140.8014c0.5307,0.3504,0.9444,0.8423,1.2413,1.476c0.2966,0.6337,0.4451,1.3627,0.4451,2.1868
				c0,0.8346-0.1485,1.5715-0.4451,2.2102c-0.2968,0.6389-0.7105,1.1335-1.2413,1.4838c-0.531,0.3504-1.1431,0.5254-1.8369,0.5254
				c-0.7022,0-1.3208-0.175-1.8557-0.5254c-0.535-0.3503-0.9509-0.8448-1.2475-1.4838c-0.2968-0.6387-0.4452-1.3756-0.4452-2.2102
				c0-0.8242,0.1483-1.5532,0.4452-2.1868c0.2966-0.6338,0.7125-1.1257,1.2475-1.476c0.5349-0.3501,1.1535-0.5256,1.8557-0.5256
				C195.3719,140.2759,195.9841,140.4513,196.515,140.8014z M193.299,142.687c-0.3511,0.4636-0.5266,1.0663-0.5266,1.8082
				c0,0.7419,0.1754,1.3446,0.5266,1.8083c0.351,0.4636,0.8107,0.6954,1.3792,0.6954c0.5516,0,1.003-0.2318,1.3541-0.6954
				c0.351-0.4638,0.5266-1.0665,0.5266-1.8083c0-0.7419-0.1756-1.3446-0.5266-1.8082c-0.3512-0.4638-0.8025-0.6956-1.3541-0.6956
				C194.1096,141.9915,193.65,142.2233,193.299,142.687z"/>
			<path class="st2" d="M199.9943,137.1384h1.6299v11.468h-1.6299V137.1384z"/>
		</g>
	</g>
</g>
</svg>
