<svg id="Layer_1" data-name="Layer 1" xmlns="http://www.w3.org/2000/svg" viewBox="0 0 448.6407 407.1327"><defs><style>.cls-1{fill:#00a05d;}.cls-2{fill:#6d6e71;}.cls-3{fill:#414042;}</style></defs><title>Artboard 1</title><path class="cls-1" d="M315.2624,118.4587a38.1618,38.1618,0,0,1-6.47,1.0008c-.5292.0294-1.0753.0438-1.6243.0438a42.3117,42.3117,0,0,1-5.2-.363,46.2215,46.2215,0,0,1-12.777-3.4688,43.7773,43.7773,0,0,1-10.9265-7.0323l-11.5552-9.8031-7.1087.6893c-1.4131.1368-2.6785.21-3.8678.2232l-.345.0018a36.215,36.215,0,0,1-16.715-4.2944,29.5172,29.5172,0,0,1-7.4559-5.297,44.3727,44.3727,0,0,1-5.11-6.1461A45.9609,45.9609,0,0,1,218.1154,56.91c.01-.8839.0458-1.7728.0968-2.6648-.62-.0092-1.2379-.0235-1.86-.0235h0A122.8856,122.8856,0,0,0,93.4668,177.1075v0A122.8856,122.8856,0,0,0,216.3524,299.9934h0A122.8856,122.8856,0,0,0,339.2383,177.1078v0a122.3194,122.3194,0,0,0-16.1966-61.0161A56.005,56.005,0,0,1,315.2624,118.4587ZM290.0765,177.25c0,.0189-.0027.0371-.0029.056a73.7405,73.7405,0,0,1-139.6949,32.7179,75.0009,75.0009,0,0,1-7.7219-35.2375,73.1658,73.1658,0,0,1,7.5863-30.3178,73.7558,73.7558,0,0,1,74.3379-40.6441,73.0329,73.0329,0,0,1,26.5347,8.2409,49.4993,49.4993,0,0,1,7.94,4.9652,12.291,12.291,0,0,1-8.6056,21.7881,12.2359,12.2359,0,0,1-3.978-.9533,29.093,29.093,0,0,1-3.94-2.3682,49.6423,49.6423,0,0,0-8.2027-4.16,49.0572,49.0572,0,0,0-45.3912,5.032,49.9781,49.9781,0,0,0-17.4121,20.6657,48.9673,48.9673,0,0,0-3.2163,30.5227,49.14,49.14,0,0,0,95.596,1.8338h-35.272a12.2885,12.2885,0,0,1-12.2886-12.2884h0a12.2886,12.2886,0,0,1,12.2886-12.2886h49.1544a12.2886,12.2886,0,0,1,12.2884,12.2886Z"/><path class="cls-1" d="M269.9126,83.2508a38.9692,38.9692,0,0,1-.9916-11.9981,38.5534,38.5534,0,0,1,8.5723-21.57c.3907-.4745.7963-.9351,1.2089-1.3893-.0935-.1746-.186-.35-.2811-.5235q-.5663-1.0365-1.1656-2.0546c-.7587-1.292-1.5515-2.5636-2.3635-3.8227-1.5842-2.4571-3.241-4.8662-4.8654-7.2966A148.8438,148.8438,0,0,1,260.6518,18.78a70.5224,70.5224,0,0,1-3.9187-9.1244A35.7731,35.7731,0,0,1,255.4685,4.97c-.2886-1.5136-.6424-3.4819-.0891-4.97a7.9592,7.9592,0,0,0-1.0444,1.2974q-1.1613,1.4648-2.3049,2.9438c-1.8772,2.426-3.6945,4.8867-5.413,7.4284A124.865,124.865,0,0,0,234.5139,33.78c-3.0419,7.3571-5.2477,15.2487-5.3393,23.2561a35.0208,35.0208,0,0,0,5.9925,20.6347,33.7653,33.7653,0,0,0,3.8374,4.6352,18.9132,18.9132,0,0,0,4.7515,3.327,25.3374,25.3374,0,0,0,11.8542,3.056c.9763-.01,1.9513-.0777,2.9228-.1719a92.12,92.12,0,0,1-5.2349-13.4406,103.7712,103.7712,0,0,1-4.1438-43.2273c.3346-2.7812.7952-5.5467,1.3624-8.29.5752-2.7818,1.3542-5.5156,1.9179-8.2989-.06.3484-.1146.6976-.1785,1.0453q.06-.232.1207-.464A113.0953,113.0953,0,0,0,251.1594,32.67a103.41,103.41,0,0,0,1.4343,15.7691,99.0186,99.0186,0,0,0,10.0935,29.5924q1.0066,1.9053,2.0811,3.7738c.74,1.2888,1.59,2.5092,2.3365,3.7913.1059.1822.1782.4542.4215.4694.2284.0142.6121-.2813.8118-.3845.6473-.3348,1.2762-.7006,1.8954-1.0848l.0292-.0164C270.1388,84.1388,270.0205,83.6956,269.9126,83.2508Z"/><path class="cls-1" d="M352.6079,54.6326a175.5786,175.5786,0,0,0,2.48-36.1666c-.0909-3.1573-.2931-6.3012-.539-9.4494-.4318,1.6775-1.7811,3.0717-2.9293,4.3052a35.9973,35.9973,0,0,1-3.8058,3.5082,72.0193,72.0193,0,0,1-8.8178,5.8846,160.5488,160.5488,0,0,1-19.7369,9.629c-6.9192,2.8672-14.0711,5.1758-20.8959,8.2653a72.4907,72.4907,0,0,0-9.8949,5.1967,33.4726,33.4726,0,0,0-15.0724,25.7691,34.4593,34.4593,0,0,0,2.5266,15.6812c.3391.82.7352,1.6085,1.11,2.4116a4.119,4.119,0,0,0,.5886,1.228c.3419.3238.7951-.0893,1.1627-.2579.8285-.38,1.696-.684,2.5359-1.0391,1.6875-.7131,3.3614-1.4772,5.0157-2.2638,3.4387-1.6351,6.7678-3.48,10.04-5.4233a124.0258,124.0258,0,0,0,18.3015-13.2553,129.4659,129.4659,0,0,0,28.5914-35.6015c.9108-1.68,1.7944-3.3736,2.6762-5.0685-1.2612,3.317-2.6225,6.603-4.0129,9.8675a127.0637,127.0637,0,0,1-8.766,16.6807,130.36,130.36,0,0,1-28.2589,32.2149,132.4794,132.4794,0,0,1-19.4879,13.4565,33.4116,33.4116,0,0,0,8.2,5.3314,35.2438,35.2438,0,0,0,9.72,2.6286,27.267,27.267,0,0,0,4.8467.2512,27.9067,27.9067,0,0,0,4.6292-.7438,43.7359,43.7359,0,0,0,9.0035-3.0756c11.6283-5.4917,19.5325-16.0949,24.4241-27.7157A105.5887,105.5887,0,0,0,352.6079,54.6326Z"/><path class="cls-2" d="M0,387.6947H7.7086V389.04H1.2141v5.8359h5.79V396.22h-5.79v6.6385H0Z"/><path class="cls-2" d="M16.1736,392.1744a4.8564,4.8564,0,0,1,1.6543,2.0284,6.9908,6.9908,0,0,1,.5984,2.95,7.1167,7.1167,0,0,1-.5984,2.983,4.8385,4.8385,0,0,1-1.6543,2.0392,4.3038,4.3038,0,0,1-4.7868,0,4.8391,4.8391,0,0,1-1.6546-2.0392,7.1166,7.1166,0,0,1-.5981-2.983,6.9908,6.9908,0,0,1,.5981-2.95,4.857,4.857,0,0,1,1.6546-2.0284,4.3052,4.3052,0,0,1,4.7868,0ZM11.9849,393.27a3.677,3.677,0,0,0-1.2317,1.5837,6.3982,6.3982,0,0,0,0,4.6643,3.67,3.67,0,0,0,1.2317,1.5837,3.1388,3.1388,0,0,0,3.5905,0,3.6724,3.6724,0,0,0,1.2317-1.5837,6.3982,6.3982,0,0,0,0-4.6643,3.6791,3.6791,0,0,0-1.2317-1.5837,3.1388,3.1388,0,0,0-3.5905,0Z"/><path class="cls-2" d="M23.8559,392.1528a3.2768,3.2768,0,0,1,2.0505-.7051v1.3667a2.84,2.84,0,0,0-2.35,1.0522,4.9815,4.9815,0,0,0-1.0119,2.9178v6.0744h-1.179V391.4912h1.179v2.6467A4.2827,4.2827,0,0,1,23.8559,392.1528Z"/><path class="cls-2" d="M38.9121,389.2673a5.1285,5.1285,0,0,0-1.6895-.3145,3.1382,3.1382,0,0,0-2.0327.6183,2.0462,2.0462,0,0,0-.7658,1.6813,2.5353,2.5353,0,0,0,.4226,1.5188,3.0947,3.0947,0,0,0,1.0383.922,14.424,14.424,0,0,0,1.6895.7485,12.9157,12.9157,0,0,1,2.0151.9,3.8215,3.8215,0,0,1,1.3024,1.291,4.6692,4.6692,0,0,1-.0176,4.3821,3.7365,3.7365,0,0,1-1.5576,1.4427,5.0178,5.0178,0,0,1-2.3055.51,5.4171,5.4171,0,0,1-2.5077-.6291,6.7853,6.7853,0,0,1-2.1033-1.67l.5633-1.2366a6.1389,6.1389,0,0,0,1.9184,1.5621,4.65,4.65,0,0,0,2.147.5638,3.3311,3.3311,0,0,0,2.2352-.7051,2.3661,2.3661,0,0,0,.8273-1.8982,2.679,2.679,0,0,0-.4223-1.5619,2.9171,2.9171,0,0,0-1.0386-.9328,17.661,17.661,0,0,0-1.7247-.76,15.6678,15.6678,0,0,1-2.0063-.9,3.6071,3.6071,0,0,1-1.2848-1.2584,4.0257,4.0257,0,0,1-.5281-2.18,3.8046,3.8046,0,0,1,.5281-2.0176,3.487,3.487,0,0,1,1.4782-1.3341,4.9353,4.9353,0,0,1,2.2-.4665,5.8588,5.8588,0,0,1,2.0151.3687,6.4628,6.4628,0,0,1,1.7865.9765l-.5281,1.28A5.8475,5.8475,0,0,0,38.9121,389.2673Z"/><path class="cls-2" d="M52.5868,391.4912V402.859H51.39v-2.7119a4.1741,4.1741,0,0,1-1.3639,2.0395,3.603,3.603,0,0,1-2.1912.7158,3.0676,3.0676,0,0,1-2.5607-1.1824,5.1388,5.1388,0,0,1-.924-3.2434v-6.9854h1.1968V398.13a3.94,3.94,0,0,0,.7127,2.5054,2.3644,2.3644,0,0,0,1.9623.9,2.7248,2.7248,0,0,0,2.3231-1.2473,5.57,5.57,0,0,0,.8449-3.2219v-5.5753Z"/><path class="cls-2" d="M63.7,392.1744a4.744,4.744,0,0,1,1.5752,2.0395,7.5038,7.5038,0,0,1,.5633,2.9828,7.3656,7.3656,0,0,1-.5633,2.95,4.7754,4.7754,0,0,1-1.5664,2.0284,3.7984,3.7984,0,0,1-2.2879.7269,3.619,3.619,0,0,1-2.2176-.7051,4.5852,4.5852,0,0,1-1.4785-1.9635v6.834h-1.179V391.4912h1.179v2.6248a4.4361,4.4361,0,0,1,1.47-1.9632,3.631,3.631,0,0,1,2.2088-.7051A3.8408,3.8408,0,0,1,63.7,392.1744Zm-.73,8.8947a3.7486,3.7486,0,0,0,1.2317-1.5945,6.2838,6.2838,0,0,0,0-4.6209,3.7555,3.7555,0,0,0-1.2317-1.5945,3.0491,3.0491,0,0,0-3.5639,0,3.8463,3.8463,0,0,0-1.232,1.5945,5.653,5.653,0,0,0-.449,2.3,5.8035,5.8035,0,0,0,.44,2.3214,3.7448,3.7448,0,0,0,1.232,1.5945,3.0627,3.0627,0,0,0,3.5727,0Z"/><path class="cls-2" d="M76.02,392.1744a4.744,4.744,0,0,1,1.5752,2.0395,7.5038,7.5038,0,0,1,.563,2.9828,7.3656,7.3656,0,0,1-.563,2.95,4.7754,4.7754,0,0,1-1.5664,2.0284,3.7984,3.7984,0,0,1-2.2879.7269,3.619,3.619,0,0,1-2.2176-.7051,4.583,4.583,0,0,1-1.4785-1.9635v6.834H68.8656V391.4912h1.1793v2.6248a4.434,4.434,0,0,1,1.47-1.9632,3.631,3.631,0,0,1,2.2088-.7051A3.8415,3.8415,0,0,1,76.02,392.1744Zm-.7306,8.8947a3.747,3.747,0,0,0,1.232-1.5945,6.2838,6.2838,0,0,0,0-4.6209,3.7539,3.7539,0,0,0-1.232-1.5945,3.0491,3.0491,0,0,0-3.5639,0,3.848,3.848,0,0,0-1.2317,1.5945,5.6483,5.6483,0,0,0-.449,2.3,5.8035,5.8035,0,0,0,.44,2.3214,3.7464,3.7464,0,0,0,1.2317,1.5945,3.0627,3.0627,0,0,0,3.5727,0Z"/><path class="cls-2" d="M81.1852,386.7616h1.179V402.859h-1.179Z"/><path class="cls-2" d="M87.97,406.46a2.2275,2.2275,0,0,1-1.5928.6724,2.6881,2.6881,0,0,1-1.9-.7811l.5278-1.1279a2.01,2.01,0,0,0,1.32.5207,1.4165,1.4165,0,0,0,1.0207-.4558,3.4146,3.4146,0,0,0,.757-1.3233l.3871-1.1713L84.67,391.4912h1.25l3.168,9.7625,3.0446-9.7625h1.2144l-4.259,12.9949A4.7327,4.7327,0,0,1,87.97,406.46Z"/><path class="cls-2" d="M96.655,387.4885a1.1458,1.1458,0,0,1,.2289.7266,1.1606,1.1606,0,0,1-.2377.7377.7062.7062,0,0,1-.572.3038.7213.7213,0,0,1-.59-.3038,1.16,1.16,0,0,1-.2374-.7377,1.1167,1.1167,0,0,1,.2374-.7266.73.73,0,0,1,.59-.293A.7068.7068,0,0,1,96.655,387.4885Zm-1.1793,4.0026H96.655V402.859H95.4757Z"/><path class="cls-2" d="M107.9448,392.63a5.072,5.072,0,0,1,.9416,3.2431v6.9857H107.69V396.22a3.9542,3.9542,0,0,0-.7215-2.5165,2.4164,2.4164,0,0,0-2.0063-.9113,2.8349,2.8349,0,0,0-2.2791,1.0848,5.012,5.012,0,0,0-.9768,2.8636v6.1178h-1.1793V391.4912h1.1793v2.6467a4.09,4.09,0,0,1,1.3991-1.9958,3.823,3.823,0,0,1,2.244-.6943A3.1363,3.1363,0,0,1,107.9448,392.63Z"/><path class="cls-2" d="M120.449,391.4912v10.1746a6.9,6.9,0,0,1-.5633,2.8852,4.2754,4.2754,0,0,1-1.61,1.8985,4.4337,4.4337,0,0,1-2.42.6617,5.29,5.29,0,0,1-3.784-1.7357l.5633-1.0411a5.2746,5.2746,0,0,0,1.4782,1.15,3.6982,3.6982,0,0,0,1.69.39,3.108,3.108,0,0,0,2.5253-1.1387,4.6362,4.6362,0,0,0,.9416-3.0483v-1.8438a4.2713,4.2713,0,0,1-1.4079,1.8656,3.4728,3.4728,0,0,1-2.1121.6724,3.6017,3.6017,0,0,1-2.1909-.7051,4.617,4.617,0,0,1-1.4961-1.9524,7.0975,7.0975,0,0,1-.5369-2.8313,7.0214,7.0214,0,0,1,.5369-2.82,4.5259,4.5259,0,0,1,1.5049-1.9306,3.6791,3.6791,0,0,1,2.2-.6943,3.4352,3.4352,0,0,1,2.0945.6617,4.3622,4.3622,0,0,1,1.4079,1.8764v-2.4947Zm-2.7808,9.1658a3.6257,3.6257,0,0,0,1.1793-1.53,5.4632,5.4632,0,0,0,.4223-2.1912,5.5219,5.5219,0,0,0-.4223-2.2128,3.6275,3.6275,0,0,0-1.1793-1.53,2.9111,2.9111,0,0,0-3.4141,0,3.69,3.69,0,0,0-1.1881,1.53,5.4223,5.4223,0,0,0-.4311,2.2128,5.3439,5.3439,0,0,0,.4311,2.202,3.7286,3.7286,0,0,0,1.1793,1.5188,2.9235,2.9235,0,0,0,3.4229,0Z"/><path class="cls-2" d="M138.2245,403.0541q-.7921-.9759-2.0945-2.5381a6.6747,6.6747,0,0,1-1.83,1.79,3.7631,3.7631,0,0,1-2.0242.6183,3.2376,3.2376,0,0,1-1.8126-.5423,3.8139,3.8139,0,0,1-1.3111-1.4861,4.5139,4.5139,0,0,1-.4841-2.0934,3.9485,3.9485,0,0,1,.7479-2.4731,8.4671,8.4671,0,0,1,2.1033-1.8659,10.5,10.5,0,0,1-.9768-1.9308,4.97,4.97,0,0,1-.3256-1.7139,3.5618,3.5618,0,0,1,.37-1.6379,2.78,2.78,0,0,1,1.0471-1.139,2.9058,2.9058,0,0,1,1.54-.4121,2.6128,2.6128,0,0,1,2.0063.8352,3.05,3.05,0,0,1,.7745,2.1586,3.342,3.342,0,0,1-.4226,1.692,4.5025,4.5025,0,0,1-1.0383,1.2476,19.1188,19.1188,0,0,1-1.6367,1.1824q.9151,1.3665,3.15,4.0784a19.256,19.256,0,0,0,1.3024-3.0372l.827.7377a17.0846,17.0846,0,0,1-1.443,3.124l2.1648,2.6467Zm-2.7632-3.3625q-2.4113-2.9286-3.4141-4.404a8.21,8.21,0,0,0-1.7425,1.5511,2.91,2.91,0,0,0-.616,1.8767,3.2113,3.2113,0,0,0,.757,2.1912,2.3787,2.3787,0,0,0,1.8653.8676Q133.9649,401.7741,135.4612,399.6916Zm-3.1328-5.7491a16.2813,16.2813,0,0,0,1.4169-.9978,3.7885,3.7885,0,0,0,.88-1.0088,2.5541,2.5541,0,0,0,.3432-1.3341,2.0881,2.0881,0,0,0-.4929-1.4427,1.66,1.66,0,0,0-1.3024-.5533,1.7959,1.7959,0,0,0-1.4254.6293,2.33,2.33,0,0,0-.5457,1.5834A6.3392,6.3392,0,0,0,132.3284,393.9424Z"/><path class="cls-2" d="M146.654,387.6729h1.5136l4.8223,11.39,4.7692-11.39h1.5136V402.859h-1.1265l-.0176-13.1035-4.822,11.4764h-.669l-4.84-11.4764V402.859H146.654Z"/><path class="cls-2" d="M169.1636,402.859l-.0176-1.909a3.6385,3.6385,0,0,1-1.4254,1.4859,4.1019,4.1019,0,0,1-2.0239.4881,3.0422,3.0422,0,0,1-1.6458-.4447,2.9614,2.9614,0,0,1-1.1-1.2255,3.9039,3.9039,0,0,1-.3871-1.7573,2.9907,2.9907,0,0,1,.924-2.3214,3.6231,3.6231,0,0,1,2.5432-.846h3.0973v-.8679a3.0455,3.0455,0,0,0-.6512-2.0826,2.4024,2.4024,0,0,0-1.9008-.7377,4.4606,4.4606,0,0,0-2.9743,1.3667l-.5281-.998a7.5218,7.5218,0,0,1,1.7777-1.1824,4.6835,4.6835,0,0,1,1.9359-.3795,3.28,3.28,0,0,1,2.5871,1.03,4.2143,4.2143,0,0,1,.9328,2.8529l.0176,7.528Zm-1.17-1.8548a3.52,3.52,0,0,0,1.1526-1.985V397.457h-2.9743a2.9382,2.9382,0,0,0-1.848.4992,1.79,1.79,0,0,0-.6336,1.4969,2.237,2.237,0,0,0,.6072,1.6379,2.1555,2.1555,0,0,0,1.61.6183A3.1671,3.1671,0,0,0,167.9934,401.0041Z"/><path class="cls-2" d="M175.0945,387.4885a1.1458,1.1458,0,0,1,.2289.7266,1.1606,1.1606,0,0,1-.2377.7377.7062.7062,0,0,1-.572.3038.7213.7213,0,0,1-.59-.3038,1.16,1.16,0,0,1-.2374-.7377,1.1167,1.1167,0,0,1,.2374-.7266.73.73,0,0,1,.59-.293A.7068.7068,0,0,1,175.0945,387.4885Zm-1.1793,4.0026h1.1793V402.859h-1.1793Z"/><path class="cls-2" d="M186.3843,392.63a5.072,5.072,0,0,1,.9416,3.2431v6.9857h-1.1968V396.22a3.9542,3.9542,0,0,0-.7215-2.5165,2.4164,2.4164,0,0,0-2.0063-.9113,2.8349,2.8349,0,0,0-2.2791,1.0848,5.012,5.012,0,0,0-.9768,2.8636v6.1178h-1.1793V391.4912h1.1793v2.6467a4.09,4.09,0,0,1,1.3991-1.9958,3.823,3.823,0,0,1,2.244-.6943A3.1363,3.1363,0,0,1,186.3843,392.63Z"/><path class="cls-2" d="M195.5626,402.0779a3.3232,3.3232,0,0,1-2.0417.846,1.9954,1.9954,0,0,1-1.6719-.8026,3.9221,3.9221,0,0,1-.616-2.4079v-6.7687h-1.32l-.0176-1.1282h1.3375v-2.9286h1.1793v2.9286l2.9918-.0216v1.15h-2.9918v6.53q0,2.1046,1.2672,2.1044a2.6528,2.6528,0,0,0,1.5312-.6075Z"/><path class="cls-2" d="M204.8552,393.129a7.5851,7.5851,0,0,1,1.0383,4.5234h-7.691a4.8532,4.8532,0,0,0,1.0911,2.94,3.0427,3.0427,0,0,0,2.3937,1.1172,3.5172,3.5172,0,0,0,1.6367-.3905,3.8459,3.8459,0,0,0,1.3024-1.1064l.6688.8245a4.7165,4.7165,0,0,1-1.61,1.3775,4.4274,4.4274,0,0,1-2.0678.4881,4.0385,4.0385,0,0,1-2.3761-.7269,4.8458,4.8458,0,0,1-1.6279-2.0284,7.7577,7.7577,0,0,1,0-5.9332,4.84,4.84,0,0,1,1.6279-2.0395,3.9853,3.9853,0,0,1,2.3407-.7266A3.6967,3.6967,0,0,1,204.8552,393.129Zm-.0179,3.3951a4.6832,4.6832,0,0,0-.9589-2.831,2.8175,2.8175,0,0,0-2.2794-1.0522,2.9659,2.9659,0,0,0-2.3231,1.063,4.7189,4.7189,0,0,0-1.0735,2.82Z"/><path class="cls-2" d="M216.2151,392.63a5.072,5.072,0,0,1,.9416,3.2431v6.9857H215.96V396.22a3.9542,3.9542,0,0,0-.7215-2.5165,2.4164,2.4164,0,0,0-2.0063-.9113,2.8349,2.8349,0,0,0-2.2791,1.0848,5.012,5.012,0,0,0-.9768,2.8636v6.1178h-1.1793V391.4912h1.1793v2.6467a4.09,4.09,0,0,1,1.3991-1.9958,3.823,3.823,0,0,1,2.244-.6943A3.1363,3.1363,0,0,1,216.2151,392.63Z"/><path class="cls-2" d="M226.5372,402.859l-.0176-1.909a3.6385,3.6385,0,0,1-1.4254,1.4859,4.1019,4.1019,0,0,1-2.0239.4881,3.0422,3.0422,0,0,1-1.6458-.4447,2.9614,2.9614,0,0,1-1.1-1.2255,3.9039,3.9039,0,0,1-.3871-1.7573,2.9907,2.9907,0,0,1,.924-2.3214,3.6231,3.6231,0,0,1,2.5432-.846h3.0973v-.8679a3.0455,3.0455,0,0,0-.6512-2.0826,2.4024,2.4024,0,0,0-1.9008-.7377,4.4606,4.4606,0,0,0-2.9743,1.3667l-.5281-.998a7.5218,7.5218,0,0,1,1.7777-1.1824,4.6835,4.6835,0,0,1,1.9359-.3795,3.28,3.28,0,0,1,2.5871,1.03,4.2143,4.2143,0,0,1,.9328,2.8529l.0176,7.528Zm-1.17-1.8548a3.52,3.52,0,0,0,1.1526-1.985V397.457h-2.9743a2.9382,2.9382,0,0,0-1.848.4992,1.79,1.79,0,0,0-.6336,1.4969,2.237,2.237,0,0,0,.6072,1.6379,2.1555,2.1555,0,0,0,1.61.6183A3.1671,3.1671,0,0,0,225.367,401.0041Z"/><path class="cls-2" d="M238.7071,392.63a5.072,5.072,0,0,1,.9416,3.2431v6.9857h-1.1968V396.22a3.9542,3.9542,0,0,0-.7215-2.5165,2.4164,2.4164,0,0,0-2.0063-.9113,2.8349,2.8349,0,0,0-2.2791,1.0848,5.012,5.012,0,0,0-.9768,2.8636v6.1178h-1.1793V391.4912h1.1793v2.6467a4.09,4.09,0,0,1,1.3991-1.9958,3.823,3.823,0,0,1,2.244-.6943A3.1363,3.1363,0,0,1,238.7071,392.63Z"/><path class="cls-2" d="M246.9,392.7277a2.9909,2.9909,0,0,0-1.7777.5641,3.6859,3.6859,0,0,0-1.232,1.5726,5.7319,5.7319,0,0,0-.44,2.3106,5.8094,5.8094,0,0,0,.44,2.3214,3.6763,3.6763,0,0,0,1.232,1.5837,2.9906,2.9906,0,0,0,1.7777.5638,3.43,3.43,0,0,0,2.9039-1.5185l.6688.8679a4.2514,4.2514,0,0,1-3.6257,1.909,4.01,4.01,0,0,1-2.3582-.7269,4.8337,4.8337,0,0,1-1.6279-2.0392,7.7306,7.7306,0,0,1,0-5.9224,4.84,4.84,0,0,1,1.6279-2.0395,4.0141,4.0141,0,0,1,2.3582-.7266,4.4146,4.4146,0,0,1,1.9626.4339,4.4607,4.4607,0,0,1,1.5222,1.2147l-.6688.9762A3.4739,3.4739,0,0,0,246.9,392.7277Z"/><path class="cls-2" d="M259.9585,393.129a7.5851,7.5851,0,0,1,1.0383,4.5234h-7.691a4.8532,4.8532,0,0,0,1.0911,2.94,3.0427,3.0427,0,0,0,2.3937,1.1172,3.5172,3.5172,0,0,0,1.6367-.3905,3.8459,3.8459,0,0,0,1.3024-1.1064l.6688.8245a4.7165,4.7165,0,0,1-1.61,1.3775,4.4274,4.4274,0,0,1-2.0678.4881,4.0385,4.0385,0,0,1-2.3761-.7269,4.8458,4.8458,0,0,1-1.6279-2.0284,7.7577,7.7577,0,0,1,0-5.9332,4.84,4.84,0,0,1,1.6279-2.0395,3.9853,3.9853,0,0,1,2.3407-.7266A3.6967,3.6967,0,0,1,259.9585,393.129Zm-.0179,3.3951a4.6832,4.6832,0,0,0-.9589-2.831,2.8175,2.8175,0,0,0-2.2794-1.0522,2.9659,2.9659,0,0,0-2.3231,1.063,4.7189,4.7189,0,0,0-1.0735,2.82Z"/><path class="cls-2" d="M275.27,392.1744a4.8607,4.8607,0,0,1,1.6543,2.0284,6.9908,6.9908,0,0,1,.5984,2.95,7.1167,7.1167,0,0,1-.5984,2.983,4.8427,4.8427,0,0,1-1.6543,2.0392,4.3042,4.3042,0,0,1-4.7871,0,4.8406,4.8406,0,0,1-1.6543-2.0392,7.1123,7.1123,0,0,1-.5984-2.983,6.9865,6.9865,0,0,1,.5984-2.95,4.8585,4.8585,0,0,1,1.6543-2.0284,4.3056,4.3056,0,0,1,4.7871,0ZM271.081,393.27a3.68,3.68,0,0,0-1.232,1.5837,6.4021,6.4021,0,0,0,0,4.6643,3.6729,3.6729,0,0,0,1.232,1.5837,3.1383,3.1383,0,0,0,3.59,0,3.6708,3.6708,0,0,0,1.232-1.5837,6.4021,6.4021,0,0,0,0-4.6643,3.6775,3.6775,0,0,0-1.232-1.5837,3.1383,3.1383,0,0,0-3.59,0Z"/><path class="cls-2" d="M282.3359,388.5189a2.6026,2.6026,0,0,0-.5014,1.67v1.6055h2.71v1.15h-2.71v9.9143h-1.1793v-9.9143H279.476v-1.15h1.1793v-1.432a4.78,4.78,0,0,1,.3871-1.985,3.1216,3.1216,0,0,1,1.0383-1.3126,2.4081,2.4081,0,0,1,1.4081-.4555,2.8052,2.8052,0,0,1,1.6192.5207l-.2992,1.1713a2.2634,2.2634,0,0,0-1.232-.4121A1.5309,1.5309,0,0,0,282.3359,388.5189Z"/><path class="cls-2" d="M300.2166,388.6925a6.818,6.818,0,0,1,2.2879,2.7445,9.26,9.26,0,0,1,0,7.69,6.8018,6.8018,0,0,1-2.2967,2.7335,5.6125,5.6125,0,0,1-3.2383.998h-4.91V387.6947h4.9454A5.5477,5.5477,0,0,1,300.2166,388.6925Zm-.6248,11.9971a5.6881,5.6881,0,0,0,1.8392-2.2454,7.6717,7.6717,0,0,0-.0088-6.324,5.7114,5.7114,0,0,0-1.8568-2.2561,4.38,4.38,0,0,0-2.5783-.8245h-3.7134v12.4742H297.04A4.3129,4.3129,0,0,0,299.5918,400.69Z"/><path class="cls-2" d="M313.1086,393.129a7.5851,7.5851,0,0,1,1.0383,4.5234h-7.691a4.8532,4.8532,0,0,0,1.0911,2.94,3.0427,3.0427,0,0,0,2.3937,1.1172,3.5172,3.5172,0,0,0,1.6367-.3905,3.8459,3.8459,0,0,0,1.3024-1.1064l.6688.8245a4.7165,4.7165,0,0,1-1.61,1.3775,4.4274,4.4274,0,0,1-2.0678.4881,4.0385,4.0385,0,0,1-2.3761-.7269,4.8458,4.8458,0,0,1-1.6279-2.0284,7.7577,7.7577,0,0,1,0-5.9332,4.84,4.84,0,0,1,1.6279-2.0395,3.9853,3.9853,0,0,1,2.3407-.7266A3.6967,3.6967,0,0,1,313.1086,393.129Zm-.0179,3.3951a4.6832,4.6832,0,0,0-.9589-2.831,2.8175,2.8175,0,0,0-2.2794-1.0522,2.9659,2.9659,0,0,0-2.3231,1.063,4.7189,4.7189,0,0,0-1.0735,2.82Z"/><path class="cls-2" d="M320.7111,392.7277a2.9909,2.9909,0,0,0-1.7777.5641,3.6859,3.6859,0,0,0-1.232,1.5726,5.7319,5.7319,0,0,0-.44,2.3106,5.8094,5.8094,0,0,0,.44,2.3214,3.6763,3.6763,0,0,0,1.232,1.5837,2.9906,2.9906,0,0,0,1.7777.5638,3.43,3.43,0,0,0,2.9039-1.5185l.6688.8679a4.2514,4.2514,0,0,1-3.6257,1.909,4.01,4.01,0,0,1-2.3582-.7269,4.8337,4.8337,0,0,1-1.6279-2.0392,7.7306,7.7306,0,0,1,0-5.9224,4.84,4.84,0,0,1,1.6279-2.0395,4.0141,4.0141,0,0,1,2.3582-.7266,4.4146,4.4146,0,0,1,1.9626.4339,4.4607,4.4607,0,0,1,1.5222,1.2147l-.6688.9762A3.4739,3.4739,0,0,0,320.7111,392.7277Z"/><path class="cls-2" d="M332.9956,392.1744a4.8607,4.8607,0,0,1,1.6543,2.0284,6.9908,6.9908,0,0,1,.5984,2.95,7.1167,7.1167,0,0,1-.5984,2.983,4.8427,4.8427,0,0,1-1.6543,2.0392,4.3042,4.3042,0,0,1-4.7871,0,4.8406,4.8406,0,0,1-1.6543-2.0392,7.1123,7.1123,0,0,1-.5984-2.983,6.9865,6.9865,0,0,1,.5984-2.95,4.8585,4.8585,0,0,1,1.6543-2.0284,4.3056,4.3056,0,0,1,4.7871,0Zm-4.1887,1.0956a3.68,3.68,0,0,0-1.232,1.5837,6.4021,6.4021,0,0,0,0,4.6643,3.6729,3.6729,0,0,0,1.232,1.5837,3.1383,3.1383,0,0,0,3.59,0,3.6708,3.6708,0,0,0,1.232-1.5837,6.4021,6.4021,0,0,0,0-4.6643,3.6775,3.6775,0,0,0-1.232-1.5837,3.1383,3.1383,0,0,0-3.59,0Z"/><path class="cls-2" d="M340.6778,392.1528a3.2766,3.2766,0,0,1,2.05-.7051v1.3667a2.84,2.84,0,0,0-2.3495,1.0522,4.9815,4.9815,0,0,0-1.0119,2.9178v6.0744h-1.1793V391.4912h1.1793v2.6467A4.2805,4.2805,0,0,1,340.6778,392.1528Z"/><path class="cls-2" d="M350.4015,402.859l-.0176-1.909a3.6385,3.6385,0,0,1-1.4254,1.4859,4.1019,4.1019,0,0,1-2.0239.4881,3.0422,3.0422,0,0,1-1.6458-.4447,2.9614,2.9614,0,0,1-1.1-1.2255,3.9039,3.9039,0,0,1-.3871-1.7573,2.9907,2.9907,0,0,1,.924-2.3214,3.6231,3.6231,0,0,1,2.5432-.846h3.0973v-.8679a3.0455,3.0455,0,0,0-.6512-2.0826,2.4024,2.4024,0,0,0-1.9008-.7377,4.4606,4.4606,0,0,0-2.9743,1.3667l-.5281-.998a7.5218,7.5218,0,0,1,1.7777-1.1824,4.6835,4.6835,0,0,1,1.9359-.3795,3.28,3.28,0,0,1,2.5871,1.03,4.2143,4.2143,0,0,1,.9328,2.8529l.0176,7.528Zm-1.17-1.8548a3.52,3.52,0,0,0,1.1526-1.985V397.457H347.41a2.9382,2.9382,0,0,0-1.848.4992,1.79,1.79,0,0,0-.6336,1.4969,2.237,2.237,0,0,0,.6072,1.6379,2.1555,2.1555,0,0,0,1.61.6183A3.1671,3.1671,0,0,0,349.2313,401.0041Z"/><path class="cls-2" d="M359.8,402.0779a3.3232,3.3232,0,0,1-2.0417.846,1.9954,1.9954,0,0,1-1.6719-.8026,3.9221,3.9221,0,0,1-.616-2.4079v-6.7687h-1.32l-.0176-1.1282H355.47v-2.9286h1.1793v2.9286l2.9918-.0216v1.15h-2.9918v6.53q0,2.1046,1.2672,2.1044a2.6528,2.6528,0,0,0,1.5312-.6075Z"/><path class="cls-2" d="M363.5481,387.4885a1.1458,1.1458,0,0,1,.2289.7266,1.1606,1.1606,0,0,1-.2377.7377.7062.7062,0,0,1-.572.3038.7213.7213,0,0,1-.59-.3038,1.16,1.16,0,0,1-.2374-.7377,1.1167,1.1167,0,0,1,.2374-.7266.73.73,0,0,1,.59-.293A.7068.7068,0,0,1,363.5481,387.4885Zm-1.1793,4.0026h1.1793V402.859h-1.1793Z"/><path class="cls-2" d="M373.5095,392.1744a4.8607,4.8607,0,0,1,1.6543,2.0284,6.9908,6.9908,0,0,1,.5984,2.95,7.1167,7.1167,0,0,1-.5984,2.983,4.8427,4.8427,0,0,1-1.6543,2.0392,4.3042,4.3042,0,0,1-4.7871,0,4.8406,4.8406,0,0,1-1.6543-2.0392,7.1123,7.1123,0,0,1-.5984-2.983,6.9865,6.9865,0,0,1,.5984-2.95,4.8585,4.8585,0,0,1,1.6543-2.0284,4.3056,4.3056,0,0,1,4.7871,0Zm-4.1887,1.0956a3.68,3.68,0,0,0-1.232,1.5837,6.4021,6.4021,0,0,0,0,4.6643,3.6729,3.6729,0,0,0,1.232,1.5837,3.1383,3.1383,0,0,0,3.59,0,3.6708,3.6708,0,0,0,1.232-1.5837,6.4021,6.4021,0,0,0,0-4.6643,3.6775,3.6775,0,0,0-1.232-1.5837,3.1383,3.1383,0,0,0-3.59,0Z"/><path class="cls-2" d="M386.1192,392.63a5.072,5.072,0,0,1,.9416,3.2431v6.9857H385.864V396.22a3.9542,3.9542,0,0,0-.7215-2.5165,2.4164,2.4164,0,0,0-2.0063-.9113,2.8349,2.8349,0,0,0-2.2791,1.0848,5.012,5.012,0,0,0-.9768,2.8636v6.1178H378.701V391.4912H379.88v2.6467a4.09,4.09,0,0,1,1.3991-1.9958,3.823,3.823,0,0,1,2.244-.6943A3.1363,3.1363,0,0,1,386.1192,392.63Z"/><path class="cls-2" d="M404.22,389.007a5.1845,5.1845,0,0,1,1.25,3.7207,5.5184,5.5184,0,0,1-1.25,3.8617,4.5524,4.5524,0,0,1-3.5375,1.3667h-3.3262v4.9028h-1.2144V387.6947h4.5407A4.6537,4.6537,0,0,1,404.22,389.007Zm-.8713,6.617a3.93,3.93,0,0,0,.9592-2.8529,3.7712,3.7712,0,0,0-.95-2.7769,3.682,3.682,0,0,0-2.7278-.9546h-3.2735v7.5713H400.63A3.6165,3.6165,0,0,0,403.349,395.624Z"/><path class="cls-2" d="M408.2153,386.7616h1.179V402.859h-1.179Z"/><path class="cls-2" d="M419.1619,402.859l-.0176-1.909a3.6385,3.6385,0,0,1-1.4254,1.4859,4.1019,4.1019,0,0,1-2.0239.4881,3.0422,3.0422,0,0,1-1.6458-.4447,2.9614,2.9614,0,0,1-1.1-1.2255,3.9039,3.9039,0,0,1-.3871-1.7573,2.9907,2.9907,0,0,1,.924-2.3214,3.6231,3.6231,0,0,1,2.5432-.846h3.0973v-.8679a3.0455,3.0455,0,0,0-.6512-2.0826,2.4024,2.4024,0,0,0-1.9008-.7377,4.4606,4.4606,0,0,0-2.9743,1.3667l-.5281-.998a7.5218,7.5218,0,0,1,1.7777-1.1824,4.6835,4.6835,0,0,1,1.9359-.3795,3.28,3.28,0,0,1,2.5871,1.03,4.2143,4.2143,0,0,1,.9328,2.8529l.0176,7.528Zm-1.17-1.8548a3.52,3.52,0,0,0,1.1526-1.985V397.457H416.17a2.9382,2.9382,0,0,0-1.848.4992,1.79,1.79,0,0,0-.6336,1.4969,2.237,2.237,0,0,0,.6072,1.6379,2.1555,2.1555,0,0,0,1.61.6183A3.1671,3.1671,0,0,0,417.9917,401.0041Z"/><path class="cls-2" d="M431.3318,392.63a5.072,5.072,0,0,1,.9416,3.2431v6.9857h-1.1968V396.22a3.9542,3.9542,0,0,0-.7215-2.5165,2.4164,2.4164,0,0,0-2.0063-.9113,2.8349,2.8349,0,0,0-2.2791,1.0848,5.012,5.012,0,0,0-.9768,2.8636v6.1178h-1.1793V391.4912h1.1793v2.6467a4.09,4.09,0,0,1,1.3991-1.9958,3.823,3.823,0,0,1,2.244-.6943A3.1363,3.1363,0,0,1,431.3318,392.63Z"/><path class="cls-2" d="M440.51,402.0779a3.3232,3.3232,0,0,1-2.0417.846,1.9954,1.9954,0,0,1-1.6719-.8026,3.9221,3.9221,0,0,1-.616-2.4079v-6.7687h-1.32l-.0176-1.1282H436.18v-2.9286h1.1793v2.9286l2.9918-.0216v1.15h-2.9918v6.53q0,2.1046,1.2672,2.1044a2.6528,2.6528,0,0,0,1.5312-.6075Z"/><path class="cls-2" d="M446.6693,392.8687a3.8766,3.8766,0,0,0-1.2848-.2277,2.2222,2.2222,0,0,0-1.4167.4232,1.5167,1.5167,0,0,0-.5369,1.2689,1.4985,1.4985,0,0,0,.29.9546,2.23,2.23,0,0,0,.7218.5967,10.0231,10.0231,0,0,0,1.2054.51,10.778,10.778,0,0,1,1.5488.6835,2.9682,2.9682,0,0,1,1.0207.9762,3.005,3.005,0,0,1,.4226,1.6813,2.9282,2.9282,0,0,1-.95,2.354,3.5262,3.5262,0,0,1-2.3761.8134,4.74,4.74,0,0,1-1.9359-.4121,4.236,4.236,0,0,1-1.5664-1.1716l.4753-1.0414a4.4272,4.4272,0,0,0,1.4167,1.0633,3.83,3.83,0,0,0,1.6631.39,2.3428,2.3428,0,0,0,1.5224-.477,1.9273,1.9273,0,0,0,.29-2.4189,2.118,2.118,0,0,0-.7479-.6293q-.4488-.2276-1.2408-.5315a11.0053,11.0053,0,0,1-1.5136-.6724,2.8331,2.8331,0,0,1-.9856-.9436,2.9045,2.9045,0,0,1-.4047-1.6163,2.7756,2.7756,0,0,1,.9064-2.2561,3.4011,3.4011,0,0,1,2.2615-.76,4.67,4.67,0,0,1,2.8509.9762l-.4575,1.1067A4.109,4.109,0,0,0,446.6693,392.8687Z"/><path class="cls-1" d="M49.8224,341.83H26.6906a3.5587,3.5587,0,0,0,0,7.1175H45.9385a19.5743,19.5743,0,1,1-5.6843-17.67,3.5587,3.5587,0,0,0,4.9329-5.1306,26.69,26.69,0,1,0,8.1941,19.2422A3.5587,3.5587,0,0,0,49.8224,341.83Z"/><path class="cls-3" d="M101.431,338.2716a16.904,16.904,0,1,0,11.7145,29.0907,3.5587,3.5587,0,0,0-4.9329-5.1306,9.7881,9.7881,0,1,1,2.3322-10.6147H101.431a3.5587,3.5587,0,1,0,0,7.1175h13.3453a3.5587,3.5587,0,0,0,3.5587-3.5587A16.9233,16.9233,0,0,0,101.431,338.2716Z"/><path class="cls-3" d="M140.5805,338.2716a16.904,16.904,0,1,0,11.7145,29.0907,3.5587,3.5587,0,0,0-4.9329-5.1306,9.7881,9.7881,0,1,1,2.3322-10.6147h-9.1138a3.5587,3.5587,0,1,0,0,7.1175h13.3453a3.5587,3.5587,0,0,0,3.5587-3.5587A16.9233,16.9233,0,0,0,140.5805,338.2716Z"/><path class="cls-3" d="M75.6267,338.2716a16.8111,16.8111,0,0,0-9.8122,3.1471,3.5578,3.5578,0,0,0-7.0919.4116V368.521a3.5587,3.5587,0,1,0,7.1175,0V355.1757a9.7976,9.7976,0,0,1,9.7865-9.7865,3.5587,3.5587,0,1,0,0-7.1175Z"/><path class="cls-3" d="M179.73,338.2716a16.8111,16.8111,0,0,0-9.8122,3.1471,3.5578,3.5578,0,0,0-7.0919.4116V368.521a3.5587,3.5587,0,0,0,7.1175,0V355.1757a9.7865,9.7865,0,1,1,19.5731,0V368.521a3.5587,3.5587,0,0,0,7.1175,0V355.1757A16.9233,16.9233,0,0,0,179.73,338.2716Z"/><path class="cls-3" d="M392.5871,338.2716a16.904,16.904,0,1,0,11.7145,29.0907,3.5587,3.5587,0,0,0-4.9329-5.1306,9.7881,9.7881,0,1,1,2.3322-10.6147h-9.1138a3.5587,3.5587,0,1,0,0,7.1175h13.3453a3.5587,3.5587,0,0,0,3.5587-3.5587A16.9233,16.9233,0,0,0,392.5871,338.2716Z"/><path class="cls-1" d="M262.6795,341.83H239.5477a3.5587,3.5587,0,0,0,0,7.1175h19.2479a19.5741,19.5741,0,1,1-5.6842-17.67,3.5587,3.5587,0,0,0,4.9329-5.1306,26.6906,26.6906,0,1,0,8.194,19.2422A3.5587,3.5587,0,0,0,262.6795,341.83Z"/><path class="cls-3" d="M366.7829,318.6986a3.5587,3.5587,0,0,0-3.5587,3.5587V341.4a16.9043,16.9043,0,1,0,.0256,27.5326,3.5578,3.5578,0,0,0,7.0919-.4116V322.2573A3.5587,3.5587,0,0,0,366.7829,318.6986Zm-13.3453,46.2637a9.7865,9.7865,0,1,1,9.7865-9.7865A9.7976,9.7976,0,0,1,353.4376,364.9622Z"/><path class="cls-3" d="M327.6333,338.2716a16.8111,16.8111,0,0,0-9.8122,3.1471,3.5578,3.5578,0,0,0-7.0919.4116V368.521a3.5587,3.5587,0,1,0,7.1175,0V355.1757a9.7976,9.7976,0,0,1,9.7865-9.7865,3.5587,3.5587,0,0,0,0-7.1175Z"/><path class="cls-3" d="M431.7367,338.2716a16.8111,16.8111,0,0,0-9.8122,3.1471,3.5578,3.5578,0,0,0-7.0919.4116V368.521a3.5587,3.5587,0,1,0,7.1175,0V355.1757a9.7865,9.7865,0,0,1,19.5731,0V368.521a3.5587,3.5587,0,1,0,7.1175,0V355.1757A16.9233,16.9233,0,0,0,431.7367,338.2716Z"/><path class="cls-3" d="M301.829,338.2716a3.5579,3.5579,0,0,0-3.5331,3.1471,16.904,16.904,0,1,0,0,27.5138,3.5578,3.5578,0,0,0,7.0919-.4116V341.83A3.5587,3.5587,0,0,0,301.829,338.2716Zm-13.3453,26.6906a9.7865,9.7865,0,1,1,9.7865-9.7865A9.7976,9.7976,0,0,1,288.4838,364.9622Z"/></svg>