<?xml version="1.0" encoding="utf-8"?>
<!-- Generator: Adobe Illustrator 24.1.1, SVG Export Plug-In . SVG Version: 6.00 Build 0)  -->
<svg version="1.1" id="Layer_1" xmlns="http://www.w3.org/2000/svg" xmlns:xlink="http://www.w3.org/1999/xlink" x="0px" y="0px"
	 viewBox="0 0 293.2064 78.6008" style="enable-background:new 0 0 293.2064 78.6008;" xml:space="preserve">
<style type="text/css">
	.st0{fill:#00A05D;}
	.st1{fill:#404041;}
	.st2{fill:#6D6E70;}
</style>
<g>
	<g>
		<path class="st0" d="M81.132,46.2597c-0.5701,0.3955-1.1156,1.1048-1.5512,1.7825c0.4054-1.4556,0.7023-2.9213,0.9005-4.3866
			c0.7339-0.0951,2.2684-0.4213,3.8361-1.5379c1.7417-1.2396,2.0185-3.8412,2.0185-3.8412s-2.9119,0.0532-4.4828,1.6077
			c-0.4733,0.4692-0.8723,1.2252-1.175,1.9406c0.1234-1.539,0.1416-3.0726,0.0652-4.5885c0.6695-0.203,2.1363-0.7733,3.4959-2.1542
			c1.4685-1.4924,1.2926-4.0506,1.2926-4.0506s-2.8011,0.547-4.051,2.3141c-0.415,0.5869-0.6841,1.4932-0.8531,2.2937
			c-0.1542-1.6337-0.4158-3.2412-0.7709-4.8067c0.5772-0.2833,1.9546-1.0834,3.0723-2.7071
			c1.1648-1.6898,0.5619-4.1288,0.5619-4.1288s-2.6124,1.0041-3.5194,2.923c-0.3304,0.7012-0.4245,1.745-0.4379,2.5957
			c-0.4423-1.6747-0.9904-3.2942-1.6266-4.8384c0.5111-0.3733,1.7025-1.3792,2.5036-3.1337
			c0.8349-1.8291-0.1624-4.0806-0.1624-4.0806s-2.3488,1.4138-2.8972,3.4201c-0.197,0.7196-0.1173,1.7198,0.0103,2.5353
			c-0.7241-1.5904-1.5415-3.0897-2.4311-4.4738c0.4479-0.4768,1.3808-1.634,1.8416-3.4069c0.4949-1.908-0.8502-3.9111-0.8502-3.9111
			s-2.0283,1.7649-2.2154,3.7944c-0.0627,0.6791,0.1485,1.5531,0.3899,2.2888c-0.9839-1.3848-2.0411-2.6328-3.1466-3.7154
			c0.3322-0.4907,1.0941-1.8002,1.2425-3.6696c0.154-1.9259-1.488-3.6304-1.488-3.6304s-1.6553,2.0483-1.4904,4.0391
			c0.0651,0.7905,0.5492,1.78,0.9647,2.5008c-1.3489-1.3112-2.686-2.4269-3.9676-3.375c0.2173-0.4645,0.7918-1.9051,0.6085-3.8264
			c-0.1801-1.8839-2.0526-3.25-2.0526-3.25s-1.2499,2.2586-0.7523,4.1516c0.2166,0.8266,0.9637,1.7994,1.5092,2.4284
			c-1.6732-1.1797-3.2347-2.0734-4.5813-2.7446c0.1236-0.4444,0.461-1.961-0.0562-3.8303C60.3932,0.9989,58.3519,0,58.3519,0
			s-0.8204,2.3921-0.0184,4.1348c0.3727,0.811,1.356,1.6798,1.9922,2.1842c-0.9609-0.454-1.7917-0.7888-2.4475-1.031
			c-0.2826-0.3861-1.2597-1.6072-2.5007-1.8913c-1.0549-0.2392-2.8815,0.3468-2.8815,0.3468s0.7924,1.2159,2.4927,1.9062
			c1.2225,0.4971,2.6477-0.0959,2.9243-0.2212c0.8538,0.3532,1.9947,0.863,3.3265,1.5872c-0.6386-0.1559-2.345-0.5185-3.4028-0.236
			c-1.8501,0.4964-3.1672,2.6559-3.1672,2.6559s2.0733,0.9303,3.7637,0.1669c1.8837-0.8482,2.8376-2.1854,3.0236-2.4677
			c1.4025,0.7755,3.0039,1.7848,4.6968,3.0939c-0.7421-0.307-2.131-0.8089-3.105-0.7237c-1.9495,0.1695-3.6546,2.107-3.6546,2.107
			s1.9184,1.3021,3.7522,0.8345c1.9219-0.488,3.0949-1.5562,3.4249-1.8899c1.2661,1.0076,2.5771,2.1819,3.8893,3.5511
			c0.1018,0.1004,0.203,0.2025,0.3039,0.3058c-0.6947-0.4412-1.9898-1.1819-2.9774-1.2683
			c-1.9895-0.1759-4.0469,1.4706-4.0469,1.4706s1.6978,1.6479,3.6252,1.5031c2.0345-0.1513,3.4096-1.0318,3.7859-1.3003
			c1.2349,1.324,2.3959,2.8593,3.4456,4.5609c-0.6237-0.5684-1.7827-1.5285-2.7507-1.7883
			c-1.969-0.5283-4.3258,0.7614-4.3258,0.7614s1.4115,1.9564,3.3738,2.1528c2.0294,0.2042,3.5457-0.4071,4.0067-0.623
			c0.8809,1.486,1.6772,3.091,2.3655,4.7869c-0.5558-0.6788-1.3859-1.5694-2.1691-1.9347c-1.8838-0.88-4.481-0.0013-4.481-0.0013
			s1.0713,2.2163,3.0075,2.7606c1.8587,0.5244,3.3967,0.2647,4.0098,0.1162c0.589,1.5709,1.0852,3.2124,1.4708,4.9036
			c-0.4374-0.7513-1.0626-1.6684-1.7266-2.133c-1.736-1.2175-4.5021-0.7952-4.5021-0.7952s0.684,2.4169,2.5339,3.3072
			c1.7222,0.8308,3.272,0.8666,3.9498,0.831c0.3243,1.6726,0.5393,3.3875,0.6285,5.1253c-0.3058-0.84-0.7776-1.8992-1.3734-2.4945
			c-1.5285-1.5318-4.3838-1.5973-4.3838-1.5973s0.2593,2.5503,1.961,3.7727c1.5947,1.1487,3.1585,1.4556,3.8377,1.5372
			c0.0287,1.6886-0.0636,3.3942-0.2919,5.0989c-0.1578-0.9021-0.4451-2.0654-0.942-2.7758
			c-1.267-1.8111-4.1229-2.3821-4.1229-2.3821s-0.1906,2.609,1.3016,4.139c1.3955,1.4323,2.908,2.0187,3.5792,2.2229
			c-0.2619,1.5219-0.6354,3.0398-1.1304,4.541c-0.0146-0.8896-0.1141-1.9591-0.4533-2.6852
			c-0.9509-2.0435-3.7204-3.124-3.7204-3.124s-0.6537,2.588,0.5728,4.3886c1.1158,1.6382,2.4825,2.4938,3.1455,2.8389
			c-0.5153,1.5002-1.139,2.9394-1.8539,4.314c0.148-0.9058,0.2457-2.0247,0.0305-2.8296c-0.5956-2.222-3.1873-3.7988-3.1873-3.7988
			s-1.1151,2.4848-0.1999,4.5124c0.827,1.8367,2.0425,2.9372,2.6495,3.4043c-0.7493,1.2953-1.5798,2.5283-2.4762,3.6954
			c0.2759-0.8368,0.5142-1.8216,0.4466-2.5917c-0.2027-2.3379-2.5282-4.3812-2.5282-4.3812s-1.5622,2.2989-1.0017,4.4987
			c0.4865,1.9147,1.4541,3.2095,1.997,3.8196c-0.9378,1.1054-1.9342,2.1445-2.9743,3.1138
			c0.3951-0.7579,0.7612-1.6331,0.8258-2.3668c0.2077-2.3853-1.7662-4.8504-1.7662-4.8504s-1.976,2.0335-1.8035,4.3431
			c0.1465,1.9707,0.8632,3.4249,1.3034,4.1497c-1.0927,0.9189-2.2231,1.7643-3.3757,2.5324
			c0.5161-0.6794,1.0159-1.4702,1.2049-2.1769c0.6339-2.36-0.9152-5.1874-0.9152-5.1874s-2.3448,1.6939-2.5818,4.0449
			c-0.2007,2.0033,0.2607,3.5899,0.5749,4.3976c-1.2821,0.757-2.5812,1.4191-3.8769,1.9816
			c0.6821-0.6148,1.3947-1.3727,1.7321-2.0969c1.0537-2.2607,0.0002-5.3758,0.0002-5.3758s-2.6585,1.2861-3.3119,3.6078
			c-0.5679,2.0175-0.3666,3.7216-0.1913,4.5726c-1.3536,0.4942-2.6926,0.8757-3.9933,1.1393
			c0.7555-0.4839,1.5399-1.0863,1.9819-1.7177c1.4589-2.0842,0.9522-5.4016,0.9522-5.4016s-2.8984,0.821-3.9669,3.0385
			c-0.8664,1.7983-1.011,3.441-1.0059,4.3726c-1.8818,0.2512-3.5975,0.6349-5.1398,1.0913
			c-0.6878,0.202-1.6576,0.5421-2.3484,0.7912c-0.6908-0.2491-1.6606-0.5892-2.3484-0.7912c-1.5424-0.4563-3.258-0.84-5.1398-1.0913
			c0.0051-0.9316-0.1395-2.5743-1.0059-4.3726c-1.0685-2.2174-3.9669-3.0385-3.9669-3.0385s-0.5067,3.3174,0.9522,5.4016
			c0.442,0.6314,1.2264,1.2338,1.9819,1.7177c-1.3007-0.2636-2.6398-0.6451-3.9933-1.1393c0.1753-0.851,0.3766-2.5552-0.1913-4.5726
			c-0.6535-2.3218-3.3119-3.6078-3.3119-3.6078s-1.0536,3.1152,0.0002,5.3758c0.3373,0.7242,1.05,1.4821,1.7321,2.0969
			c-1.2956-0.5624-2.5948-1.2246-3.8769-1.9816c0.3142-0.8077,0.7755-2.3942,0.5749-4.3976
			c-0.2369-2.3511-2.5817-4.0449-2.5817-4.0449s-1.5492,2.8274-0.9152,5.1874c0.189,0.7068,0.6888,1.4975,1.2049,2.1769
			c-1.1526-0.7681-2.2831-1.6135-3.3757-2.5324c0.4402-0.7248,1.1568-2.179,1.3034-4.1497
			c0.1724-2.3096-1.8035-4.3431-1.8035-4.3431s-1.9739,2.4651-1.7662,4.8504c0.0646,0.7338,0.4306,1.6089,0.8258,2.3668
			c-1.0401-0.9693-2.0365-2.0084-2.9743-3.1138c0.5429-0.6101,1.5105-1.9049,1.997-3.8196
			c0.5605-2.1998-1.0017-4.4987-1.0017-4.4987s-2.3254,2.0433-2.5282,4.3812c-0.0676,0.7701,0.1707,1.7549,0.4466,2.5917
			c-0.8963-1.1671-1.7268-2.4001-2.4762-3.6954c0.607-0.4671,1.8225-1.5675,2.6495-3.4043
			c0.9151-2.0276-0.1999-4.5124-0.1999-4.5124s-2.5917,1.5768-3.1874,3.7988c-0.2152,0.8048-0.1175,1.9238,0.0305,2.8296
			c-0.7149-1.3746-1.3386-2.8138-1.8539-4.314c0.663-0.3452,2.0297-1.2007,3.1455-2.8389c1.2265-1.8006,0.5728-4.3886,0.5728-4.3886
			s-2.7695,1.0805-3.7204,3.124c-0.3391,0.7261-0.4387,1.7956-0.4533,2.6852c-0.4951-1.5012-0.8685-3.0191-1.1304-4.541
			c0.6712-0.2042,2.1838-0.7906,3.5792-2.2229c1.4922-1.53,1.3016-4.139,1.3016-4.139s-2.8559,0.5711-4.1229,2.3821
			c-0.497,0.7103-0.7842,1.8737-0.942,2.7758c-0.2283-1.7047-0.3206-3.4103-0.2919-5.0989
			c0.6792-0.0816,2.2429-0.3885,3.8377-1.5372c1.7018-1.2223,1.961-3.7727,1.961-3.7727s-2.8553,0.0654-4.3838,1.5973
			c-0.5958,0.5953-1.0676,1.6545-1.3734,2.4945c0.0892-1.7377,0.3042-3.4527,0.6285-5.1253
			c0.6778,0.0356,2.2276-0.0002,3.9498-0.831c1.85-0.8904,2.5339-3.3072,2.5339-3.3072s-2.7661-0.4223-4.5021,0.7952
			c-0.664,0.4646-1.2892,1.3817-1.7266,2.133c0.3856-1.6912,0.8818-3.3327,1.4708-4.9036c0.6132,0.1485,2.1512,0.4082,4.0098-0.1162
			c1.9363-0.5443,3.0075-2.7606,3.0075-2.7606s-2.5973-0.8787-4.481,0.0013c-0.7832,0.3652-1.6133,1.2559-2.1691,1.9347
			c0.6883-1.6959,1.4847-3.3009,2.3656-4.7869c0.461,0.216,1.9773,0.8272,4.0067,0.623c1.9623-0.1964,3.3738-2.1528,3.3738-2.1528
			s-2.3567-1.2897-4.3258-0.7614c-0.9681,0.2598-2.127,1.2199-2.7507,1.7883c1.0497-1.7016,2.2107-3.2368,3.4456-4.5609
			c0.3763,0.2685,1.7514,1.149,3.7859,1.3003c1.9274,0.1447,3.6252-1.5031,3.6252-1.5031s-2.0574-1.6465-4.0469-1.4706
			c-0.9876,0.0864-2.2827,0.8271-2.9774,1.2683c0.1009-0.1033,0.2021-0.2054,0.3039-0.3058
			c1.3123-1.3692,2.6233-2.5435,3.8894-3.5511c0.33,0.3337,1.503,1.4019,3.4249,1.8899c1.8337,0.4677,3.7521-0.8345,3.7521-0.8345
			s-1.7051-1.9375-3.6546-2.107c-0.974-0.0852-2.363,0.4167-3.105,0.7237c1.6929-1.3091,3.2942-2.3185,4.6968-3.0939
			c0.186,0.2822,1.1399,1.6194,3.0236,2.4677c1.6904,0.7634,3.7637-0.1669,3.7637-0.1669s-1.3171-2.1595-3.1672-2.6559
			c-1.0578-0.2825-2.7641,0.0801-3.4028,0.236c1.3318-0.7242,2.4727-1.234,3.3265-1.5872c0.2765,0.1254,1.7018,0.7183,2.9242,0.2212
			C33.0476,4.9594,33.84,3.7435,33.84,3.7435s-1.8266-0.586-2.8815-0.3468c-1.241,0.2841-2.218,1.5052-2.5007,1.8913
			c-0.6558,0.2422-1.4866,0.577-2.4475,1.031c0.6362-0.5044,1.6195-1.3731,1.9922-2.1842C28.8045,2.3921,27.9841,0,27.9841,0
			S25.9428,0.9989,25.45,2.7878c-0.5172,1.8693-0.1798,3.3859-0.0562,3.8303c-1.3467,0.6712-2.9082,1.565-4.5813,2.7446
			c0.5454-0.629,1.2926-1.6018,1.5092-2.4284c0.4976-1.8931-0.7523-4.1516-0.7523-4.1516s-1.8725,1.3661-2.0525,3.25
			c-0.1833,1.9213,0.3912,3.3619,0.6085,3.8264c-1.2817,0.9481-2.6187,2.0638-3.9676,3.375
			c0.4155-0.7209,0.8996-1.7103,0.9647-2.5008c0.165-1.9908-1.4904-4.0391-1.4904-4.0391s-1.642,1.7045-1.488,3.6304
			c0.1484,1.8694,0.9104,3.1789,1.2425,3.6696c-1.1056,1.0826-2.1627,2.3306-3.1466,3.7154
			c0.2414-0.7357,0.4527-1.6097,0.3899-2.2888c-0.1871-2.0295-2.2154-3.7944-2.2154-3.7944s-1.3452,2.0031-0.8502,3.9111
			c0.4608,1.7729,1.3937,2.9301,1.8416,3.4069c-0.8896,1.3841-1.707,2.8834-2.4311,4.4738
			c0.1276-0.8155,0.2072-1.8157,0.0102-2.5353c-0.5483-2.0063-2.8972-3.4201-2.8972-3.4201s-0.9974,2.2516-0.1624,4.0806
			c0.8011,1.7544,1.9926,2.7604,2.5036,3.1337c-0.6362,1.5442-1.1844,3.1638-1.6266,4.8384
			c-0.0133-0.8507-0.1074-1.8945-0.4379-2.5957c-0.9071-1.9189-3.5194-2.923-3.5194-2.923s-0.6029,2.439,0.5619,4.1288
			c1.1177,1.6237,2.4951,2.4238,3.0723,2.7071c-0.3551,1.5655-0.6167,3.173-0.7709,4.8067
			c-0.1691-0.8005-0.4382-1.7068-0.8531-2.2937c-1.2499-1.7672-4.051-2.3141-4.051-2.3141s-0.1759,2.5581,1.2926,4.0506
			c1.3597,1.3809,2.8264,1.9511,3.4959,2.1542c-0.0764,1.5159-0.0582,3.0495,0.0651,4.5885
			c-0.3027-0.7154-0.7016-1.4714-1.175-1.9406C2.9119,38.3296,0,38.2765,0,38.2765s0.2769,2.6017,2.0185,3.8412
			c1.5677,1.1166,3.1022,1.4427,3.8361,1.5379c0.1982,1.4653,0.4951,2.931,0.9005,4.3866c-0.4356-0.6777-0.9811-1.387-1.5512-1.7825
			c-1.8548-1.2845-4.7896-0.8213-4.7896-0.8213s0.7401,2.5649,2.708,3.5023c1.7988,0.8565,3.4199,0.9013,4.1608,0.8637
			c0.419,1.3868,0.9288,2.7267,1.5174,4.0166c-0.538-0.57-1.1719-1.1342-1.7788-1.414c-2.0912-0.9612-4.9585,0.0243-4.9585,0.0243
			s1.1973,2.4468,3.3412,3.0395C7.3185,56,8.9239,55.7819,9.6853,55.6141c0.6957,1.3089,1.4726,2.5607,2.3165,3.7517
			c-0.6617-0.5008-1.4361-0.9896-2.1257-1.1707c-2.2706-0.5966-4.9783,0.9025-4.9783,0.9025s1.6375,2.2456,3.8973,2.4613
			c2.0632,0.1969,3.6627-0.3345,4.3751-0.6352c0.9392,1.1845,1.9443,2.3012,2.9996,3.3461
			c-0.771-0.4011-1.6704-0.7773-2.4202-0.8391C11.3624,63.2337,8.9071,65.22,8.9071,65.22s2.0429,1.9669,4.3537,1.783
			c2.125-0.1691,3.6446-0.9985,4.2983-1.424c1.1212,1.0055,2.2877,1.9338,3.4823,2.7808c-0.8427-0.2644-1.8068-0.4803-2.567-0.41
			c-2.4326,0.2251-4.5488,2.6554-4.5488,2.6554s2.4011,1.6149,4.6903,1.0212c2.0827-0.5411,3.4569-1.6262,4.0497-2.1753
			c1.1955,0.7598,2.4106,1.4388,3.6293,2.0334c-0.8184-0.0895-1.697-0.1075-2.3708,0.0764
			c-2.4053,0.6573-4.1011,3.4746-4.1011,3.4746s2.7002,1.1974,4.8952,0.1944c1.9224-0.8783,3.0954-2.1474,3.6248-2.8268
			c1.3052,0.5344,2.604,0.9689,3.8763,1.2982c-0.8213,0.0575-1.682,0.1957-2.3114,0.4931c-2.3007,1.087-3.5049,4.2187-3.5049,4.2187
			s2.9239,0.7242,4.9523-0.6716c1.8421-1.2686,2.8-2.8171,3.1854-3.5671c3.6552,0.4899,8.6191,2.279,8.6273,2.2819l0.0001,0.0001
			l0.0001,0l0.0001,0l0.0001-0.0001c0.0082-0.0029,4.9721-1.792,8.6273-2.2819c0.3854,0.75,1.3432,2.2985,3.1853,3.5671
			c2.0284,1.3958,4.9523,0.6716,4.9523,0.6716s-1.2041-3.1316-3.5049-4.2187c-0.6294-0.2974-1.4901-0.4355-2.3114-0.4931
			c1.2723-0.3293,2.571-0.7638,3.8763-1.2982c0.5293,0.6795,1.7024,1.9485,3.6248,2.8268c2.195,1.0029,4.8952-0.1944,4.8952-0.1944
			s-1.6957-2.8173-4.1011-3.4746c-0.6737-0.1839-1.5524-0.166-2.3707-0.0764c1.2187-0.5946,2.4338-1.2736,3.6293-2.0334
			c0.5928,0.5491,1.967,1.6341,4.0497,2.1753c2.2892,0.5937,4.6903-1.0212,4.6903-1.0212s-2.1162-2.4303-4.5488-2.6554
			c-0.7603-0.0703-1.7243,0.1456-2.567,0.41c1.1946-0.847,2.3611-1.7753,3.4823-2.7808c0.6538,0.4255,2.1734,1.255,4.2983,1.424
			c2.3108,0.1839,4.3537-1.783,4.3537-1.783s-2.4553-1.9863-4.8427-1.7892c-0.7498,0.0617-1.6492,0.4379-2.4202,0.8391
			c1.0553-1.0449,2.0604-2.1617,2.9996-3.3461c0.7124,0.3007,2.3119,0.8321,4.3751,0.6352
			c2.2598-0.2157,3.8974-2.4613,3.8974-2.4613s-2.7077-1.4991-4.9783-0.9025c-0.6896,0.1811-1.4639,0.6699-2.1257,1.1707
			c0.8439-1.1911,1.6207-2.4428,2.3164-3.7517c0.7614,0.1678,2.3668,0.3859,4.2809-0.1432
			c2.1439-0.5927,3.3412-3.0395,3.3412-3.0395s-2.8673-0.9855-4.9585-0.0243c-0.6069,0.2798-1.2408,0.844-1.7788,1.414
			c0.5886-1.2899,1.0983-2.6298,1.5174-4.0166c0.7409,0.0375,2.362-0.0073,4.1608-0.8637c1.9679-0.9374,2.708-3.5023,2.708-3.5023
			S82.9868,44.9753,81.132,46.2597z"/>
		<g>
			<path class="st0" d="M40.2035,37.9509h-8.7717c-0.7453,0-1.3495,0.6042-1.3495,1.3495s0.6042,1.3495,1.3495,1.3495h7.2989
				c-0.6364,3.4505-3.667,6.0727-7.2989,6.0727c-4.0926,0-7.4222-3.3296-7.4222-7.4222s3.3296-7.4222,7.4222-7.4222
				c1.9276,0,3.7543,0.7355,5.1434,2.071c0.5374,0.5166,1.3917,0.4997,1.9081-0.0375c0.5166-0.5373,0.4998-1.3915-0.0375-1.9081
				c-1.8944-1.8214-4.3854-2.8245-7.0139-2.8245c-5.5808,0-10.1212,4.5404-10.1212,10.1212s4.5404,10.1212,10.1212,10.1212
				S41.553,44.8812,41.553,39.3004C41.553,38.5551,40.9488,37.9509,40.2035,37.9509z"/>
			<path class="st0" d="M63.6759,37.9509h-8.7717c-0.7453,0-1.3495,0.6042-1.3495,1.3495s0.6042,1.3495,1.3495,1.3495h7.2989
				c-0.6364,3.4505-3.667,6.0727-7.2989,6.0727c-4.0926,0-7.4222-3.3296-7.4222-7.4222s3.3296-7.4222,7.4222-7.4222
				c1.9276,0,3.7543,0.7355,5.1434,2.071c0.5374,0.5166,1.3917,0.4997,1.9081-0.0375c0.5166-0.5373,0.4998-1.3915-0.0375-1.9081
				c-1.8944-1.8214-4.3854-2.8245-7.0139-2.8245c-5.5808,0-10.1212,4.5404-10.1212,10.1212s4.5404,10.1212,10.1212,10.1212
				s10.1212-4.5404,10.1212-10.1212C65.0254,38.5551,64.4212,37.9509,63.6759,37.9509z"/>
			<circle class="st0" cx="43.168" cy="47.7645" r="1.615"/>
		</g>
	</g>
	<g>
		<g>
			<path class="st0" d="M113.9729,27.0114h-10.3957c-0.8833,0-1.5993,0.716-1.5993,1.5993s0.716,1.5993,1.5993,1.5993h8.6502
				c-0.7543,4.0894-4.3459,7.197-8.6502,7.197c-4.8503,0-8.7964-3.946-8.7964-8.7964s3.946-8.7964,8.7964-8.7964
				c2.2845,0,4.4493,0.8717,6.0956,2.4545c0.6368,0.6122,1.6493,0.5923,2.2613-0.0444c0.6122-0.6368,0.5923-1.6492-0.0444-2.2613
				c-2.2452-2.1586-5.1973-3.3474-8.3125-3.3474c-6.6141,0-11.9951,5.381-11.9951,11.9951s5.381,11.9951,11.9951,11.9951
				c6.6141,0,11.9951-5.381,11.9951-11.9951C115.5722,27.7274,114.8562,27.0114,113.9729,27.0114z"/>
			<path class="st1" d="M137.1663,25.4121c-4.1889,0-7.5969,3.408-7.5969,7.5969s3.408,7.5969,7.5969,7.5969
				c1.973,0,3.8427-0.7529,5.2646-2.1201c0.6368-0.6122,0.6567-1.6246,0.0444-2.2613c-0.6122-0.6368-1.6246-0.6566-2.2613-0.0444
				c-0.8231,0.7913-1.9055,1.2271-3.0477,1.2271c-2.4252,0-4.3982-1.973-4.3982-4.3982s1.973-4.3982,4.3982-4.3982
				c1.861,0,3.4546,1.1624,4.0959,2.7988h-4.0959c-0.8833,0-1.5993,0.716-1.5993,1.5993s0.716,1.5993,1.5993,1.5993h5.9975
				c0.8833,0,1.5993-0.716,1.5993-1.5993C144.7632,28.82,141.3552,25.4121,137.1663,25.4121z"/>
			<path class="st1" d="M154.7606,25.4121c-4.1889,0-7.5969,3.408-7.5969,7.5969s3.408,7.5969,7.5969,7.5969
				c1.973,0,3.8427-0.7529,5.2646-2.1201c0.6368-0.6122,0.6567-1.6246,0.0444-2.2613c-0.6122-0.6368-1.6246-0.6566-2.2613-0.0444
				c-0.8231,0.7913-1.9055,1.2271-3.0477,1.2271c-2.4252,0-4.3982-1.973-4.3982-4.3982s1.973-4.3982,4.3982-4.3982
				c1.861,0,3.4546,1.1624,4.0959,2.7988h-4.0959c-0.8833,0-1.5993,0.716-1.5993,1.5993s0.716,1.5993,1.5993,1.5993h5.9975
				c0.8833,0,1.5993-0.716,1.5993-1.5993C162.3575,28.82,158.9495,25.4121,154.7606,25.4121z"/>
			<path class="st1" d="M125.5696,25.4121c-1.6429,0-3.1656,0.5244-4.4097,1.4143c-0.0918-0.796-0.7672-1.4143-1.5878-1.4143
				c-0.8833,0-1.5993,0.716-1.5993,1.5993v11.9951c0,0.8833,0.716,1.5993,1.5993,1.5993s1.5993-0.716,1.5993-1.5993v-5.9975
				c0-2.4252,1.973-4.3982,4.3982-4.3982c0.8833,0,1.5993-0.716,1.5993-1.5993S126.4529,25.4121,125.5696,25.4121z"/>
			<path class="st1" d="M172.3549,25.4121c-1.6429,0-3.1656,0.5244-4.4097,1.4143c-0.0918-0.796-0.7672-1.4143-1.5878-1.4143
				c-0.8833,0-1.5993,0.716-1.5993,1.5993v11.9951c0,0.8833,0.716,1.5993,1.5993,1.5993c0.8833,0,1.5993-0.716,1.5993-1.5993
				v-5.9975c0-2.4252,1.973-4.3982,4.3982-4.3982s4.3982,1.973,4.3982,4.3982v5.9975c0,0.8833,0.716,1.5993,1.5993,1.5993
				c0.8833,0,1.5993-0.716,1.5993-1.5993v-5.9975C179.9517,28.82,176.5437,25.4121,172.3549,25.4121z"/>
			<path class="st1" d="M268.0153,25.4121c-4.1889,0-7.5969,3.408-7.5969,7.5969s3.408,7.5969,7.5969,7.5969
				c1.973,0,3.8427-0.7529,5.2646-2.1201c0.6368-0.6122,0.6567-1.6246,0.0444-2.2613c-0.6122-0.6368-1.6246-0.6567-2.2613-0.0444
				c-0.8231,0.7913-1.9055,1.2271-3.0477,1.2271c-2.4252,0-4.3982-1.973-4.3982-4.3982s1.973-4.3982,4.3982-4.3982
				c1.861,0,3.4546,1.1624,4.0959,2.7988h-4.0959c-0.8833,0-1.5993,0.716-1.5993,1.5993s0.716,1.5993,1.5993,1.5993h5.9975
				c0.8833,0,1.5993-0.716,1.5993-1.5993C275.6121,28.82,272.2042,25.4121,268.0153,25.4121z"/>
			<path class="st0" d="M209.6333,27.0114h-10.3957c-0.8833,0-1.5993,0.716-1.5993,1.5993s0.716,1.5993,1.5993,1.5993h8.6502
				c-0.7543,4.0894-4.3459,7.197-8.6502,7.197c-4.8503,0-8.7964-3.946-8.7964-8.7964s3.946-8.7964,8.7964-8.7964
				c2.2845,0,4.4494,0.8717,6.0957,2.4545c0.6369,0.6123,1.6493,0.5923,2.2613-0.0444c0.6122-0.6368,0.5923-1.6492-0.0444-2.2613
				c-2.2452-2.1586-5.1973-3.3474-8.3126-3.3474c-6.6141,0-11.9951,5.381-11.9951,11.9951s5.381,11.9951,11.9951,11.9951
				s11.9951-5.381,11.9951-11.9951C211.2326,27.7274,210.5166,27.0114,209.6333,27.0114z"/>
			<path class="st1" d="M256.4185,16.6157c-0.8833,0-1.5993,0.716-1.5993,1.5993v8.603c-1.242-0.8849-2.7604-1.4059-4.3982-1.4059
				c-4.1889,0-7.5969,3.408-7.5969,7.5969s3.408,7.5969,7.5969,7.5969c1.6429,0,3.1656-0.5244,4.4097-1.4143
				c0.0918,0.796,0.7672,1.4143,1.5878,1.4143c0.8833,0,1.5994-0.716,1.5994-1.5993V18.215
				C258.0179,17.3317,257.3018,16.6157,256.4185,16.6157z M250.421,37.4071c-2.4252,0-4.3982-1.973-4.3982-4.3982
				s1.973-4.3982,4.3982-4.3982s4.3982,1.973,4.3982,4.3982S252.8462,37.4071,250.421,37.4071z"/>
			<path class="st1" d="M238.8243,25.4121c-1.6429,0-3.1656,0.5244-4.4097,1.4143c-0.0918-0.796-0.7672-1.4143-1.5878-1.4143
				c-0.8833,0-1.5993,0.716-1.5993,1.5993v11.9951c0,0.8833,0.716,1.5993,1.5993,1.5993c0.8833,0,1.5993-0.716,1.5993-1.5993
				v-5.9975c0-2.4252,1.973-4.3982,4.3982-4.3982c0.8833,0,1.5993-0.716,1.5993-1.5993S239.7076,25.4121,238.8243,25.4121z"/>
			<path class="st1" d="M285.6095,25.4121c-1.6429,0-3.1656,0.5244-4.4097,1.4143c-0.0919-0.796-0.7672-1.4143-1.5878-1.4143
				c-0.8833,0-1.5993,0.716-1.5993,1.5993v11.9951c0,0.8833,0.716,1.5993,1.5993,1.5993s1.5993-0.716,1.5993-1.5993v-5.9975
				c0-2.4252,1.973-4.3982,4.3982-4.3982s4.3982,1.973,4.3982,4.3982v5.9975c0,0.8833,0.716,1.5993,1.5993,1.5993
				s1.5993-0.716,1.5993-1.5993v-5.9975C293.2064,28.82,289.7984,25.4121,285.6095,25.4121z"/>
			<path class="st1" d="M227.2275,25.4121c-0.8206,0-1.496,0.6183-1.5878,1.4143c-1.2441-0.89-2.7668-1.4143-4.4097-1.4143
				c-4.1889,0-7.5969,3.408-7.5969,7.5969s3.408,7.5969,7.5969,7.5969c1.6429,0,3.1656-0.5244,4.4097-1.4143
				c0.0918,0.796,0.7672,1.4143,1.5878,1.4143c0.8833,0,1.5993-0.716,1.5993-1.5993V27.0114
				C228.8269,26.1281,228.1108,25.4121,227.2275,25.4121z M221.23,37.4071c-2.4252,0-4.3982-1.973-4.3982-4.3982
				s1.973-4.3982,4.3982-4.3982s4.3982,1.973,4.3982,4.3982S223.6552,37.4071,221.23,37.4071z"/>
		</g>
		<g>
			<path class="st2" d="M91.5803,48.0905h6.0559l-0.0125,1.8084h-4.3633V52.82h3.9746v1.8082h-3.9746v4.2812h-1.6801V48.0905z"/>
			<path class="st2" d="M103.9116,51.1044c0.5307,0.3504,0.9444,0.8423,1.2413,1.476c0.2966,0.6337,0.4451,1.3626,0.4451,2.1868
				c0,0.8346-0.1485,1.5715-0.4451,2.2102c-0.2968,0.639-0.7105,1.1335-1.2413,1.4838c-0.5309,0.3504-1.1432,0.5254-1.8369,0.5254
				c-0.7022,0-1.3209-0.1751-1.8556-0.5254c-0.535-0.3502-0.9509-0.8448-1.2476-1.4838c-0.2968-0.6387-0.4451-1.3755-0.4451-2.2102
				c0-0.8242,0.1484-1.5532,0.4451-2.1868c0.2966-0.6338,0.7125-1.1257,1.2476-1.476c0.5348-0.3501,1.1535-0.5256,1.8556-0.5256
				C102.7684,50.5788,103.3807,50.7543,103.9116,51.1044z M100.6955,52.99c-0.351,0.4636-0.5266,1.0663-0.5266,1.8082
				c0,0.7419,0.1756,1.3446,0.5266,1.8084c0.3511,0.4636,0.8107,0.6954,1.3792,0.6954c0.5517,0,1.0031-0.2318,1.3541-0.6954
				c0.3511-0.4638,0.5266-1.0665,0.5266-1.8084c0-0.7419-0.1755-1.3446-0.5266-1.8082c-0.3511-0.4638-0.8025-0.6956-1.3541-0.6956
				C101.5062,52.2944,101.0466,52.5262,100.6955,52.99z"/>
			<path class="st2" d="M109.8796,51.0039c0.3887-0.2833,0.842-0.4301,1.3604-0.4404v1.9473
				c-0.6939-0.0513-1.2475,0.1469-1.6613,0.5951c-0.4138,0.4483-0.6206,1.0537-0.6206,1.8161v3.9875h-1.63v-8.2687h1.63v1.5919
				C109.1838,51.697,109.4909,51.2874,109.8796,51.0039z"/>
			<path class="st2" d="M116.1423,48.0905h1.6801v8.9488h3.7865v1.8701h-5.4667V48.0905z"/>
			<path class="st2" d="M127.1382,58.9094v-1.0047c-0.2341,0.3608-0.5351,0.6338-0.9028,0.8192
				c-0.3679,0.1855-0.7899,0.2783-1.2664,0.2783c-0.4681,0-0.8798-0.1107-1.2349-0.3323c-0.3554-0.2215-0.6291-0.5279-0.8213-0.9197
				c-0.1923-0.3914-0.2884-0.8292-0.2884-1.3136c0-0.7729,0.2214-1.378,0.6646-1.8161c0.4429-0.4378,1.0699-0.6619,1.8807-0.6722
				h1.9561v-0.2165c0-0.4841-0.1298-0.8602-0.3887-1.1283c-0.2593-0.2678-0.6353-0.4018-1.1285-0.4018
				c-0.6353,0-1.2998,0.2577-1.9936,0.7729l-0.5892-1.391c0.5265-0.3606,1.005-0.6206,1.4356-0.7805
				c0.4304-0.1597,0.9341-0.2396,1.5109-0.2396c0.8692,0,1.5442,0.2576,2.0249,0.7727c0.4805,0.5154,0.725,1.2365,0.7334,2.1638
				l0.0126,5.4094H127.1382z M126.5614,57.047c0.3342-0.2728,0.5223-0.6104,0.5643-1.0123v-0.7419h-1.6926
				c-0.4347,0-0.7545,0.08-0.9593,0.2396c-0.2049,0.1598-0.3072,0.4199-0.3072,0.7805c0,0.3505,0.1066,0.6286,0.3197,0.8346
				c0.2132,0.2063,0.5035,0.3091,0.8714,0.3091C125.8257,57.4566,126.227,57.3201,126.5614,57.047z"/>
			<path class="st2" d="M136.7424,51.4212c0.443,0.5719,0.6645,1.3473,0.6645,2.326v5.1622h-1.6425v-4.5748
				c0-0.5769-0.1338-1.0329-0.4012-1.3678c-0.2677-0.3348-0.6312-0.5023-1.0909-0.5023c-0.5435,0.0104-0.9718,0.2371-1.2851,0.6801
				c-0.3135,0.4431-0.4702,1.0098-0.4702,1.7v4.0649h-1.6299v-8.2687h1.6299v1.5456c0.4596-1.0612,1.262-1.6021,2.4073-1.6228
				C135.6933,50.5635,136.2993,50.8493,136.7424,51.4212z"/>
			<path class="st2" d="M146.0205,47.4414v11.468h-1.6301v-1.3291c-0.2425,0.4636-0.5538,0.8167-0.9341,1.0586
				c-0.3804,0.2423-0.8212,0.3633-1.3227,0.3633c-0.6353,0-1.1934-0.1778-1.6739-0.5333c-0.4808-0.3554-0.8548-0.855-1.1222-1.4991
				c-0.2675-0.6438-0.4012-1.3833-0.4012-2.2178c0-0.8242,0.1317-1.5533,0.395-2.187c0.2633-0.6337,0.6351-1.1257,1.1159-1.476
				c0.4805-0.3501,1.0301-0.5254,1.6488-0.5254c0.5098,0,0.9571,0.1236,1.3416,0.3709c0.3843,0.2473,0.7022,0.6028,0.9528,1.0665
				v-4.5595H146.0205z M143.8576,56.6143c0.3551-0.4688,0.5328-1.0742,0.5328-1.8161c0-0.7419-0.1776-1.347-0.5328-1.816
				c-0.3554-0.4688-0.8131-0.7033-1.373-0.7033c-0.5601,0-1.0156,0.2345-1.3667,0.7033c-0.3511,0.4689-0.531,1.0741-0.5391,1.816
				c0.0081,0.7419,0.188,1.3473,0.5391,1.8161c0.351,0.4689,0.8065,0.7032,1.3667,0.7032
				C143.0445,57.3175,143.5022,57.0832,143.8576,56.6143z"/>
			<path class="st2" d="M151.393,52.3254c-0.347-0.1338-0.6667-0.201-0.9591-0.201c-0.2759,0-0.4952,0.0595-0.6583,0.1778
				c-0.1631,0.1186-0.2445,0.3013-0.2445,0.5486c0,0.2577,0.1022,0.456,0.3071,0.5951c0.2047,0.1391,0.5285,0.2859,0.9716,0.4404
				c0.4682,0.1753,0.8527,0.3478,1.1535,0.5178c0.301,0.17,0.5621,0.4226,0.7837,0.7574c0.2214,0.3349,0.3323,0.7754,0.3323,1.3214
				c0,0.8037-0.2508,1.4219-0.7523,1.8547c-0.5016,0.4328-1.1328,0.6491-1.8932,0.6491c-0.5185,0-1.024-0.1005-1.5172-0.3013
				c-0.4933-0.201-0.9111-0.4869-1.2538-0.8579l0.5643-1.4064c0.3008,0.3195,0.6601,0.5694,1.0782,0.7496
				c0.418,0.1803,0.815,0.2704,1.1912,0.2704c0.3008,0,0.541-0.0642,0.7209-0.1931c0.1797-0.1287,0.2696-0.322,0.2696-0.5796
				c0-0.2883-0.1046-0.5048-0.3135-0.6491c-0.209-0.1442-0.5476-0.3038-1.0156-0.4791c-0.4514-0.1647-0.8193-0.327-1.1033-0.4869
				c-0.2842-0.1596-0.5309-0.4018-0.7397-0.7264c-0.209-0.3246-0.3135-0.7496-0.3135-1.2751c0-0.8139,0.2402-1.4348,0.721-1.8624
				c0.4805-0.4275,1.0845-0.6414,1.8117-0.6414c0.443,0,0.8797,0.0773,1.3103,0.2318c0.4303,0.1545,0.8128,0.3709,1.1472,0.6491
				l-0.5893,1.4528C152.0764,52.6448,151.7398,52.4594,151.393,52.3254z"/>
			<path class="st2" d="M157.6433,52.3409c-0.5435,0-0.9843,0.2267-1.3228,0.68c-0.3385,0.4536-0.5078,1.0408-0.5078,1.7619
				c0,0.7419,0.1693,1.3396,0.5078,1.7929c0.3385,0.4536,0.7793,0.6801,1.3228,0.6801c0.8024,0,1.4042-0.3246,1.8055-0.9737
				l1.0155,1.0355c-0.3008,0.5359-0.698,0.948-1.1911,1.2364c-0.4933,0.2886-1.0657,0.4328-1.7178,0.4328
				c-0.6604,0-1.2475-0.1751-1.7615-0.5254c-0.5141-0.3502-0.9133-0.8424-1.1974-1.476c-0.2843-0.6337-0.4264-1.3625-0.4264-2.187
				c0-0.8346,0.1442-1.5711,0.4325-2.2101c0.2885-0.6388,0.6897-1.1334,1.2037-1.4838c0.5141-0.3501,1.1053-0.5256,1.7742-0.5256
				c0.6101,0,1.1555,0.1315,1.6363,0.3942c0.4805,0.2626,0.8714,0.6362,1.1723,1.1205l-0.9905,1.1591
				C158.9473,52.6448,158.3621,52.3409,157.6433,52.3409z"/>
			<path class="st2" d="M165.8934,58.9094v-1.0047c-0.2341,0.3608-0.5351,0.6338-0.9028,0.8192
				c-0.3679,0.1855-0.7899,0.2783-1.2664,0.2783c-0.4681,0-0.8798-0.1107-1.2349-0.3323c-0.3554-0.2215-0.6291-0.5279-0.8212-0.9197
				c-0.1925-0.3914-0.2884-0.8292-0.2884-1.3136c0-0.7729,0.2214-1.378,0.6645-1.8161c0.443-0.4378,1.0699-0.6619,1.8807-0.6722
				h1.9561v-0.2165c0-0.4841-0.1298-0.8602-0.3887-1.1283c-0.2593-0.2678-0.6353-0.4018-1.1285-0.4018
				c-0.6353,0-1.2998,0.2577-1.9936,0.7729l-0.5893-1.391c0.5266-0.3606,1.0051-0.6206,1.4357-0.7805
				c0.4304-0.1597,0.9341-0.2396,1.5109-0.2396c0.8692,0,1.5442,0.2576,2.0249,0.7727c0.4805,0.5154,0.725,1.2365,0.7334,2.1638
				l0.0126,5.4094H165.8934z M165.3166,57.047c0.3342-0.2728,0.5223-0.6104,0.5643-1.0123v-0.7419h-1.6926
				c-0.4347,0-0.7545,0.08-0.9593,0.2396c-0.2048,0.1598-0.3071,0.4199-0.3071,0.7805c0,0.3505,0.1066,0.6286,0.3197,0.8346
				c0.2132,0.2063,0.5035,0.3091,0.8714,0.3091C164.5809,57.4566,164.9822,57.3201,165.3166,57.047z"/>
			<path class="st2" d="M175.2531,51.1121c0.4805,0.3554,0.8526,0.8527,1.1159,1.4914c0.2633,0.6391,0.395,1.3755,0.395,2.2102
				c0,0.8245-0.1298,1.5509-0.3887,2.1792c-0.2593,0.6286-0.627,1.1181-1.1034,1.4683c-0.4765,0.3504-1.0281,0.5254-1.6551,0.5254
				c-0.5016,0-0.9447-0.121-1.329-0.3631c-0.3847-0.242-0.7022-0.5951-0.9529-1.0587v4.343h-1.6299V50.6407h1.6299v1.3601
				c0.2423-0.4636,0.5537-0.8165,0.9341-1.0587c0.3802-0.242,0.8212-0.3633,1.3228-0.3633
				C174.2187,50.5788,174.7724,50.7566,175.2531,51.1121z M174.5823,56.5524c0.351-0.4687,0.5266-1.0688,0.5266-1.8005
				c0-0.7316-0.1756-1.3292-0.5266-1.7929c-0.351-0.4636-0.8024-0.6954-1.3541-0.6954c-0.5601,0-1.0156,0.2318-1.3667,0.6954
				s-0.5266,1.0613-0.5266,1.7929c0,0.7418,0.1756,1.3446,0.5266,1.8082s0.8065,0.6956,1.3667,0.6956
				C173.7799,57.2557,174.2313,57.0214,174.5823,56.5524z"/>
			<path class="st2" d="M179.9611,47.426c0.1756,0.2267,0.2633,0.5154,0.2633,0.8655c0,0.34-0.0877,0.6235-0.2633,0.85
				c-0.1754,0.2268-0.3971,0.34-0.6645,0.34c-0.2675,0-0.4889-0.1133-0.6645-0.34c-0.1756-0.2265-0.2633-0.5099-0.2633-0.85
				c0-0.3501,0.0877-0.6388,0.2633-0.8655c0.1756-0.2265,0.3969-0.34,0.6645-0.34C179.564,47.086,179.7856,47.1995,179.9611,47.426z
				 M178.4942,50.6407h1.6299v8.2687h-1.6299V50.6407z"/>
			<path class="st2" d="M188.3114,51.4212c0.443,0.5719,0.6645,1.3473,0.6645,2.326v5.1622h-1.6425v-4.5748
				c0-0.5769-0.1338-1.0329-0.4012-1.3678c-0.2677-0.3348-0.6312-0.5023-1.0908-0.5023c-0.5435,0.0104-0.9718,0.2371-1.2851,0.6801
				c-0.3135,0.4431-0.4702,1.0098-0.4702,1.7v4.0649h-1.6299v-8.2687h1.6299v1.5456c0.4596-1.0612,1.262-1.6021,2.4073-1.6228
				C187.2623,50.5635,187.8683,50.8493,188.3114,51.4212z"/>
			<path class="st2" d="M197.2509,50.6407v7.4804c0,0.7832-0.1441,1.4656-0.4325,2.0478c-0.2883,0.5821-0.698,1.0302-1.2287,1.3447
				c-0.5309,0.3141-1.1472,0.4714-1.8494,0.4714c-1.0199,0-1.9643-0.3658-2.8337-1.0974l0.652-1.4528
				c0.6352,0.577,1.3332,0.8656,2.094,0.8656c0.6018,0,1.0803-0.1908,1.4355-0.5719c0.3553-0.3813,0.5329-0.9015,0.5329-1.5611
				v-0.9737c-0.2256,0.4226-0.5183,0.7446-0.8776,0.966c-0.3595,0.2218-0.7774,0.3323-1.2539,0.3323
				c-0.5852,0-1.1034-0.1673-1.5547-0.5023c-0.4514-0.3346-0.8024-0.8037-1.0532-1.4064c-0.2508-0.6028-0.3762-1.2956-0.3762-2.0787
				c0-0.7729,0.1254-1.4553,0.3762-2.0479c0.2508-0.5924,0.6018-1.0534,1.0532-1.3833c0.4514-0.3296,0.9696-0.4946,1.5547-0.4946
				c0.468,0,0.8839,0.1135,1.2476,0.34c0.3637,0.2268,0.6583,0.5463,0.8839,0.9582v-1.2364H197.2509z M195.1257,56.2588
				c0.3301-0.4378,0.4952-1.007,0.4952-1.7079c0-0.7006-0.1651-1.2698-0.4952-1.7079c-0.3302-0.4378-0.7585-0.6567-1.2851-0.6567
				c-0.5266,0-0.9551,0.2216-1.2852,0.6645c-0.3302,0.4431-0.4995,1.01-0.5078,1.7001c0.0083,0.7009,0.1775,1.27,0.5078,1.7079
				c0.3301,0.4381,0.7587,0.6569,1.2852,0.6569C194.3671,56.9157,194.7954,56.6969,195.1257,56.2588z"/>
			<path class="st2" d="M209.3126,59.2649l-1.329-1.6228c-0.7859,0.9068-1.6551,1.3601-2.608,1.3601
				c-0.5266,0-1.0052-0.1315-1.4355-0.3941c-0.4306-0.2628-0.7691-0.6284-1.0156-1.0974c-0.2466-0.4687-0.3698-0.9968-0.3698-1.5841
				c0-0.68,0.165-1.2493,0.4952-1.7079c0.3301-0.4583,0.7837-0.8782,1.3603-1.2596c-0.2758-0.4738-0.4786-0.9092-0.608-1.306
				c-0.1298-0.3965-0.1944-0.7855-0.1944-1.1668c0-0.7419,0.2131-1.342,0.6395-1.8006c0.4263-0.4583,0.9946-0.6877,1.7051-0.6877
				c0.443,0,0.8401,0.098,1.1912,0.2936c0.351,0.1958,0.6226,0.4714,0.8149,0.8269c0.1922,0.3554,0.2885,0.76,0.2885,1.2133
				c0,0.6698-0.184,1.2236-0.5517,1.6614c-0.3679,0.4381-0.8861,0.863-1.5547,1.2751c0.4847,0.6596,1.0532,1.3859,1.7053,2.1792
				c0.2758-0.5151,0.5181-1.1437,0.7272-1.8856l1.0657,0.9737c-0.2341,0.7523-0.5266,1.422-0.8776,2.0092l1.3917,1.6693
				L209.3126,59.2649z M207.1059,56.5756c-0.8526-1.0405-1.5297-1.9112-2.0311-2.612c-0.3762,0.2681-0.6646,0.5436-0.8652,0.8269
				c-0.2006,0.2835-0.3008,0.6106-0.3008,0.9814c0,0.5049,0.1461,0.9172,0.4389,1.2365c0.2924,0.3194,0.656,0.4791,1.0907,0.4791
				C206.015,57.4875,206.5709,57.1837,207.1059,56.5756z M205.4884,52.2636c0.468-0.2988,0.8275-0.5951,1.0783-0.8887
				c0.2508-0.2937,0.3762-0.6414,0.3762-1.0432c0-0.3297-0.0899-0.5951-0.2696-0.7961c-0.1798-0.2009-0.4159-0.3013-0.7085-0.3013
				c-0.3177,0-0.5747,0.1186-0.771,0.3555c-0.1965,0.2371-0.2946,0.5359-0.2946,0.8964
				C204.8991,50.9911,205.0955,51.5835,205.4884,52.2636z"/>
			<path class="st2" d="M221.1797,49.0642c0.6059,0.6491,0.9091,1.5663,0.9091,2.7511c0,1.2365-0.3032,2.1973-0.9091,2.8824
				c-0.606,0.6854-1.4607,1.0279-2.564,1.0279h-1.9183v3.1838h-1.6801V48.0905h3.5984
				C219.719,48.0905,220.5737,48.4151,221.1797,49.0642z M219.9886,53.3918c0.3385-0.34,0.5078-0.8448,0.5078-1.5147
				c0-0.6592-0.1693-1.1538-0.5078-1.4837c-0.3385-0.3296-0.8256-0.4946-1.4607-0.4946h-1.8305v4.0029h1.8305
				C219.163,53.9018,219.6501,53.7318,219.9886,53.3918z"/>
			<path class="st2" d="M228.9409,51.7071c0.5391,0.7523,0.8087,1.8084,0.8087,3.1684c0,0.2681-0.0044,0.4691-0.0126,0.6028h-4.9525
				c0.1085,0.5872,0.3323,1.0485,0.6708,1.3832c0.3385,0.335,0.7543,0.5023,1.2476,0.5023c0.3426,0,0.6707-0.0797,0.9842-0.2396
				c0.3135-0.1596,0.5872-0.3888,0.8212-0.6877l0.8777,1.1283c-0.3344,0.4534-0.7419,0.8037-1.2224,1.051
				c-0.4808,0.2473-1.0137,0.3709-1.5987,0.3709c-0.6854,0-1.2894-0.1751-1.8117-0.5254c-0.5225-0.3502-0.9258-0.8424-1.2099-1.476
				c-0.2843-0.6337-0.4263-1.3625-0.4263-2.187c0-0.8242,0.1442-1.5556,0.4325-2.1947c0.2885-0.6387,0.6916-1.136,1.21-1.4914
				c0.5181-0.3555,1.1074-0.5333,1.7679-0.5333C227.5971,50.5788,228.4017,50.9551,228.9409,51.7071z M228.2576,54.1336
				c-0.0169-0.6077-0.1799-1.092-0.489-1.4528c-0.3093-0.3606-0.7189-0.5409-1.2287-0.5409c-0.4764,0-0.8757,0.1778-1.1974,0.5332
				c-0.3219,0.3555-0.5203,0.8424-0.5956,1.4606H228.2576z"/>
			<path class="st2" d="M234.4325,52.3254c-0.347-0.1338-0.6667-0.201-0.9591-0.201c-0.2759,0-0.4952,0.0595-0.6583,0.1778
				c-0.1631,0.1186-0.2445,0.3013-0.2445,0.5486c0,0.2577,0.1022,0.456,0.3072,0.5951c0.2047,0.1391,0.5285,0.2859,0.9716,0.4404
				c0.4682,0.1753,0.8527,0.3478,1.1535,0.5178c0.3009,0.17,0.5621,0.4226,0.7837,0.7574c0.2214,0.3349,0.3323,0.7754,0.3323,1.3214
				c0,0.8037-0.2508,1.4219-0.7523,1.8547c-0.5016,0.4328-1.1328,0.6491-1.8932,0.6491c-0.5185,0-1.024-0.1005-1.5172-0.3013
				c-0.4933-0.201-0.9111-0.4869-1.2538-0.8579l0.5643-1.4064c0.3008,0.3195,0.6601,0.5694,1.0782,0.7496
				c0.418,0.1803,0.815,0.2704,1.1912,0.2704c0.3008,0,0.541-0.0642,0.7209-0.1931c0.1797-0.1287,0.2696-0.322,0.2696-0.5796
				c0-0.2883-0.1046-0.5048-0.3135-0.6491c-0.209-0.1442-0.5476-0.3038-1.0156-0.4791c-0.4514-0.1647-0.8193-0.327-1.1033-0.4869
				c-0.2842-0.1596-0.5309-0.4018-0.7397-0.7264c-0.209-0.3246-0.3135-0.7496-0.3135-1.2751c0-0.8139,0.2402-1.4348,0.721-1.8624
				c0.4805-0.4275,1.0845-0.6414,1.8117-0.6414c0.443,0,0.8797,0.0773,1.3103,0.2318c0.4304,0.1545,0.8129,0.3709,1.1472,0.6491
				l-0.5893,1.4528C235.1158,52.6448,234.7793,52.4594,234.4325,52.3254z"/>
			<path class="st2" d="M241.7484,58.3993c-0.535,0.4018-1.0951,0.6028-1.6801,0.6028c-0.5768,0-1.049-0.2087-1.4168-0.6259
				c-0.3679-0.4173-0.5516-1.0329-0.5516-1.8469V52.449h-0.9404l-0.0125-1.4683h0.9529v-2.2719h1.6174v2.2719h1.9184v1.4683h-1.9184
				v3.7248c0,0.3813,0.0583,0.6518,0.1756,0.8114c0.1169,0.1598,0.2924,0.2396,0.5266,0.2396c0.2508,0,0.5683-0.1133,0.9528-0.34
				L241.7484,58.3993z"/>
			<path class="st2" d="M252.0483,50.177c-0.4221-0.2472-0.8506-0.3709-1.2851-0.3709c-0.5435,0-1.0407,0.1598-1.492,0.4791
				c-0.4514,0.3195-0.8068,0.76-1.0657,1.3215c-0.2593,0.5617-0.3887,1.1773-0.3887,1.8469c0,0.6699,0.1294,1.2854,0.3887,1.8469
				c0.2589,0.5617,0.6143,1.0045,1.0657,1.3291c0.4514,0.3246,0.9485,0.4869,1.492,0.4869c0.4178,0,0.8379-0.1133,1.2601-0.34
				c0.422-0.2264,0.7962-0.5409,1.1222-0.9427l0.9905,1.3601c-0.4598,0.5772-0.9949,1.0332-1.6049,1.3678
				c-0.6102,0.335-1.2287,0.5023-1.8556,0.5023c-0.8445,0-1.6174-0.2473-2.3196-0.7419c-0.7021-0.4946-1.2539-1.1668-1.6551-2.017
				c-0.4012-0.85-0.6018-1.7902-0.6018-2.8206c0-1.0302,0.2047-1.9679,0.6143-2.8129c0.4095-0.8447,0.9675-1.5093,1.6739-1.9937
				c0.7063-0.4841,1.4898-0.7264,2.3509-0.7264c0.6268,0,1.2413,0.1545,1.843,0.4636c0.6018,0.3092,1.1159,0.7369,1.5422,1.2828
				l-0.978,1.5147C252.8361,50.7696,252.4704,50.4243,252.0483,50.177z"/>
			<path class="st2" d="M260.3613,51.1044c0.5307,0.3504,0.9444,0.8423,1.2413,1.476c0.2966,0.6337,0.445,1.3626,0.445,2.1868
				c0,0.8346-0.1485,1.5715-0.445,2.2102c-0.2968,0.639-0.7105,1.1335-1.2413,1.4838c-0.531,0.3504-1.1431,0.5254-1.8369,0.5254
				c-0.7022,0-1.3209-0.1751-1.8557-0.5254c-0.535-0.3502-0.9509-0.8448-1.2474-1.4838c-0.2968-0.6387-0.4452-1.3755-0.4452-2.2102
				c0-0.8242,0.1483-1.5532,0.4452-2.1868c0.2966-0.6338,0.7125-1.1257,1.2474-1.476c0.5349-0.3501,1.1535-0.5256,1.8557-0.5256
				C259.2182,50.5788,259.8303,50.7543,260.3613,51.1044z M257.1453,52.99c-0.3511,0.4636-0.5266,1.0663-0.5266,1.8082
				c0,0.7419,0.1754,1.3446,0.5266,1.8084c0.351,0.4636,0.8107,0.6954,1.3792,0.6954c0.5516,0,1.003-0.2318,1.3541-0.6954
				c0.351-0.4638,0.5266-1.0665,0.5266-1.8084c0-0.7419-0.1756-1.3446-0.5266-1.8082c-0.3511-0.4638-0.8025-0.6956-1.3541-0.6956
				C257.9559,52.2944,257.4963,52.5262,257.1453,52.99z"/>
			<path class="st2" d="M269.6332,51.4212c0.443,0.5719,0.6645,1.3473,0.6645,2.326v5.1622h-1.6425v-4.5748
				c0-0.5769-0.1338-1.0329-0.4012-1.3678c-0.2677-0.3348-0.6312-0.5023-1.0908-0.5023c-0.5435,0.0104-0.9718,0.2371-1.2851,0.6801
				c-0.3135,0.4431-0.4702,1.0098-0.4702,1.7v4.0649h-1.6299v-8.2687h1.6299v1.5456c0.4596-1.0612,1.262-1.6021,2.4073-1.6228
				C268.5842,50.5635,269.1901,50.8493,269.6332,51.4212z"/>
			<path class="st2" d="M276.366,58.3993c-0.535,0.4018-1.0951,0.6028-1.6801,0.6028c-0.5768,0-1.049-0.2087-1.4168-0.6259
				c-0.3679-0.4173-0.5516-1.0329-0.5516-1.8469V52.449h-0.9404l-0.0125-1.4683h0.9529v-2.2719h1.6174v2.2719h1.9184v1.4683h-1.9184
				v3.7248c0,0.3813,0.0583,0.6518,0.1756,0.8114c0.1169,0.1598,0.2924,0.2396,0.5266,0.2396c0.2508,0,0.5682-0.1133,0.9528-0.34
				L276.366,58.3993z"/>
			<path class="st2" d="M280.5098,51.0039c0.3887-0.2833,0.842-0.4301,1.3603-0.4404v1.9473
				c-0.6939-0.0513-1.2476,0.1469-1.6613,0.5951c-0.4137,0.4483-0.6206,1.0537-0.6206,1.8161v3.9875h-1.6299v-8.2687h1.6299v1.5919
				C279.8138,51.697,280.1211,51.2874,280.5098,51.0039z"/>
			<path class="st2" d="M288.0953,51.1044c0.5307,0.3504,0.9444,0.8423,1.2413,1.476c0.2966,0.6337,0.4451,1.3626,0.4451,2.1868
				c0,0.8346-0.1485,1.5715-0.4451,2.2102c-0.2968,0.639-0.7105,1.1335-1.2413,1.4838c-0.5309,0.3504-1.1431,0.5254-1.8369,0.5254
				c-0.7021,0-1.3209-0.1751-1.8557-0.5254c-0.535-0.3502-0.9509-0.8448-1.2475-1.4838c-0.2968-0.6387-0.4452-1.3755-0.4452-2.2102
				c0-0.8242,0.1484-1.5532,0.4452-2.1868c0.2966-0.6338,0.7125-1.1257,1.2475-1.476c0.5348-0.3501,1.1535-0.5256,1.8557-0.5256
				C286.9523,50.5788,287.5644,50.7543,288.0953,51.1044z M284.8793,52.99c-0.3512,0.4636-0.5266,1.0663-0.5266,1.8082
				c0,0.7419,0.1754,1.3446,0.5266,1.8084c0.351,0.4636,0.8106,0.6954,1.3792,0.6954c0.5516,0,1.003-0.2318,1.3541-0.6954
				c0.351-0.4638,0.5266-1.0665,0.5266-1.8084c0-0.7419-0.1756-1.3446-0.5266-1.8082c-0.3511-0.4638-0.8025-0.6956-1.3541-0.6956
				C285.69,52.2944,285.2303,52.5262,284.8793,52.99z"/>
			<path class="st2" d="M291.5747,47.4414h1.6299v11.468h-1.6299V47.4414z"/>
		</g>
	</g>
</g>
</svg>
