<?xml version="1.0" encoding="utf-8"?>
<!-- Generator: Adobe Illustrator 22.0.1, SVG Export Plug-In . SVG Version: 6.00 Build 0)  -->
<svg version="1.1" id="Layer_1" xmlns="http://www.w3.org/2000/svg" xmlns:xlink="http://www.w3.org/1999/xlink" x="0px" y="0px"
	 viewBox="0 0 241.6108 168.8802" style="enable-background:new 0 0 241.6108 168.8802;" xml:space="preserve">
<style type="text/css">
	.st0{fill:#FFFFFF;}
</style>
<g>
	<g>
		<g>
			<path class="st0" d="M0.0006,158.6185h4.4676l-0.0092,1.334H1.2401v2.155h2.9321v1.334H1.2401v3.1583H0.0006V158.6185z"/>
			<path class="st0" d="M9.1068,160.8419c0.3915,0.2584,0.6968,0.6213,0.9157,1.0889c0.2188,0.4675,0.3283,1.0053,0.3283,1.6134
				c0,0.6157-0.1095,1.1593-0.3283,1.6305c-0.2189,0.4713-0.5242,0.8362-0.9157,1.0945c-0.3917,0.2586-0.8433,0.3876-1.3551,0.3876
				c-0.5179,0-0.9744-0.1291-1.3689-0.3876c-0.3947-0.2583-0.7015-0.6232-0.9204-1.0945c-0.2189-0.4712-0.3283-1.0148-0.3283-1.6305
				c0-0.608,0.1094-1.1458,0.3283-1.6134c0.2189-0.4675,0.5256-0.8304,0.9204-1.0889c0.3945-0.2583,0.851-0.3876,1.3689-0.3876
				C8.2635,160.4543,8.7151,160.5836,9.1068,160.8419z M6.7343,162.2329c-0.259,0.3421-0.3885,0.7867-0.3885,1.334
				c0,0.5473,0.1295,0.992,0.3885,1.334c0.259,0.3421,0.598,0.513,1.0175,0.513c0.407,0,0.74-0.1709,0.999-0.513
				c0.259-0.342,0.3885-0.7867,0.3885-1.334c0-0.5473-0.1295-0.9919-0.3885-1.334c-0.259-0.342-0.592-0.513-0.999-0.513
				C7.3323,161.7199,6.9933,161.8909,6.7343,162.2329z"/>
			<path class="st0" d="M13.5188,160.7679c0.2868-0.2089,0.6212-0.3174,1.0036-0.325v1.4366
				c-0.5119-0.0379-0.9203,0.1083-1.2256,0.439c-0.3052,0.3307-0.4578,0.7773-0.4578,1.3396v2.9417h-1.2024v-6.1h1.2024v1.1744
				C13.0054,161.2791,13.232,160.977,13.5188,160.7679z"/>
			<path class="st0" d="M21.2052,160.0894c-0.3485-0.1369-0.6553-0.2053-0.9204-0.2053c-0.2959,0-0.5304,0.0684-0.703,0.2053
				c-0.1727,0.1369-0.259,0.3269-0.259,0.5702c0,0.2206,0.0601,0.4048,0.1804,0.5529c0.1202,0.1483,0.2713,0.2699,0.4532,0.3649
				c0.1818,0.0952,0.4301,0.1995,0.7446,0.3136c0.4377,0.1596,0.7969,0.3192,1.0776,0.4788
				c0.2805,0.1596,0.5194,0.3953,0.7169,0.7069c0.1973,0.3117,0.2959,0.7223,0.2959,1.2314c0,0.4866-0.1064,0.9105-0.3191,1.2714
				c-0.2128,0.3611-0.5057,0.6368-0.8787,0.8266c-0.3732,0.1902-0.8001,0.285-1.2811,0.285c-0.5057,0-0.999-0.1158-1.4799-0.3478
				c-0.481-0.2317-0.9004-0.5414-1.2579-0.9292l0.5179-1.2998c0.3268,0.3725,0.6937,0.6653,1.1007,0.8779
				c0.407,0.2129,0.7862,0.3194,1.1377,0.3194c0.3453,0,0.6165-0.0817,0.8139-0.2451c0.1973-0.1634,0.296-0.3858,0.296-0.667
				c0-0.228-0.0601-0.4162-0.1804-0.5645c-0.1202-0.1482-0.2729-0.2679-0.4578-0.3591s-0.4379-0.1938-0.7585-0.3079
				c-0.4379-0.1596-0.7955-0.3152-1.0729-0.4674c-0.2775-0.152-0.515-0.382-0.7123-0.6898
				c-0.1974-0.3079-0.2959-0.7127-0.2959-1.2144c0-0.4636,0.1001-0.8683,0.3006-1.2143c0.2003-0.3458,0.484-0.6137,0.851-0.8038
				c0.3668-0.1898,0.7908-0.285,1.2718-0.285c0.4193,0,0.8339,0.076,1.244,0.228c0.41,0.1521,0.7754,0.3574,1.0961,0.6157
				l-0.4995,1.334C21.8943,160.4201,21.5535,160.2263,21.2052,160.0894z"/>
			<path class="st0" d="M28.7297,160.4998v6.1h-1.2117v-1.1287c-0.333,0.7906-0.9064,1.1857-1.7204,1.1857
				c-0.555,0-0.9929-0.2089-1.3134-0.627c-0.3207-0.418-0.481-0.9881-0.481-1.7103v-3.8197h1.2117v3.3863
				c0,0.4258,0.0939,0.7602,0.2821,1.0035c0.188,0.2433,0.4486,0.3647,0.7816,0.3647c0.3822-0.0075,0.6844-0.1747,0.9064-0.5016
				c0.222-0.3267,0.333-0.7411,0.333-1.2428v-3.0101H28.7297z"/>
			<path class="st0" d="M34.6078,160.8476c0.3545,0.2623,0.629,0.6291,0.8232,1.1003c0.1943,0.4713,0.2914,1.0148,0.2914,1.6305
				c0,0.6082-0.0957,1.144-0.2868,1.6076c-0.1912,0.4639-0.4625,0.8249-0.8139,1.0832c-0.3515,0.2586-0.7585,0.3876-1.221,0.3876
				c-0.37,0-0.6969-0.0892-0.9805-0.2679c-0.2836-0.1785-0.5179-0.439-0.7029-0.7811v3.204h-1.2025v-8.312h1.2025v1.0035
				c0.1788-0.3421,0.4084-0.6024,0.6891-0.7811c0.2805-0.1785,0.6058-0.2679,0.9758-0.2679
				C33.8447,160.4543,34.2531,160.5853,34.6078,160.8476z M34.1129,164.8611c0.259-0.3458,0.3885-0.7886,0.3885-1.3284
				c0-0.5396-0.1295-0.9806-0.3885-1.3225c-0.259-0.3421-0.5919-0.513-0.999-0.513c-0.4132,0-0.7492,0.1709-1.0082,0.513
				c-0.259,0.342-0.3884,0.7829-0.3884,1.3225c0,0.5473,0.1294,0.992,0.3884,1.334c0.259,0.3421,0.5951,0.513,1.0082,0.513
				C33.521,165.3798,33.8539,165.207,34.1129,164.8611z"/>
			<path class="st0" d="M41.1471,160.8476c0.3547,0.2623,0.629,0.6291,0.8233,1.1003c0.1943,0.4713,0.2914,1.0148,0.2914,1.6305
				c0,0.6082-0.0958,1.144-0.2867,1.6076c-0.1912,0.4639-0.4625,0.8249-0.8141,1.0832c-0.3514,0.2586-0.7585,0.3876-1.2208,0.3876
				c-0.3701,0-0.6969-0.0892-0.9806-0.2679c-0.2836-0.1785-0.5179-0.439-0.7029-0.7811v3.204h-1.2025v-8.312h1.2025v1.0035
				c0.1787-0.3421,0.4084-0.6024,0.689-0.7811c0.2806-0.1785,0.6059-0.2679,0.9758-0.2679
				C40.384,160.4543,40.7925,160.5853,41.1471,160.8476z M40.6524,164.8611c0.2589-0.3458,0.3884-0.7886,0.3884-1.3284
				c0-0.5396-0.1295-0.9806-0.3884-1.3225c-0.259-0.3421-0.592-0.513-0.9991-0.513c-0.4132,0-0.7492,0.1709-1.0082,0.513
				c-0.2589,0.342-0.3884,0.7829-0.3884,1.3225c0,0.5473,0.1295,0.992,0.3884,1.334c0.259,0.3421,0.5951,0.513,1.0082,0.513
				C40.0604,165.3798,40.3934,165.207,40.6524,164.8611z"/>
			<path class="st0" d="M43.5937,158.1397h1.2025v8.4601h-1.2025V158.1397z"/>
			<path class="st0" d="M48.038,168.4982c-0.2867,0.2546-0.6274,0.382-1.022,0.382c-0.2406,0-0.4579-0.0438-0.6522-0.1312
				c-0.1943-0.0874-0.387-0.2262-0.5781-0.416l0.5181-1.1289c0.117,0.1064,0.225,0.1842,0.3237,0.2338
				c0.0985,0.0493,0.2034,0.0741,0.3145,0.0741c0.3269,0,0.5673-0.2053,0.7215-0.6157l0.148-0.3991l-2.0442-5.9974h1.2488
				l1.4059,4.4353l1.2856-4.4353h1.2117l-2.2199,6.864C48.5452,167.8654,48.3249,168.2434,48.038,168.4982z"/>
			<path class="st0" d="M52.9357,158.1283c0.1295,0.1674,0.1941,0.3802,0.1941,0.6386c0,0.2508-0.0646,0.4599-0.1941,0.627
				c-0.1295,0.1674-0.2929,0.2509-0.4903,0.2509c-0.1973,0-0.3608-0.0835-0.4903-0.2509c-0.1294-0.1671-0.1941-0.3762-0.1941-0.627
				c0-0.2584,0.0648-0.4712,0.1941-0.6386c0.1295-0.1671,0.2929-0.2508,0.4903-0.2508
				C52.6427,157.8775,52.8062,157.9612,52.9357,158.1283z M51.8534,160.4998h1.2025v6.1h-1.2025V160.4998z"/>
			<path class="st0" d="M59.1049,161.0756c0.3269,0.4219,0.4903,0.994,0.4903,1.716v3.8082h-1.2117v-3.3749
				c0-0.4257-0.0988-0.762-0.296-1.0091c-0.1975-0.2468-0.4657-0.3705-0.8048-0.3705c-0.4009,0.0076-0.7168,0.175-0.948,0.5017
				c-0.2312,0.3269-0.3469,0.7451-0.3469,1.2541v2.9987h-1.2025v-6.1h1.2025v1.1402c0.3391-0.7828,0.9311-1.1817,1.7759-1.1972
				C58.331,160.4428,58.778,160.6538,59.1049,161.0756z"/>
			<path class="st0" d="M65.7091,160.4998v5.5186c0,0.5778-0.1065,1.0812-0.3192,1.5107c-0.2126,0.4294-0.5149,0.76-0.9063,0.9919
				c-0.3918,0.2319-0.8465,0.3478-1.3644,0.3478c-0.7524,0-1.4492-0.2699-2.0904-0.8095l0.481-1.0717
				c0.4686,0.4257,0.9835,0.6384,1.5446,0.6384c0.444,0,0.797-0.1407,1.0591-0.4219c0.2621-0.2812,0.3931-0.665,0.3931-1.1515
				v-0.7183c-0.1665,0.3117-0.3825,0.5492-0.6475,0.7125c-0.2652,0.1636-0.5735,0.2451-0.925,0.2451
				c-0.4316,0-0.8139-0.1234-1.1469-0.3705c-0.3331-0.2468-0.592-0.5928-0.777-1.0375c-0.1851-0.4446-0.2775-0.9558-0.2775-1.5335
				c0-0.5702,0.0924-1.0736,0.2775-1.5107c0.185-0.437,0.4439-0.7771,0.777-1.0204c0.333-0.2432,0.7153-0.3649,1.1469-0.3649
				c0.3453,0,0.652,0.0837,0.9204,0.2508c0.2682,0.1673,0.4856,0.4031,0.652,0.7069v-0.9121H65.7091z M64.1412,164.6445
				c0.2435-0.323,0.3653-0.7429,0.3653-1.2599c0-0.5169-0.1219-0.9367-0.3653-1.2599c-0.2436-0.323-0.5596-0.4846-0.948-0.4846
				c-0.3886,0-0.7046,0.1636-0.9482,0.4903c-0.2436,0.327-0.3686,0.745-0.3745,1.2543c0.006,0.517,0.1309,0.9369,0.3745,1.2599
				c0.2436,0.323,0.5596,0.4845,0.9482,0.4845C63.5816,165.129,63.8976,164.9675,64.1412,164.6445z"/>
			<path class="st0" d="M74.6257,166.8621l-0.9806-1.1972c-0.5796,0.669-1.2208,1.0033-1.9239,1.0033
				c-0.3884,0-0.7415-0.097-1.0591-0.2908c-0.3177-0.1938-0.5674-0.4636-0.7492-0.8095c-0.1821-0.3458-0.2729-0.7354-0.2729-1.1686
				c0-0.5017,0.1217-0.9216,0.3653-1.2599c0.2436-0.3382,0.5781-0.6479,1.0036-0.9292c-0.2034-0.3496-0.3531-0.6708-0.4486-0.9635
				c-0.0956-0.2925-0.1434-0.5795-0.1434-0.8608c0-0.5473,0.1573-0.9901,0.4718-1.3284c0.3145-0.3382,0.7337-0.5074,1.2579-0.5074
				c0.3267,0,0.6197,0.0724,0.8787,0.2167c0.259,0.1445,0.4593,0.3478,0.6012,0.6099c0.1419,0.2623,0.2128,0.5607,0.2128,0.895
				c0,0.4943-0.1356,0.9028-0.4069,1.2257c-0.2716,0.3232-0.6537,0.6368-1.1471,0.9407c0.3576,0.4865,0.777,1.0224,1.2579,1.6076
				c0.2036-0.3799,0.3823-0.8437,0.5366-1.391l0.7861,0.7183c-0.1727,0.5549-0.3884,1.049-0.6475,1.4823l1.0267,1.2314
				L74.6257,166.8621z M72.9977,164.8782c-0.629-0.7677-1.1284-1.4099-1.4984-1.9269c-0.2775,0.1978-0.4903,0.4011-0.6383,0.61
				c-0.148,0.2091-0.2219,0.4504-0.2219,0.724c0,0.3725,0.1078,0.6766,0.3236,0.9121c0.2158,0.2357,0.484,0.3534,0.8048,0.3534
				C72.1931,165.5508,72.603,165.3268,72.9977,164.8782z M71.8045,161.6971c0.3453-0.2204,0.6105-0.439,0.7955-0.6557
				c0.185-0.2166,0.2775-0.4732,0.2775-0.7697c0-0.2431-0.0663-0.439-0.1989-0.5871c-0.1327-0.1482-0.3068-0.2224-0.5227-0.2224
				c-0.2343,0-0.424,0.0875-0.5688,0.2622c-0.1449,0.175-0.2173,0.3954-0.2173,0.6614
				C71.3698,160.7584,71.5146,161.1954,71.8045,161.6971z"/>
			<path class="st0" d="M78.8526,158.6185h1.4153l2.1458,5.1422l2.1275-5.1422h1.4151v7.9813h-1.1376v-5.7237l-2.0164,4.9027
				h-0.7955l-2.0257-4.9027v5.7237h-1.1284V158.6185z"/>
			<path class="st0" d="M90.6642,166.5998v-0.7411c-0.1727,0.2661-0.3947,0.4674-0.6659,0.6042
				c-0.2714,0.1369-0.5828,0.2053-0.9343,0.2053c-0.3453,0-0.649-0.0816-0.9111-0.2451c-0.2621-0.1634-0.464-0.3895-0.6058-0.6785
				c-0.142-0.2887-0.2128-0.6117-0.2128-0.9691c0-0.57,0.1633-1.0165,0.4901-1.3397c0.3269-0.323,0.7893-0.4883,1.3875-0.4961
				h1.4429v-0.1596c0-0.3571-0.0956-0.6345-0.2867-0.8323c-0.1912-0.1976-0.4688-0.2965-0.8324-0.2965
				c-0.4688,0-0.959,0.1902-1.4707,0.5702l-0.4347-1.0262c0.3884-0.2659,0.7414-0.4579,1.0591-0.5758
				c0.3174-0.1178,0.689-0.1767,1.1145-0.1767c0.6412,0,1.1391,0.1902,1.4938,0.5702c0.3545,0.3802,0.5349,0.9121,0.5411,1.5963
				l0.0093,3.9906H90.6642z M90.2387,165.226c0.2467-0.2013,0.3854-0.4504,0.4162-0.7469v-0.5473h-1.2486
				c-0.3207,0-0.5566,0.059-0.7076,0.1767c-0.1512,0.1179-0.2267,0.3098-0.2267,0.5758c0,0.2584,0.0787,0.4637,0.236,0.6157
				c0.1572,0.1521,0.3715,0.228,0.6429,0.228C89.696,165.5281,89.992,165.4274,90.2387,165.226z"/>
			<path class="st0" d="M94.5214,158.1283c0.1295,0.1674,0.1941,0.3802,0.1941,0.6386c0,0.2508-0.0646,0.4599-0.1941,0.627
				c-0.1295,0.1674-0.293,0.2509-0.4903,0.2509c-0.1973,0-0.3608-0.0835-0.4903-0.2509c-0.1294-0.1671-0.1941-0.3762-0.1941-0.627
				c0-0.2584,0.0648-0.4712,0.1941-0.6386c0.1295-0.1671,0.2929-0.2508,0.4903-0.2508
				C94.2285,157.8775,94.3919,157.9612,94.5214,158.1283z M93.4391,160.4998h1.2025v6.1h-1.2025V160.4998z"/>
			<path class="st0" d="M100.6906,161.0756c0.3269,0.4219,0.4903,0.994,0.4903,1.716v3.8082h-1.2117v-3.3749
				c0-0.4257-0.0988-0.762-0.296-1.0091c-0.1975-0.2468-0.4657-0.3705-0.8048-0.3705c-0.4009,0.0076-0.7168,0.175-0.948,0.5017
				c-0.2312,0.3269-0.3469,0.7451-0.3469,1.2541v2.9987h-1.2025v-6.1h1.2025v1.1402c0.3391-0.7828,0.9311-1.1817,1.7759-1.1972
				C99.9167,160.4428,100.3638,160.6538,100.6906,161.0756z"/>
			<path class="st0" d="M105.6668,166.2236c-0.3947,0.2963-0.8078,0.4446-1.2395,0.4446c-0.4254,0-0.7739-0.154-1.0452-0.4617
				c-0.2714-0.3079-0.4069-0.762-0.4069-1.3626v-3.0101h-0.6937l-0.0093-1.0831h0.703v-1.6761h1.1932v1.6761h1.4151v1.0831h-1.4151
				v2.7479c0,0.2813,0.0431,0.4808,0.1295,0.5986c0.0861,0.1179,0.2157,0.1767,0.3884,0.1767c0.185,0,0.4193-0.0835,0.703-0.2508
				L105.6668,166.2236z"/>
			<path class="st0" d="M110.6479,161.2865c0.3977,0.5551,0.5966,1.334,0.5966,2.3373c0,0.1978-0.0032,0.3461-0.0093,0.4448h-3.6536
				c0.08,0.4332,0.2451,0.7735,0.4949,1.0204c0.2497,0.2471,0.5564,0.3705,0.9204,0.3705c0.2528,0,0.4949-0.0588,0.7261-0.1767
				c0.2312-0.1178,0.4332-0.2868,0.6058-0.5074l0.6475,0.8323c-0.2467,0.3347-0.5473,0.5929-0.9018,0.7755
				c-0.3547,0.1824-0.7478,0.2735-1.1793,0.2735c-0.5057,0-0.9512-0.1291-1.3366-0.3876c-0.3855-0.2583-0.683-0.6213-0.8926-1.0889
				c-0.2097-0.4675-0.3145-1.0052-0.3145-1.6134c0-0.608,0.1063-1.1477,0.3191-1.619c0.2128-0.4712,0.5101-0.8381,0.8926-1.1003
				c0.3823-0.2622,0.817-0.3933,1.3042-0.3933C109.6565,160.4543,110.2502,160.7318,110.6479,161.2865z M110.1437,163.0766
				c-0.0124-0.4484-0.1327-0.8055-0.3608-1.0718c-0.2282-0.2659-0.5303-0.3991-0.9063-0.3991c-0.3516,0-0.6461,0.1312-0.8834,0.3934
				c-0.2375,0.2623-0.3838,0.6213-0.4393,1.0774H110.1437z"/>
			<path class="st0" d="M116.8403,161.0756c0.3269,0.4219,0.4903,0.994,0.4903,1.716v3.8082h-1.2117v-3.3749
				c0-0.4257-0.0988-0.762-0.296-1.0091c-0.1975-0.2468-0.4657-0.3705-0.8048-0.3705c-0.4009,0.0076-0.7168,0.175-0.948,0.5017
				c-0.2312,0.3269-0.3469,0.7451-0.3469,1.2541v2.9987h-1.2025v-6.1h1.2025v1.1402c0.3391-0.7828,0.9311-1.1817,1.7759-1.1972
				C116.0664,160.4428,116.5135,160.6538,116.8403,161.0756z"/>
			<path class="st0" d="M121.8443,166.5998v-0.7411c-0.1727,0.2661-0.3947,0.4674-0.6659,0.6042
				c-0.2714,0.1369-0.5828,0.2053-0.9343,0.2053c-0.3453,0-0.649-0.0816-0.9111-0.2451c-0.2621-0.1634-0.464-0.3895-0.6058-0.6785
				c-0.142-0.2887-0.2128-0.6117-0.2128-0.9691c0-0.57,0.1633-1.0165,0.4901-1.3397c0.3269-0.323,0.7893-0.4883,1.3875-0.4961
				h1.4429v-0.1596c0-0.3571-0.0956-0.6345-0.2867-0.8323c-0.1912-0.1976-0.4688-0.2965-0.8324-0.2965
				c-0.4688,0-0.959,0.1902-1.4707,0.5702l-0.4347-1.0262c0.3884-0.2659,0.7414-0.4579,1.0591-0.5758
				c0.3174-0.1178,0.689-0.1767,1.1145-0.1767c0.6412,0,1.1391,0.1902,1.4938,0.5702c0.3545,0.3802,0.5349,0.9121,0.5412,1.5963
				l0.0093,3.9906H121.8443z M121.4188,165.226c0.2467-0.2013,0.3854-0.4504,0.4162-0.7469v-0.5473h-1.2486
				c-0.3207,0-0.5566,0.059-0.7076,0.1767c-0.1512,0.1179-0.2267,0.3098-0.2267,0.5758c0,0.2584,0.0787,0.4637,0.236,0.6157
				c0.1572,0.1521,0.3715,0.228,0.6429,0.228C120.8761,165.5281,121.1721,165.4274,121.4188,165.226z"/>
			<path class="st0" d="M128.9386,161.0756c0.3268,0.4219,0.4903,0.994,0.4903,1.716v3.8082h-1.2117v-3.3749
				c0-0.4257-0.0988-0.762-0.296-1.0091c-0.1975-0.2468-0.4657-0.3705-0.8048-0.3705c-0.4009,0.0076-0.7168,0.175-0.948,0.5017
				c-0.2312,0.3269-0.3469,0.7451-0.3469,1.2541v2.9987h-1.2025v-6.1h1.2025v1.1402c0.3391-0.7828,0.9311-1.1817,1.7759-1.1972
				C128.1647,160.4428,128.6118,160.6538,128.9386,161.0756z"/>
			<path class="st0" d="M133.1287,161.7541c-0.4009,0-0.7261,0.1673-0.9758,0.5016c-0.2497,0.3346-0.3747,0.768-0.3747,1.2999
				c0,0.5473,0.1249,0.9882,0.3747,1.3226c0.2497,0.3345,0.5749,0.5016,0.9758,0.5016c0.592,0,1.0359-0.2393,1.3319-0.7182
				l0.7493,0.7638c-0.2221,0.3953-0.515,0.6994-0.8788,0.9121c-0.3638,0.2129-0.7861,0.3192-1.2671,0.3192
				c-0.4872,0-0.9204-0.1291-1.2996-0.3876c-0.3793-0.2583-0.6737-0.6213-0.8833-1.0889c-0.2097-0.4675-0.3145-1.0052-0.3145-1.6134
				c0-0.6157,0.1063-1.159,0.3191-1.6305c0.2128-0.4712,0.5088-0.8361,0.888-1.0945c0.3792-0.2583,0.8155-0.3876,1.3088-0.3876
				c0.4501,0,0.8524,0.0968,1.2071,0.2907c0.3545,0.1938,0.6429,0.4695,0.8648,0.8268l-0.7307,0.855
				C134.0906,161.9783,133.6588,161.7541,133.1287,161.7541z"/>
			<path class="st0" d="M140.1445,161.2865c0.3977,0.5551,0.5966,1.334,0.5966,2.3373c0,0.1978-0.0032,0.3461-0.0093,0.4448h-3.6536
				c0.08,0.4332,0.2451,0.7735,0.4949,1.0204c0.2497,0.2471,0.5564,0.3705,0.9204,0.3705c0.2528,0,0.4949-0.0588,0.7261-0.1767
				c0.2312-0.1178,0.4332-0.2868,0.6058-0.5074l0.6474,0.8323c-0.2467,0.3347-0.5473,0.5929-0.9017,0.7755
				c-0.3547,0.1824-0.7478,0.2735-1.1793,0.2735c-0.5057,0-0.9512-0.1291-1.3366-0.3876c-0.3855-0.2583-0.683-0.6213-0.8926-1.0889
				c-0.2097-0.4675-0.3145-1.0052-0.3145-1.6134c0-0.608,0.1063-1.1477,0.3191-1.619c0.2128-0.4712,0.5101-0.8381,0.8926-1.1003
				c0.3823-0.2622,0.817-0.3933,1.3042-0.3933C139.1531,160.4543,139.7468,160.7318,140.1445,161.2865z M139.6403,163.0766
				c-0.0124-0.4484-0.1327-0.8055-0.3608-1.0718c-0.2282-0.2659-0.5303-0.3991-0.9063-0.3991c-0.3516,0-0.6461,0.1312-0.8834,0.3934
				c-0.2375,0.2623-0.3838,0.6213-0.4393,1.0774H139.6403z"/>
			<path class="st0" d="M148.0436,160.8419c0.3915,0.2584,0.6968,0.6213,0.9157,1.0889s0.3284,1.0053,0.3284,1.6134
				c0,0.6157-0.1095,1.1593-0.3284,1.6305c-0.2189,0.4713-0.5242,0.8362-0.9157,1.0945c-0.3916,0.2586-0.8433,0.3876-1.3551,0.3876
				c-0.5179,0-0.9743-0.1291-1.369-0.3876c-0.3947-0.2583-0.7015-0.6232-0.9202-1.0945c-0.219-0.4712-0.3284-1.0148-0.3284-1.6305
				c0-0.608,0.1094-1.1458,0.3284-1.6134c0.2187-0.4675,0.5256-0.8304,0.9202-1.0889c0.3947-0.2583,0.851-0.3876,1.369-0.3876
				C147.2003,160.4543,147.652,160.5836,148.0436,160.8419z M145.6711,162.2329c-0.259,0.3421-0.3886,0.7867-0.3886,1.334
				c0,0.5473,0.1295,0.992,0.3886,1.334c0.2589,0.3421,0.598,0.513,1.0174,0.513c0.407,0,0.74-0.1709,0.9989-0.513
				c0.259-0.342,0.3885-0.7867,0.3885-1.334c0-0.5473-0.1295-0.9919-0.3885-1.334c-0.2589-0.342-0.5919-0.513-0.9989-0.513
				C146.2691,161.7199,145.93,161.8909,145.6711,162.2329z"/>
			<path class="st0" d="M152.1226,159.5421c-0.1202,0.1294-0.1804,0.3232-0.1804,0.5815v0.6271h1.2395v1.0831h-1.2395v4.766h-1.2023
				v-4.766h-0.6474v-1.0831h0.6474v-0.5815c0-0.4484,0.08-0.8304,0.2404-1.146c0.1604-0.3152,0.3747-0.5529,0.6429-0.7125
				c0.2682-0.1596,0.5596-0.2395,0.8741-0.2395c0.3082,0,0.6105,0.0875,0.9065,0.2623l-0.2128,1.1972
				c-0.2467-0.1214-0.4503-0.1824-0.6105-0.1824C152.3955,159.3483,152.243,159.4129,152.1226,159.5421z"/>
			<path class="st0" d="M161.1178,159.1259c0.5117,0.3383,0.9124,0.8115,1.2025,1.4195c0.2897,0.6082,0.4347,1.2961,0.4347,2.0638
				c0,0.7678-0.1466,1.4536-0.4394,2.058c-0.293,0.6042-0.6983,1.0774-1.2162,1.4195c-0.5181,0.342-1.1069,0.513-1.7667,0.513
				h-2.6454v-7.9813h2.6917C160.0263,158.6185,160.6058,158.7878,161.1178,159.1259z M160.4749,164.918
				c0.3175-0.2241,0.5657-0.5358,0.7446-0.9349c0.1789-0.3991,0.2682-0.8532,0.2682-1.3626c0-0.5091-0.0924-0.9671-0.2775-1.3739
				c-0.185-0.4066-0.4393-0.722-0.7631-0.9464c-0.3237-0.2241-0.6859-0.3363-1.0867-0.3363h-1.4337v5.2904h1.4799
				C159.8012,165.2544,160.1572,165.1424,160.4749,164.918z"/>
			<path class="st0" d="M167.8747,161.2865c0.3977,0.5551,0.5966,1.334,0.5966,2.3373c0,0.1978-0.0032,0.3461-0.0093,0.4448h-3.6536
				c0.08,0.4332,0.2451,0.7735,0.4949,1.0204c0.2497,0.2471,0.5564,0.3705,0.9204,0.3705c0.2528,0,0.4949-0.0588,0.7261-0.1767
				c0.2312-0.1178,0.4332-0.2868,0.6058-0.5074l0.6475,0.8323c-0.2467,0.3347-0.5473,0.5929-0.9018,0.7755
				c-0.3547,0.1824-0.7478,0.2735-1.1793,0.2735c-0.5057,0-0.9512-0.1291-1.3366-0.3876c-0.3855-0.2583-0.683-0.6213-0.8926-1.0889
				c-0.2097-0.4675-0.3145-1.0052-0.3145-1.6134c0-0.608,0.1063-1.1477,0.3191-1.619c0.2128-0.4712,0.5101-0.8381,0.8926-1.1003
				c0.3823-0.2622,0.817-0.3933,1.3042-0.3933C166.8833,160.4543,167.477,160.7318,167.8747,161.2865z M167.3705,163.0766
				c-0.0124-0.4484-0.1327-0.8055-0.3608-1.0718c-0.2282-0.2659-0.5303-0.3991-0.9063-0.3991c-0.3516,0-0.6461,0.1312-0.8834,0.3934
				c-0.2375,0.2623-0.3838,0.6213-0.4393,1.0774H167.3705z"/>
			<path class="st0" d="M171.8566,161.7541c-0.4009,0-0.7261,0.1673-0.9758,0.5016c-0.2497,0.3346-0.3747,0.768-0.3747,1.2999
				c0,0.5473,0.1249,0.9882,0.3747,1.3226c0.2497,0.3345,0.5749,0.5016,0.9758,0.5016c0.592,0,1.0359-0.2393,1.3319-0.7182
				l0.7493,0.7638c-0.2221,0.3953-0.515,0.6994-0.8788,0.9121c-0.3638,0.2129-0.7861,0.3192-1.2671,0.3192
				c-0.4872,0-0.9204-0.1291-1.2997-0.3876c-0.3792-0.2583-0.6737-0.6213-0.8833-1.0889c-0.2097-0.4675-0.3145-1.0052-0.3145-1.6134
				c0-0.6157,0.1063-1.159,0.3191-1.6305c0.2128-0.4712,0.5088-0.8361,0.888-1.0945c0.3792-0.2583,0.8155-0.3876,1.3088-0.3876
				c0.4501,0,0.8524,0.0968,1.2071,0.2907c0.3545,0.1938,0.6429,0.4695,0.8648,0.8268l-0.7307,0.855
				C172.8185,161.9783,172.3867,161.7541,171.8566,161.7541z"/>
			<path class="st0" d="M178.5486,160.8419c0.3915,0.2584,0.6968,0.6213,0.9157,1.0889s0.3284,1.0053,0.3284,1.6134
				c0,0.6157-0.1095,1.1593-0.3284,1.6305c-0.2189,0.4713-0.5242,0.8362-0.9157,1.0945c-0.3916,0.2586-0.8433,0.3876-1.3551,0.3876
				c-0.5179,0-0.9743-0.1291-1.369-0.3876c-0.3947-0.2583-0.7015-0.6232-0.9202-1.0945c-0.219-0.4712-0.3284-1.0148-0.3284-1.6305
				c0-0.608,0.1094-1.1458,0.3284-1.6134c0.2187-0.4675,0.5256-0.8304,0.9202-1.0889c0.3947-0.2583,0.851-0.3876,1.369-0.3876
				C177.7053,160.4543,178.157,160.5836,178.5486,160.8419z M176.1761,162.2329c-0.259,0.3421-0.3885,0.7867-0.3885,1.334
				c0,0.5473,0.1295,0.992,0.3885,1.334c0.2589,0.3421,0.598,0.513,1.0174,0.513c0.407,0,0.74-0.1709,0.9989-0.513
				c0.259-0.342,0.3886-0.7867,0.3886-1.334c0-0.5473-0.1295-0.9919-0.3886-1.334c-0.2589-0.342-0.5919-0.513-0.9989-0.513
				C176.7741,161.7199,176.435,161.8909,176.1761,162.2329z"/>
			<path class="st0" d="M182.9605,160.7679c0.2867-0.2089,0.6212-0.3174,1.0036-0.325v1.4366
				c-0.512-0.0379-0.9204,0.1083-1.2256,0.439c-0.3053,0.3307-0.4579,0.7773-0.4579,1.3396v2.9417h-1.2025v-6.1h1.2025v1.1744
				C182.4472,161.2791,182.6739,160.977,182.9605,160.7679z"/>
			<path class="st0" d="M187.7935,166.5998v-0.7411c-0.1727,0.2661-0.3947,0.4674-0.6659,0.6042
				c-0.2714,0.1369-0.5828,0.2053-0.9343,0.2053c-0.3453,0-0.649-0.0816-0.9111-0.2451c-0.2621-0.1634-0.464-0.3895-0.6058-0.6785
				c-0.142-0.2887-0.2128-0.6117-0.2128-0.9691c0-0.57,0.1633-1.0165,0.4901-1.3397c0.3269-0.323,0.7893-0.4883,1.3875-0.4961
				h1.4429v-0.1596c0-0.3571-0.0956-0.6345-0.2867-0.8323c-0.1912-0.1976-0.4688-0.2965-0.8324-0.2965
				c-0.4688,0-0.959,0.1902-1.4707,0.5702l-0.4347-1.0262c0.3884-0.2659,0.7414-0.4579,1.0591-0.5758
				c0.3174-0.1178,0.689-0.1767,1.1145-0.1767c0.6412,0,1.1391,0.1902,1.4938,0.5702c0.3545,0.3802,0.5349,0.9121,0.5412,1.5963
				l0.0093,3.9906H187.7935z M187.3679,165.226c0.2467-0.2013,0.3854-0.4504,0.4162-0.7469v-0.5473h-1.2486
				c-0.3207,0-0.5566,0.059-0.7076,0.1767c-0.1512,0.1179-0.2267,0.3098-0.2267,0.5758c0,0.2584,0.0787,0.4637,0.236,0.6157
				c0.1572,0.1521,0.3715,0.228,0.6429,0.228C186.8253,165.5281,187.1213,165.4274,187.3679,165.226z"/>
			<path class="st0" d="M193.4634,166.2236c-0.3947,0.2963-0.8078,0.4446-1.2395,0.4446c-0.4254,0-0.7739-0.154-1.0452-0.4617
				c-0.2714-0.3079-0.4069-0.762-0.4069-1.3626v-3.0101h-0.6937l-0.0093-1.0831h0.703v-1.6761h1.1932v1.6761h1.4151v1.0831h-1.4151
				v2.7479c0,0.2813,0.0431,0.4808,0.1295,0.5986c0.0862,0.1179,0.2157,0.1767,0.3884,0.1767c0.185,0,0.4193-0.0835,0.703-0.2508
				L193.4634,166.2236z"/>
			<path class="st0" d="M195.7295,158.1283c0.1295,0.1674,0.1941,0.3802,0.1941,0.6386c0,0.2508-0.0646,0.4599-0.1941,0.627
				c-0.1295,0.1674-0.293,0.2509-0.4903,0.2509c-0.1973,0-0.3608-0.0835-0.4903-0.2509c-0.1294-0.1671-0.1941-0.3762-0.1941-0.627
				c0-0.2584,0.0648-0.4712,0.1941-0.6386c0.1295-0.1671,0.293-0.2508,0.4903-0.2508
				C195.4366,157.8775,195.6,157.9612,195.7295,158.1283z M194.6472,160.4998h1.2025v6.1h-1.2025V160.4998z"/>
			<path class="st0" d="M201.0988,160.8419c0.3915,0.2584,0.6968,0.6213,0.9157,1.0889s0.3284,1.0053,0.3284,1.6134
				c0,0.6157-0.1095,1.1593-0.3284,1.6305c-0.2189,0.4713-0.5242,0.8362-0.9157,1.0945c-0.3916,0.2586-0.8433,0.3876-1.3551,0.3876
				c-0.5179,0-0.9743-0.1291-1.369-0.3876c-0.3947-0.2583-0.7015-0.6232-0.9202-1.0945c-0.219-0.4712-0.3284-1.0148-0.3284-1.6305
				c0-0.608,0.1094-1.1458,0.3284-1.6134c0.2187-0.4675,0.5256-0.8304,0.9202-1.0889c0.3947-0.2583,0.851-0.3876,1.369-0.3876
				C200.2556,160.4543,200.7072,160.5836,201.0988,160.8419z M198.7264,162.2329c-0.259,0.3421-0.3886,0.7867-0.3886,1.334
				c0,0.5473,0.1295,0.992,0.3886,1.334c0.2589,0.3421,0.598,0.513,1.0174,0.513c0.407,0,0.74-0.1709,0.9989-0.513
				c0.259-0.342,0.3886-0.7867,0.3886-1.334c0-0.5473-0.1295-0.9919-0.3886-1.334c-0.2589-0.342-0.5919-0.513-0.9989-0.513
				C199.3243,161.7199,198.9853,161.8909,198.7264,162.2329z"/>
			<path class="st0" d="M207.948,161.0756c0.3269,0.4219,0.4903,0.994,0.4903,1.716v3.8082h-1.2117v-3.3749
				c0-0.4257-0.0988-0.762-0.296-1.0091c-0.1975-0.2468-0.4657-0.3705-0.8048-0.3705c-0.4009,0.0076-0.7168,0.175-0.948,0.5017
				c-0.2312,0.3269-0.3469,0.7451-0.3469,1.2541v2.9987h-1.2025v-6.1h1.2025v1.1402c0.3391-0.7828,0.9311-1.1817,1.7759-1.1972
				C207.1741,160.4428,207.6212,160.6538,207.948,161.0756z"/>
			<path class="st0" d="M217.0767,159.3369c0.4471,0.4788,0.6705,1.1555,0.6705,2.0296c0,0.9121-0.2235,1.621-0.6705,2.1264
				c-0.4472,0.5056-1.0776,0.7582-1.8915,0.7582h-1.4153v2.3488h-1.2395v-7.9813h2.6547
				C215.9991,158.6185,216.6294,158.858,217.0767,159.3369z M216.198,162.5294c0.2497-0.2508,0.3745-0.6232,0.3745-1.1174
				c0-0.4863-0.1248-0.8512-0.3745-1.0945c-0.2497-0.2431-0.6091-0.3649-1.0776-0.3649h-1.3505v2.9532h1.3505
				C215.5888,162.9057,215.9482,162.7802,216.198,162.5294z"/>
			<path class="st0" d="M219.0143,158.1397h1.2025v8.4601h-1.2025V158.1397z"/>
			<path class="st0" d="M224.9247,166.5998v-0.7411c-0.1727,0.2661-0.3947,0.4674-0.6659,0.6042
				c-0.2714,0.1369-0.5829,0.2053-0.9343,0.2053c-0.3453,0-0.649-0.0816-0.9111-0.2451c-0.2621-0.1634-0.464-0.3895-0.6058-0.6785
				c-0.142-0.2887-0.2128-0.6117-0.2128-0.9691c0-0.57,0.1633-1.0165,0.4901-1.3397c0.3269-0.323,0.7894-0.4883,1.3875-0.4961
				h1.4429v-0.1596c0-0.3571-0.0956-0.6345-0.2867-0.8323c-0.1912-0.1976-0.4688-0.2965-0.8324-0.2965
				c-0.4688,0-0.959,0.1902-1.4707,0.5702l-0.4347-1.0262c0.3884-0.2659,0.7414-0.4579,1.0591-0.5758
				c0.3174-0.1178,0.689-0.1767,1.1145-0.1767c0.6412,0,1.1391,0.1902,1.4938,0.5702c0.3545,0.3802,0.5349,0.9121,0.5412,1.5963
				l0.0093,3.9906H224.9247z M224.4992,165.226c0.2467-0.2013,0.3854-0.4504,0.4162-0.7469v-0.5473h-1.2486
				c-0.3208,0-0.5566,0.059-0.7076,0.1767c-0.1512,0.1179-0.2267,0.3098-0.2267,0.5758c0,0.2584,0.0787,0.4637,0.236,0.6157
				c0.1572,0.1521,0.3715,0.228,0.6429,0.228C223.9565,165.5281,224.2525,165.4274,224.4992,165.226z"/>
			<path class="st0" d="M232.0191,161.0756c0.3269,0.4219,0.4903,0.994,0.4903,1.716v3.8082h-1.2117v-3.3749
				c0-0.4257-0.0988-0.762-0.296-1.0091c-0.1975-0.2468-0.4657-0.3705-0.8048-0.3705c-0.4009,0.0076-0.7168,0.175-0.948,0.5017
				c-0.2312,0.3269-0.3469,0.7451-0.3469,1.2541v2.9987h-1.2025v-6.1h1.2025v1.1402c0.3391-0.7828,0.9311-1.1817,1.7759-1.1972
				C231.2452,160.4428,231.6922,160.6538,232.0191,161.0756z"/>
			<path class="st0" d="M236.9953,166.2236c-0.3947,0.2963-0.8078,0.4446-1.2395,0.4446c-0.4254,0-0.7739-0.154-1.0452-0.4617
				c-0.2714-0.3079-0.4069-0.762-0.4069-1.3626v-3.0101H233.61l-0.0093-1.0831h0.703v-1.6761h1.1932v1.6761h1.4151v1.0831h-1.4151
				v2.7479c0,0.2813,0.0431,0.4808,0.1295,0.5986c0.0861,0.1179,0.2157,0.1767,0.3884,0.1767c0.185,0,0.4193-0.0835,0.703-0.2508
				L236.9953,166.2236z"/>
			<path class="st0" d="M240.3668,161.7426c-0.256-0.0987-0.492-0.1482-0.7076-0.1482c-0.2036,0-0.3653,0.0438-0.4857,0.1311
				c-0.1202,0.0875-0.1804,0.2224-0.1804,0.4048c0,0.1902,0.0754,0.3365,0.2267,0.439c0.1511,0.1026,0.3899,0.2109,0.7169,0.325
				c0.3452,0.1294,0.629,0.2565,0.8509,0.382c0.2219,0.1254,0.4147,0.3117,0.5781,0.5586c0.1633,0.2471,0.2451,0.5721,0.2451,0.9749
				c0,0.5929-0.185,1.049-0.555,1.3682c-0.3699,0.3192-0.8356,0.4788-1.3966,0.4788c-0.3824,0-0.7554-0.0741-1.1192-0.2222
				c-0.364-0.1483-0.6722-0.3592-0.925-0.6328l0.4162-1.0377c0.2221,0.2358,0.4871,0.4202,0.7955,0.5531
				c0.3084,0.133,0.6013,0.1995,0.8788,0.1995c0.2219,0,0.3991-0.0473,0.5318-0.1425c0.1324-0.095,0.1989-0.2375,0.1989-0.4275
				c0-0.2128-0.0773-0.3724-0.2312-0.4788c-0.1543-0.1065-0.404-0.2242-0.7493-0.3536c-0.333-0.1214-0.6044-0.2412-0.8139-0.3591
				c-0.2097-0.1178-0.3916-0.2965-0.5457-0.536c-0.1541-0.2393-0.2312-0.5529-0.2312-0.9406c0-0.6004,0.1772-1.0585,0.5318-1.3739
				c0.3547-0.3154,0.8002-0.4732,1.3366-0.4732c0.3269,0,0.649,0.057,0.9667,0.1709c0.3175,0.1141,0.5996,0.2737,0.8463,0.479
				l-0.4347,1.0718C240.8708,161.9783,240.6225,161.8416,240.3668,161.7426z"/>
		</g>
		<g>
			<path class="st0" d="M26.8314,133.7619H14.3739c-1.0585,0-1.9165,0.858-1.9165,1.9165s0.858,1.9165,1.9165,1.9165h10.3658
				c-0.9038,4.9004-5.2078,8.6244-10.3658,8.6244c-5.8123,0-10.5409-4.7286-10.5409-10.5409s4.7286-10.5409,10.5409-10.5409
				c2.7376,0,5.3317,1.0445,7.3045,2.9412c0.7631,0.7337,1.9764,0.7097,2.7098-0.0533c0.7337-0.7631,0.7098-1.9762-0.0532-2.7098
				c-2.6904-2.5867-6.2281-4.0112-9.9611-4.0112C6.4482,121.3045,0,127.7527,0,135.6785s6.4482,14.3739,14.3739,14.3739
				s14.3739-6.4482,14.3739-14.3739C28.7479,134.62,27.8898,133.7619,26.8314,133.7619z"/>
			<path class="st0" d="M54.6246,131.8454c-5.0196,0-9.1035,4.0838-9.1035,9.1035c0,5.0196,4.0838,9.1035,9.1035,9.1035
				c2.3643,0,4.6048-0.9022,6.3087-2.5405c0.7631-0.7336,0.7869-1.9469,0.0532-2.7098c-0.7336-0.7632-1.9468-0.7868-2.7098-0.0533
				c-0.9863,0.9483-2.2834,1.4705-3.6522,1.4705c-2.9061,0-5.2704-2.3643-5.2704-5.2704c0-2.9061,2.3643-5.2704,5.2704-5.2704
				c2.2301,0,4.1397,1.3929,4.9081,3.3539h-4.9081c-1.0585,0-1.9165,0.858-1.9165,1.9165s0.858,1.9165,1.9165,1.9165h7.187
				c1.0585,0,1.9165-0.858,1.9165-1.9165C63.7281,135.9292,59.6442,131.8454,54.6246,131.8454z"/>
			<path class="st0" d="M75.7082,131.8454c-5.0197,0-9.1035,4.0838-9.1035,9.1035c0,5.0196,4.0838,9.1035,9.1035,9.1035
				c2.3643,0,4.6048-0.9022,6.3087-2.5405c0.7631-0.7336,0.7869-1.9469,0.0532-2.7098c-0.7336-0.7632-1.9468-0.7868-2.7098-0.0533
				c-0.9863,0.9483-2.2834,1.4705-3.6522,1.4705c-2.9061,0-5.2704-2.3643-5.2704-5.2704c0-2.9061,2.3643-5.2704,5.2704-5.2704
				c2.2301,0,4.1397,1.3929,4.9081,3.3539h-4.9081c-1.0585,0-1.9165,0.858-1.9165,1.9165s0.858,1.9165,1.9165,1.9165h7.187
				c1.0585,0,1.9165-0.858,1.9165-1.9165C84.8117,135.9292,80.7278,131.8454,75.7082,131.8454z"/>
			<path class="st0" d="M40.728,131.8454c-1.9687,0-3.7934,0.6284-5.2842,1.6948c-0.1101-0.9539-0.9193-1.6948-1.9027-1.6948
				c-1.0585,0-1.9165,0.858-1.9165,1.9165v14.3739c0,1.0585,0.858,1.9165,1.9165,1.9165s1.9165-0.858,1.9165-1.9165v-7.187
				c0-2.9061,2.3643-5.2704,5.2704-5.2704c1.0585,0,1.9165-0.858,1.9165-1.9165S41.7865,131.8454,40.728,131.8454z"/>
			<path class="st0" d="M96.7918,131.8454c-1.9687,0-3.7934,0.6284-5.2842,1.6948c-0.1101-0.9539-0.9193-1.6948-1.9027-1.6948
				c-1.0585,0-1.9165,0.858-1.9165,1.9165v14.3739c0,1.0585,0.858,1.9165,1.9165,1.9165s1.9165-0.858,1.9165-1.9165v-7.187
				c0-2.9061,2.3643-5.2704,5.2704-5.2704s5.2704,2.3643,5.2704,5.2704v7.187c0,1.0585,0.858,1.9165,1.9165,1.9165
				s1.9165-0.858,1.9165-1.9165v-7.187C105.8953,135.9292,101.8114,131.8454,96.7918,131.8454z"/>
			<path class="st0" d="M211.4238,131.8454c-5.0197,0-9.1035,4.0838-9.1035,9.1035c0,5.0196,4.0838,9.1035,9.1035,9.1035
				c2.3643,0,4.6048-0.9022,6.3087-2.5405c0.763-0.7336,0.7869-1.9469,0.0532-2.7098c-0.7336-0.7632-1.9468-0.7869-2.7098-0.0533
				c-0.9863,0.9483-2.2834,1.4705-3.6521,1.4705c-2.9061,0-5.2704-2.3643-5.2704-5.2704c0-2.9061,2.3643-5.2704,5.2704-5.2704
				c2.2301,0,4.1397,1.3929,4.9081,3.3539h-4.9081c-1.0585,0-1.9165,0.858-1.9165,1.9165s0.858,1.9165,1.9165,1.9165h7.187
				c1.0585,0,1.9165-0.858,1.9165-1.9165C220.5272,135.9292,216.4434,131.8454,211.4238,131.8454z"/>
			<path class="st0" d="M141.4633,133.7619h-12.4574c-1.0585,0-1.9165,0.858-1.9165,1.9165s0.858,1.9165,1.9165,1.9165h10.3658
				c-0.9039,4.9004-5.2078,8.6244-10.3658,8.6244c-5.8123,0-10.5409-4.7286-10.5409-10.5409s4.7286-10.5409,10.5409-10.5409
				c2.7376,0,5.3318,1.0445,7.3046,2.9412c0.7632,0.7337,1.9764,0.7097,2.7098-0.0533c0.7337-0.7631,0.7098-1.9762-0.0533-2.7098
				c-2.6904-2.5867-6.228-4.0112-9.9612-4.0112c-7.9258,0-14.3739,6.4482-14.3739,14.3739s6.4482,14.3739,14.3739,14.3739
				s14.3739-6.4482,14.3739-14.3739C143.3799,134.62,142.5218,133.7619,141.4633,133.7619z"/>
			<path class="st0" d="M197.5271,121.3045c-1.0585,0-1.9165,0.858-1.9165,1.9165v10.3091
				c-1.4883-1.0604-3.3078-1.6848-5.2704-1.6848c-5.0196,0-9.1035,4.0838-9.1035,9.1035c0,5.0196,4.0838,9.1035,9.1035,9.1035
				c1.9688,0,3.7934-0.6284,5.2843-1.6948c0.11,0.9539,0.9193,1.6948,1.9027,1.6948c1.0585,0,1.9165-0.858,1.9165-1.9165V123.221
				C199.4436,122.1625,198.5856,121.3045,197.5271,121.3045z M190.3401,146.2193c-2.9061,0-5.2704-2.3643-5.2704-5.2704
				c0-2.9061,2.3643-5.2704,5.2704-5.2704c2.9061,0,5.2704,2.3643,5.2704,5.2704
				C195.6106,143.855,193.2463,146.2193,190.3401,146.2193z"/>
			<path class="st0" d="M176.4435,131.8454c-1.9688,0-3.7934,0.6284-5.2843,1.6948c-0.11-0.9539-0.9193-1.6948-1.9027-1.6948
				c-1.0585,0-1.9165,0.858-1.9165,1.9165v14.3739c0,1.0585,0.858,1.9165,1.9165,1.9165s1.9165-0.858,1.9165-1.9165v-7.187
				c0-2.9061,2.3643-5.2704,5.2704-5.2704c1.0585,0,1.9165-0.858,1.9165-1.9165S177.502,131.8454,176.4435,131.8454z"/>
			<path class="st0" d="M232.5073,131.8454c-1.9688,0-3.7934,0.6284-5.2843,1.6948c-0.11-0.9539-0.9193-1.6948-1.9027-1.6948
				c-1.0585,0-1.9165,0.858-1.9165,1.9165v14.3739c0,1.0585,0.858,1.9165,1.9165,1.9165s1.9165-0.858,1.9165-1.9165v-7.187
				c0-2.9061,2.3643-5.2704,5.2704-5.2704c2.9061,0,5.2704,2.3643,5.2704,5.2704v7.187c0,1.0585,0.858,1.9165,1.9165,1.9165
				s1.9165-0.858,1.9165-1.9165v-7.187C241.6108,135.9292,237.527,131.8454,232.5073,131.8454z"/>
			<path class="st0" d="M162.5469,131.8454c-0.9834,0-1.7927,0.741-1.9027,1.6948c-1.4909-1.0665-3.3155-1.6948-5.2842-1.6948
				c-5.0197,0-9.1035,4.0838-9.1035,9.1035c0,5.0196,4.0838,9.1035,9.1035,9.1035c1.9687,0,3.7934-0.6284,5.2842-1.6948
				c0.11,0.9539,0.9193,1.6948,1.9027,1.6948c1.0585,0,1.9165-0.858,1.9165-1.9165v-14.3739
				C164.4634,132.7034,163.6054,131.8454,162.5469,131.8454z M155.36,146.2193c-2.9061,0-5.2704-2.3643-5.2704-5.2704
				c0-2.9061,2.3643-5.2704,5.2704-5.2704c2.9061,0,5.2704,2.3643,5.2704,5.2704
				C160.6304,143.855,158.2661,146.2193,155.36,146.2193z"/>
		</g>
	</g>
	<g>
		<path class="st0" d="M154.5457,43.9492c-0.7242,0.1643-1.516,0.3228-2.4005,0.3713c-0.1964,0.0109-0.3989,0.0163-0.6026,0.0163
			c-0.7634,0-1.4668-0.077-1.9294-0.1347c-1.6701-0.2093-3.2646-0.642-4.7404-1.2869c-1.3773-0.602-2.6654-1.431-4.0538-2.6091
			l-4.2871-3.637l-2.6374,0.2557c-0.5243,0.0508-0.9938,0.0779-1.435,0.0828l-0.128,0.0007c-2.0719,0-4.1584-0.5361-6.2014-1.5933
			c-1.1202-0.5799-1.9991-1.2043-2.7662-1.9653c-0.6592-0.6534-1.2796-1.3996-1.896-2.2803
			c-1.9824-2.8332-3.0075-6.31-2.9646-10.0553c0.0038-0.3279,0.017-0.6577,0.0359-0.9887
			c-0.2299-0.0034-0.4593-0.0087-0.6899-0.0087h-0.0001c-25.1796,0-45.5916,20.4121-45.5916,45.5916v0.0001
			c0,25.1796,20.4121,45.5916,45.5916,45.5916h0.0001c25.1796,0,45.5917-20.4121,45.5917-45.5916v-0.0001
			c0-8.2391-2.1861-15.9674-6.0091-22.6375C156.5065,43.4282,155.5411,43.7234,154.5457,43.9492z M145.2015,65.7615
			c0,0.007-0.001,0.0137-0.0011,0.0208c-0.0061,2.1722-0.2723,4.3387-0.7871,6.4489c-1.0686,4.3801-3.2599,8.4783-6.2898,11.8149
			c-3.058,3.3675-6.9468,5.9953-11.2519,7.4852c-4.2506,1.471-8.8217,1.8971-13.269,1.2007
			c-4.3614-0.6829-8.5281-2.442-12.0671-5.0793c-3.41-2.5411-6.2853-5.9071-8.163-9.7319
			c-2.0021-4.0782-2.9901-8.5292-2.8649-13.0734c0.1072-3.8915,1.087-7.7613,2.8146-11.2482
			c1.5567-3.1421,3.7219-5.9754,6.339-8.3088c2.6124-2.3293,5.6687-4.1533,8.9637-5.3354c3.9245-1.408,8.1354-1.8793,12.2773-1.435
			c2.2791,0.2444,4.5279,0.7984,6.6706,1.6091c1.0888,0.412,2.1476,0.8998,3.174,1.4483c1.0069,0.5382,2.0576,1.1193,2.9456,1.8421
			c1.4791,1.2041,2.0531,3.2703,1.4131,5.0667c-0.6782,1.9035-2.5925,3.1518-4.6058,3.0168
			c-0.5073-0.0341-1.0083-0.154-1.4759-0.3537c-0.5279-0.2254-0.9786-0.5752-1.4616-0.8786
			c-0.9659-0.6067-1.9819-1.1252-3.0433-1.5434c-2.0428-0.8051-4.2313-1.2256-6.426-1.2552
			c-3.6969-0.0499-7.355,1.0476-10.4146,3.1221c-2.8046,1.9017-5.0636,4.5792-6.46,7.6672
			c-1.5936,3.5241-2.0267,7.544-1.1933,11.3242c0.9727,4.4118,3.5861,8.3703,7.2717,10.9886
			c3.5571,2.5272,7.9355,3.6846,12.2779,3.288c4.4324-0.4049,8.6252-2.5142,11.6463-5.7719
			c2.0561-2.2171,3.5159-4.9238,4.2711-7.8244h-13.0862c-2.518,0-4.5592-2.0412-4.5592-4.5591v-0.0001
			c0-2.5179,2.0412-4.5592,4.5592-4.5592h18.2367c2.5179,0,4.5591,2.0412,4.5591,4.5592
			C145.2016,65.7251,145.2016,65.7433,145.2015,65.7615z"/>
		<g>
			<path class="st0" d="M137.7205,30.8868c-0.3522-1.4525-0.476-2.9501-0.3679-4.4514c0.2102-2.9241,1.3398-5.7663,3.1804-8.0025
				c0.1449-0.176,0.2954-0.3469,0.4485-0.5154c-0.0347-0.0648-0.069-0.1297-0.1043-0.1942
				c-0.1401-0.2564-0.2845-0.5103-0.4324-0.7623c-0.2815-0.4793-0.5756-0.9511-0.8769-1.4182
				c-0.5877-0.9116-1.2025-1.8054-1.8051-2.7071c-1.2634-1.8903-2.457-3.835-3.4781-5.868c-0.551-1.097-1.0623-2.2206-1.4539-3.3852
				c-0.1912-0.5685-0.3567-1.149-0.4691-1.7385C132.2546,1.2823,132.1233,0.552,132.3286,0
				c-0.1499,0.1197-0.2696,0.3326-0.3875,0.4814c-0.2872,0.3623-0.5722,0.7265-0.8551,1.0922
				c-0.6965,0.9001-1.3707,1.813-2.0083,2.756c-1.7469,2.5833-3.2978,5.3185-4.4904,8.2033
				c-1.1286,2.7296-1.9469,5.6574-1.9809,8.6282c-0.0312,2.7201,0.6529,5.4114,2.2233,7.6556
				c0.4256,0.6083,0.8961,1.1966,1.4237,1.7197c0.5209,0.5164,1.1139,0.8984,1.7628,1.2343
				c1.3596,0.7037,2.8579,1.1502,4.398,1.1338c0.3622-0.0039,0.724-0.0288,1.0844-0.0638
				c-0.7927-1.5887-1.4097-3.2952-1.9422-4.9866c-0.5374-1.7074-0.9657-3.453-1.2583-5.2192
				c-0.5877-3.546-0.7087-7.2481-0.279-10.8185c0.1241-1.0318,0.295-2.0579,0.5054-3.0756
				c0.2134-1.0321,0.5024-2.0463,0.7116-3.0789c-0.0221,0.1293-0.0425,0.2588-0.0662,0.3878
				c0.0148-0.0574,0.0298-0.1148,0.0448-0.1721c-0.277,2.0755-0.4857,4.1468-0.4517,6.2434
				c0.0318,1.9606,0.2013,3.9174,0.5322,5.8505c0.6576,3.8429,1.9243,7.5329,3.7448,10.979
				c0.249,0.4712,0.5067,0.9379,0.7721,1.4001c0.2747,0.4781,0.59,0.9309,0.8669,1.4066c0.0393,0.0676,0.0661,0.1685,0.1564,0.1741
				c0.0847,0.0053,0.2271-0.1044,0.3012-0.1427c0.2402-0.1242,0.4735-0.2599,0.7032-0.4025
				c0.0034-0.0021,0.0074-0.004,0.0108-0.0061C137.8045,31.2162,137.7606,31.0518,137.7205,30.8868z"/>
			<path class="st0" d="M168.4012,20.2692c0.7968-4.4161,1.049-8.9363,0.92-13.4181c-0.0337-1.1714-0.1087-2.3378-0.2-3.5058
				c-0.1602,0.6224-0.6608,1.1396-1.0868,1.5973c-0.4366,0.469-0.9128,0.9002-1.412,1.3016
				c-1.0231,0.8226-2.1402,1.5208-3.2715,2.1832c-2.3462,1.374-4.8123,2.5323-7.3226,3.5724
				c-2.5671,1.0637-5.2205,1.9203-7.7526,3.0665c-1.256,0.5686-2.5159,1.1713-3.6711,1.928
				c-1.0481,0.6866-1.9901,1.5289-2.7865,2.4964c-1.6441,1.9975-2.6199,4.4858-2.8054,7.0641
				c-0.095,1.3196,0.0135,2.6536,0.3254,3.9395c0.1553,0.6405,0.3601,1.2693,0.612,1.8783
				c0.1258,0.3043,0.2728,0.5968,0.4119,0.8947c0.0641,0.1371,0.1077,0.3508,0.2184,0.4556
				c0.1268,0.1201,0.295-0.0331,0.4314-0.0957c0.3074-0.1411,0.6292-0.2538,0.9408-0.3855c0.6261-0.2645,1.2471-0.548,1.8609-0.8399
				c1.2758-0.6066,2.5109-1.2913,3.725-2.0121c2.4034-1.4267,4.6862-3.0781,6.79-4.9178
				c4.2725-3.7362,7.9001-8.2152,10.6077-13.2085c0.3379-0.6231,0.6657-1.2516,0.9929-1.8805
				c-0.4679,1.2306-0.973,2.4498-1.4888,3.6609c-0.9153,2.1489-2.0299,4.1993-3.2523,6.1887
				c-2.786,4.5341-6.3775,8.5722-10.4843,11.952c-2.2549,1.8558-4.6777,3.5688-7.2302,4.9925
				c0.9323,0.7911,1.9178,1.4865,3.0424,1.978c1.1436,0.4998,2.3687,0.8204,3.6063,0.9752c0.5928,0.0742,1.2006,0.126,1.7982,0.0932
				c0.5802-0.0318,1.1521-0.1477,1.7175-0.276c1.1499-0.2609,2.2737-0.6373,3.3404-1.1411
				c4.3142-2.0374,7.2467-5.9713,9.0615-10.2828C167.1527,25.8801,167.8926,23.088,168.4012,20.2692z"/>
		</g>
	</g>
</g>
</svg>
