<?xml version="1.0" encoding="utf-8"?>
<!-- Generator: Adobe Illustrator 22.0.1, SVG Export Plug-In . SVG Version: 6.00 Build 0)  -->
<svg version="1.1" id="Layer_1" xmlns="http://www.w3.org/2000/svg" xmlns:xlink="http://www.w3.org/1999/xlink" x="0px" y="0px"
	 viewBox="0 0 250 48.611" style="enable-background:new 0 0 250 48.611;" xml:space="preserve">
<style type="text/css">
	.st0{fill:#FFFFFF;}
</style>
<g>
	<g>
		<rect x="209.733" y="32.6961" class="st0" width="8.3903" height="15.9149"/>
		<rect x="127.2536" y="32.6961" class="st0" width="8.3903" height="15.9149"/>
		<path class="st0" d="M21.9739,20.1143v-0.0037h-7.7235c-3.2312,0-5.86-2.6291-5.86-5.8601s2.6288-5.8601,5.86-5.8601h38.6088V0
			H14.2503C6.3927,0,0,6.3927,0,14.2505S6.3927,28.501,14.2503,28.501h7.5778c3.2312,0,5.86,2.6285,5.86,5.8596
			s-2.6288,5.8601-5.86,5.8601H0v8.3903h21.9739v-0.0037c7.7904-0.0788,14.1046-6.4379,14.1046-14.2468
			C36.0785,26.5522,29.7643,20.1931,21.9739,20.1143z"/>
		<path class="st0" d="M201.3427,0h-41.3924v0.0011c-11.3823,0-21.0437,7.5006-24.3064,17.8179V0h-8.3904v20.1106h-8.3903V16.501
			c0-9.0988-7.4023-16.501-16.501-16.501s-16.501,7.4022-16.501,16.501v3.6096h-8.3903V0h-8.3903v20.1106H52.8592v-7.5251h-8.3903
			V48.611h8.3903V28.501h16.2213V48.611h8.3903V28.501h16.7807v-8.3903V16.501c0-4.4721,3.6384-8.1107,8.1107-8.1107
			c4.4723,0,8.1107,3.6385,8.1107,8.1107v3.6096h-7.8309v8.3903h7.8309V48.611h8.3903V28.501h12.5855
			c11.0889,0,20.1104,9.0213,20.1104,20.1101h8.3904c0-11.5652-6.9286-21.5363-16.8495-25.9999
			c1.3726-8.0613,8.4037-14.2197,16.8503-14.2197V8.3903h41.3924V0z"/>
		<path class="st0" d="M240.7328,27.5999C246.1398,25.5748,250,20.3558,250,14.2505C250,6.3927,243.6073,0,235.7497,0h-9.2359
			v8.3903h9.2359c3.2312,0,5.86,2.6291,5.86,5.8601s-2.6288,5.8601-5.86,5.8601h-17.6261h-0.0001V0h-8.3904v20.1106h-24.6117v8.3903
			h36.3778c11.0889,0,20.1105,9.0213,20.1105,20.1101H250C250,40.3022,246.4243,32.8141,240.7328,27.5999z"/>
		<polygon class="st0" points="176.731,12.5855 168.3407,12.5855 168.3407,48.611 176.731,48.611 201.3427,48.611 201.3427,40.2207 
			176.731,40.2207 		"/>
		<rect x="85.8612" y="32.6961" class="st0" width="8.3903" height="15.9149"/>
	</g>
</g>
</svg>
